G04*
G04 #@! TF.GenerationSoftware,Altium Limited,Altium Designer,20.1.14 (287)*
G04*
G04 Layer_Color=16711935*
%FSLAX25Y25*%
%MOIN*%
G70*
G04*
G04 #@! TF.SameCoordinates,3CBCD0D0-32B7-46DE-8EB3-B5E10EB4AE05*
G04*
G04*
G04 #@! TF.FilePolarity,Positive*
G04*
G01*
G75*
%ADD10C,0.00394*%
D10*
X38000Y7500D02*
X38603Y6717D01*
X39250Y5969D01*
X39938Y5259D01*
X40666Y4590D01*
X41431Y3964D01*
X42230Y3382D01*
X43062Y2847D01*
X43922Y2360D01*
X44809Y1924D01*
X45720Y1538D01*
X46651Y1206D01*
X47599Y927D01*
X48562Y703D01*
X49536Y534D01*
X50519Y421D01*
X51506Y365D01*
X52494D01*
X53481Y421D01*
X54464Y534D01*
X55438Y703D01*
X56401Y927D01*
X57349Y1206D01*
X58280Y1538D01*
X59191Y1924D01*
X60078Y2360D01*
X60938Y2847D01*
X61770Y3382D01*
X62569Y3964D01*
X63334Y4590D01*
X64062Y5259D01*
X64750Y5969D01*
X65397Y6717D01*
X66000Y7500D01*
Y146500D02*
X65397Y147283D01*
X64750Y148031D01*
X64062Y148741D01*
X63334Y149410D01*
X62569Y150036D01*
X61770Y150618D01*
X60938Y151153D01*
X60078Y151640D01*
X59191Y152076D01*
X58280Y152462D01*
X57349Y152794D01*
X56401Y153073D01*
X55438Y153297D01*
X54464Y153466D01*
X53481Y153579D01*
X52494Y153635D01*
X51506D01*
X50519Y153579D01*
X49536Y153466D01*
X48562Y153297D01*
X47599Y153073D01*
X46651Y152794D01*
X45720Y152462D01*
X44809Y152076D01*
X43922Y151640D01*
X43062Y151153D01*
X42230Y150618D01*
X41431Y150036D01*
X40666Y149410D01*
X39938Y148741D01*
X39250Y148031D01*
X38603Y147283D01*
X38000Y146500D01*
X9015Y104490D02*
X8484Y103641D01*
X7970Y102782D01*
X7473Y101914D01*
X6992Y101035D01*
X6529Y100148D01*
X6084Y99251D01*
X5656Y98346D01*
X5246Y97433D01*
X4855Y96512D01*
X4481Y95583D01*
X4126Y94647D01*
X3788Y93704D01*
X3470Y92755D01*
X3170Y91800D01*
X2889Y90839D01*
X2627Y89873D01*
X2384Y88902D01*
X2160Y87926D01*
X1956Y86946D01*
X1770Y85963D01*
X1604Y84976D01*
X1457Y83985D01*
X1330Y82992D01*
X1222Y81997D01*
X1134Y81000D01*
X1065Y80001D01*
X1016Y79001D01*
X986Y78001D01*
X977Y77000D01*
X986Y75999D01*
X1016Y74998D01*
X1065Y73998D01*
X1134Y73000D01*
X1222Y72002D01*
X1330Y71007D01*
X1457Y70014D01*
X1604Y69024D01*
X1770Y68037D01*
X1956Y67053D01*
X2160Y66073D01*
X2384Y65097D01*
X2627Y64126D01*
X2889Y63160D01*
X3170Y62199D01*
X3470Y61244D01*
X3789Y60295D01*
X4126Y59353D01*
X4481Y58417D01*
X4855Y57488D01*
X5247Y56567D01*
X5657Y55654D01*
X6084Y54748D01*
X6530Y53852D01*
X6993Y52964D01*
X7473Y52086D01*
X7970Y51217D01*
X8484Y50358D01*
X9015Y49510D01*
X94985Y49510D02*
X95516Y50359D01*
X96030Y51218D01*
X96527Y52086D01*
X97008Y52965D01*
X97471Y53852D01*
X97916Y54749D01*
X98344Y55654D01*
X98753Y56567D01*
X99145Y57488D01*
X99519Y58417D01*
X99875Y59353D01*
X100212Y60296D01*
X100530Y61245D01*
X100830Y62200D01*
X101111Y63161D01*
X101373Y64127D01*
X101616Y65098D01*
X101840Y66074D01*
X102044Y67054D01*
X102230Y68037D01*
X102396Y69024D01*
X102543Y70015D01*
X102670Y71008D01*
X102778Y72003D01*
X102866Y73000D01*
X102935Y73999D01*
X102984Y74998D01*
X103014Y75999D01*
X103023Y77000D01*
X103014Y78001D01*
X102984Y79002D01*
X102935Y80002D01*
X102866Y81000D01*
X102778Y81998D01*
X102670Y82993D01*
X102543Y83986D01*
X102396Y84976D01*
X102230Y85963D01*
X102044Y86947D01*
X101840Y87927D01*
X101616Y88902D01*
X101373Y89874D01*
X101111Y90840D01*
X100830Y91801D01*
X100530Y92756D01*
X100211Y93705D01*
X99874Y94647D01*
X99519Y95583D01*
X99145Y96512D01*
X98753Y97433D01*
X98343Y98346D01*
X97916Y99252D01*
X97470Y100148D01*
X97008Y101036D01*
X96527Y101914D01*
X96030Y102783D01*
X95516Y103642D01*
X94985Y104490D01*
X9015Y49510D02*
X38000Y7500D01*
X66000D02*
X94985Y49510D01*
X9015Y104490D02*
X38000Y146500D01*
X66000D02*
X94985Y104490D01*
X52000Y129000D02*
Y136350D01*
M02*
