G04*
G04 #@! TF.GenerationSoftware,Altium Limited,Altium Designer,20.1.14 (287)*
G04*
G04 Layer_Physical_Order=2*
G04 Layer_Color=16711680*
%FSLAX25Y25*%
%MOIN*%
G70*
G04*
G04 #@! TF.SameCoordinates,3CBCD0D0-32B7-46DE-8EB3-B5E10EB4AE05*
G04*
G04*
G04 #@! TF.FilePolarity,Positive*
G04*
G01*
G75*
%ADD37C,0.03150*%
%ADD38C,0.01181*%
%ADD40C,0.08661*%
%ADD41C,0.27559*%
%ADD42C,0.02362*%
G36*
X54869Y152397D02*
X56737Y151948D01*
X58539Y151282D01*
X60251Y150409D01*
X61848Y149340D01*
X63308Y148091D01*
X64611Y146679D01*
X65168Y145911D01*
X94135Y103926D01*
X95084Y102442D01*
X96783Y99316D01*
X98256Y96077D01*
X99495Y92742D01*
X100493Y89327D01*
X101247Y85850D01*
X101751Y82328D01*
X102004Y78779D01*
Y75221D01*
X101751Y71672D01*
X101247Y68150D01*
X100493Y64673D01*
X99495Y61258D01*
X98256Y57923D01*
X96783Y54684D01*
X95084Y51558D01*
X94135Y50074D01*
X65168Y8089D01*
X64611Y7321D01*
X63308Y5909D01*
X61848Y4660D01*
X60251Y3591D01*
X58539Y2718D01*
X56737Y2052D01*
X54869Y1603D01*
X52961Y1377D01*
X51039D01*
X49131Y1603D01*
X47263Y2052D01*
X45461Y2718D01*
X43749Y3591D01*
X42152Y4660D01*
X40692Y5909D01*
X39389Y7321D01*
X38832Y8089D01*
X9865Y50074D01*
X8916Y51558D01*
X7217Y54684D01*
X5744Y57923D01*
X4505Y61258D01*
X3507Y64673D01*
X2753Y68150D01*
X2249Y71672D01*
X1996Y75221D01*
Y78779D01*
X2249Y82328D01*
X2753Y85850D01*
X3507Y89327D01*
X4505Y92742D01*
X5744Y96077D01*
X7217Y99316D01*
X8916Y102442D01*
X9865Y103926D01*
X38832Y145911D01*
X39389Y146679D01*
X40692Y148091D01*
X42152Y149340D01*
X43749Y150409D01*
X45461Y151282D01*
X47263Y151948D01*
X49131Y152397D01*
X51039Y152623D01*
X52961D01*
X54869Y152397D01*
D02*
G37*
%LPC*%
G36*
X73500Y125124D02*
Y123500D01*
X75124D01*
X75055Y123851D01*
X74572Y124573D01*
X73851Y125055D01*
X73500Y125124D01*
D02*
G37*
G36*
X72500D02*
X72149Y125055D01*
X71428Y124573D01*
X70946Y123851D01*
X70876Y123500D01*
X72500D01*
Y125124D01*
D02*
G37*
G36*
X68000D02*
Y123500D01*
X69624D01*
X69555Y123851D01*
X69073Y124573D01*
X68351Y125055D01*
X68000Y125124D01*
D02*
G37*
G36*
X67000D02*
X66649Y125055D01*
X65927Y124573D01*
X65446Y123851D01*
X65376Y123500D01*
X67000D01*
Y125124D01*
D02*
G37*
G36*
X75124Y122500D02*
X73500D01*
Y120876D01*
X73851Y120946D01*
X74572Y121428D01*
X75055Y122149D01*
X75124Y122500D01*
D02*
G37*
G36*
X72500D02*
X70876D01*
X70946Y122149D01*
X71428Y121428D01*
X72149Y120946D01*
X72500Y120876D01*
Y122500D01*
D02*
G37*
G36*
X69624D02*
X68000D01*
Y120876D01*
X68351Y120946D01*
X69073Y121428D01*
X69555Y122149D01*
X69624Y122500D01*
D02*
G37*
G36*
X67000D02*
X65376D01*
X65446Y122149D01*
X65927Y121428D01*
X66649Y120946D01*
X67000Y120876D01*
Y122500D01*
D02*
G37*
G36*
X28500Y121124D02*
Y119500D01*
X30124D01*
X30055Y119851D01*
X29572Y120572D01*
X28851Y121054D01*
X28500Y121124D01*
D02*
G37*
G36*
X27500D02*
X27149Y121054D01*
X26428Y120572D01*
X25945Y119851D01*
X25876Y119500D01*
X27500D01*
Y121124D01*
D02*
G37*
G36*
X30124Y118500D02*
X28500D01*
Y116876D01*
X28851Y116946D01*
X29572Y117428D01*
X30055Y118149D01*
X30124Y118500D01*
D02*
G37*
G36*
X27500D02*
X25876D01*
X25945Y118149D01*
X26428Y117428D01*
X27149Y116946D01*
X27500Y116876D01*
Y118500D01*
D02*
G37*
G36*
X25500Y117124D02*
Y115500D01*
X27124D01*
X27055Y115851D01*
X26572Y116572D01*
X25851Y117054D01*
X25500Y117124D01*
D02*
G37*
G36*
X24500D02*
X24149Y117054D01*
X23427Y116572D01*
X22945Y115851D01*
X22876Y115500D01*
X24500D01*
Y117124D01*
D02*
G37*
G36*
X80992Y116185D02*
Y114561D01*
X82617D01*
X82547Y114912D01*
X82065Y115633D01*
X81343Y116115D01*
X80992Y116185D01*
D02*
G37*
G36*
X79992D02*
X79641Y116115D01*
X78920Y115633D01*
X78438Y114912D01*
X78368Y114561D01*
X79992D01*
Y116185D01*
D02*
G37*
G36*
X27124Y114500D02*
X25500D01*
Y112876D01*
X25851Y112945D01*
X26572Y113427D01*
X27055Y114149D01*
X27124Y114500D01*
D02*
G37*
G36*
X24500D02*
X22876D01*
X22945Y114149D01*
X23427Y113427D01*
X24149Y112945D01*
X24500Y112876D01*
Y114500D01*
D02*
G37*
G36*
X82617Y113561D02*
X80992D01*
Y111936D01*
X81343Y112006D01*
X82065Y112488D01*
X82547Y113210D01*
X82617Y113561D01*
D02*
G37*
G36*
X79992D02*
X78368D01*
X78438Y113210D01*
X78920Y112488D01*
X79641Y112006D01*
X79992Y111936D01*
Y113561D01*
D02*
G37*
G36*
X22500Y113124D02*
Y111500D01*
X24124D01*
X24055Y111851D01*
X23573Y112573D01*
X22851Y113055D01*
X22500Y113124D01*
D02*
G37*
G36*
X21500D02*
X21149Y113055D01*
X20427Y112573D01*
X19945Y111851D01*
X19876Y111500D01*
X21500D01*
Y113124D01*
D02*
G37*
G36*
X24124Y110500D02*
X22500D01*
Y108876D01*
X22851Y108946D01*
X23573Y109427D01*
X24055Y110149D01*
X24124Y110500D01*
D02*
G37*
G36*
X21500D02*
X19876D01*
X19945Y110149D01*
X20427Y109427D01*
X21149Y108946D01*
X21500Y108876D01*
Y110500D01*
D02*
G37*
G36*
X19500Y109124D02*
Y107500D01*
X21124D01*
X21055Y107851D01*
X20572Y108572D01*
X19851Y109055D01*
X19500Y109124D01*
D02*
G37*
G36*
X18500D02*
X18149Y109055D01*
X17427Y108572D01*
X16945Y107851D01*
X16876Y107500D01*
X18500D01*
Y109124D01*
D02*
G37*
G36*
X21124Y106500D02*
X19500D01*
Y104876D01*
X19851Y104946D01*
X20572Y105428D01*
X21055Y106149D01*
X21124Y106500D01*
D02*
G37*
G36*
X18500D02*
X16876D01*
X16945Y106149D01*
X17427Y105428D01*
X18149Y104946D01*
X18500Y104876D01*
Y106500D01*
D02*
G37*
G36*
X65000Y104507D02*
X64232Y104354D01*
X63581Y103919D01*
X63571Y103905D01*
X52114D01*
Y103913D01*
X50329Y103773D01*
X48587Y103355D01*
X46933Y102669D01*
X45406Y101733D01*
X44044Y100570D01*
X42881Y99208D01*
X41945Y97681D01*
X41260Y96027D01*
X40842Y94285D01*
X40701Y92500D01*
X40709D01*
Y82123D01*
X40209Y82073D01*
X40146Y82390D01*
X40055Y82851D01*
X39573Y83573D01*
X38851Y84054D01*
X38500Y84124D01*
Y82000D01*
Y79876D01*
X38851Y79945D01*
X39573Y80427D01*
X40055Y81149D01*
X40146Y81610D01*
X40209Y81927D01*
X40709Y81877D01*
Y77123D01*
X40209Y77073D01*
X40146Y77390D01*
X40055Y77851D01*
X39573Y78572D01*
X38851Y79054D01*
X38500Y79124D01*
Y77000D01*
Y74876D01*
X38851Y74945D01*
X39573Y75428D01*
X40055Y76149D01*
X40146Y76610D01*
X40209Y76927D01*
X40709Y76877D01*
Y66543D01*
X40695Y66533D01*
X40260Y65882D01*
X40107Y65114D01*
X40260Y64346D01*
X40695Y63695D01*
X41346Y63260D01*
X42114Y63107D01*
X42882Y63260D01*
X43533Y63695D01*
X43968Y64346D01*
X44121Y65114D01*
X43968Y65882D01*
X43533Y66533D01*
X43519Y66543D01*
Y92500D01*
X43507Y92562D01*
X43666Y94180D01*
X44156Y95796D01*
X44952Y97285D01*
X46023Y98591D01*
X47329Y99662D01*
X48818Y100458D01*
X50434Y100948D01*
X52052Y101107D01*
X52114Y101095D01*
X63571D01*
X63581Y101081D01*
X64232Y100646D01*
X65000Y100493D01*
X65768Y100646D01*
X66419Y101081D01*
X66854Y101732D01*
X67007Y102500D01*
X66854Y103268D01*
X66419Y103919D01*
X65768Y104354D01*
X65000Y104507D01*
D02*
G37*
G36*
X93709Y99624D02*
Y98000D01*
X95333D01*
X95263Y98351D01*
X94781Y99072D01*
X94060Y99555D01*
X93709Y99624D01*
D02*
G37*
G36*
X92709D02*
X92358Y99555D01*
X91636Y99072D01*
X91154Y98351D01*
X91084Y98000D01*
X92709D01*
Y99624D01*
D02*
G37*
G36*
X95333Y97000D02*
X93709D01*
Y95376D01*
X94060Y95446D01*
X94781Y95928D01*
X95263Y96649D01*
X95333Y97000D01*
D02*
G37*
G36*
X92709D02*
X91084D01*
X91154Y96649D01*
X91636Y95928D01*
X92358Y95446D01*
X92709Y95376D01*
Y97000D01*
D02*
G37*
G36*
X94635Y90124D02*
Y88500D01*
X96260D01*
X96190Y88851D01*
X95708Y89573D01*
X94986Y90055D01*
X94635Y90124D01*
D02*
G37*
G36*
X93635D02*
X93284Y90055D01*
X92563Y89573D01*
X92081Y88851D01*
X92011Y88500D01*
X93635D01*
Y90124D01*
D02*
G37*
G36*
X96260Y87500D02*
X94635D01*
Y85876D01*
X94986Y85945D01*
X95708Y86427D01*
X96190Y87149D01*
X96260Y87500D01*
D02*
G37*
G36*
X93635D02*
X92011D01*
X92081Y87149D01*
X92563Y86427D01*
X93284Y85945D01*
X93635Y85876D01*
Y87500D01*
D02*
G37*
G36*
X37500Y84124D02*
X37149Y84054D01*
X36428Y83573D01*
X35945Y82851D01*
X35876Y82500D01*
X37500D01*
Y84124D01*
D02*
G37*
G36*
Y81500D02*
X35876D01*
X35945Y81149D01*
X36428Y80427D01*
X37149Y79945D01*
X37500Y79876D01*
Y81500D01*
D02*
G37*
G36*
X8000Y79331D02*
Y77707D01*
X9624D01*
X9555Y78058D01*
X9072Y78780D01*
X8351Y79262D01*
X8000Y79331D01*
D02*
G37*
G36*
X7000D02*
X6649Y79262D01*
X5928Y78780D01*
X5446Y78058D01*
X5376Y77707D01*
X7000D01*
Y79331D01*
D02*
G37*
G36*
X37500Y79124D02*
X37149Y79054D01*
X36428Y78572D01*
X35945Y77851D01*
X35876Y77500D01*
X37500D01*
Y79124D01*
D02*
G37*
G36*
X9624Y76707D02*
X8000D01*
Y75083D01*
X8351Y75153D01*
X9072Y75635D01*
X9555Y76356D01*
X9624Y76707D01*
D02*
G37*
G36*
X7000D02*
X5376D01*
X5446Y76356D01*
X5928Y75635D01*
X6649Y75153D01*
X7000Y75083D01*
Y76707D01*
D02*
G37*
G36*
X37500Y76500D02*
X35876D01*
X35945Y76149D01*
X36428Y75428D01*
X37149Y74945D01*
X37500Y74876D01*
Y76500D01*
D02*
G37*
G36*
X8000Y73870D02*
Y72246D01*
X9624D01*
X9555Y72597D01*
X9072Y73318D01*
X8351Y73800D01*
X8000Y73870D01*
D02*
G37*
G36*
X7000D02*
X6649Y73800D01*
X5928Y73318D01*
X5446Y72597D01*
X5376Y72246D01*
X7000D01*
Y73870D01*
D02*
G37*
G36*
X9624Y71246D02*
X8000D01*
Y69622D01*
X8351Y69691D01*
X9072Y70173D01*
X9555Y70895D01*
X9624Y71246D01*
D02*
G37*
G36*
X7000D02*
X5376D01*
X5446Y70895D01*
X5928Y70173D01*
X6649Y69691D01*
X7000Y69622D01*
Y71246D01*
D02*
G37*
G36*
X47500Y70124D02*
Y68500D01*
X49124D01*
X49055Y68851D01*
X48572Y69573D01*
X47851Y70055D01*
X47500Y70124D01*
D02*
G37*
G36*
X46500D02*
X46149Y70055D01*
X45428Y69573D01*
X44945Y68851D01*
X44876Y68500D01*
X46500D01*
Y70124D01*
D02*
G37*
G36*
X8000Y68677D02*
Y67052D01*
X9624D01*
X9555Y67403D01*
X9072Y68125D01*
X8351Y68607D01*
X8000Y68677D01*
D02*
G37*
G36*
X7000D02*
X6649Y68607D01*
X5928Y68125D01*
X5446Y67403D01*
X5376Y67052D01*
X7000D01*
Y68677D01*
D02*
G37*
G36*
X49124Y67500D02*
X47500D01*
Y65876D01*
X47851Y65946D01*
X48572Y66427D01*
X49055Y67149D01*
X49124Y67500D01*
D02*
G37*
G36*
X46500D02*
X44876D01*
X44945Y67149D01*
X45428Y66427D01*
X46149Y65946D01*
X46500Y65876D01*
Y67500D01*
D02*
G37*
G36*
X30494Y75017D02*
X29158Y74841D01*
X27913Y74325D01*
X26844Y73505D01*
X26023Y72435D01*
X25508Y71190D01*
X25332Y69854D01*
X25508Y68518D01*
X26023Y67273D01*
X26844Y66204D01*
X27913Y65384D01*
X29158Y64868D01*
X30494Y64692D01*
X31830Y64868D01*
X33075Y65384D01*
X34144Y66204D01*
X34965Y67273D01*
X35480Y68518D01*
X35656Y69854D01*
X35480Y71190D01*
X34965Y72435D01*
X34144Y73505D01*
X33075Y74325D01*
X31830Y74841D01*
X30494Y75017D01*
D02*
G37*
G36*
X9624Y66052D02*
X8000D01*
Y64428D01*
X8351Y64498D01*
X9072Y64980D01*
X9555Y65701D01*
X9624Y66052D01*
D02*
G37*
G36*
X7000D02*
X5376D01*
X5446Y65701D01*
X5928Y64980D01*
X6649Y64498D01*
X7000Y64428D01*
Y66052D01*
D02*
G37*
G36*
X94635Y65323D02*
Y63699D01*
X96260D01*
X96190Y64050D01*
X95708Y64771D01*
X94986Y65254D01*
X94635Y65323D01*
D02*
G37*
G36*
X93635D02*
X93284Y65254D01*
X92563Y64771D01*
X92081Y64050D01*
X92011Y63699D01*
X93635D01*
Y65323D01*
D02*
G37*
G36*
X96260Y62699D02*
X94635D01*
Y61075D01*
X94986Y61144D01*
X95708Y61626D01*
X96190Y62348D01*
X96260Y62699D01*
D02*
G37*
G36*
X93635D02*
X92011D01*
X92081Y62348D01*
X92563Y61626D01*
X93284Y61144D01*
X93635Y61075D01*
Y62699D01*
D02*
G37*
G36*
X79253Y61569D02*
Y59944D01*
X80877D01*
X80808Y60295D01*
X80326Y61017D01*
X79604Y61499D01*
X79253Y61569D01*
D02*
G37*
G36*
X78253D02*
X77902Y61499D01*
X77181Y61017D01*
X76698Y60295D01*
X76629Y59944D01*
X78253D01*
Y61569D01*
D02*
G37*
G36*
X80877Y58944D02*
X79253D01*
Y57320D01*
X79604Y57390D01*
X80326Y57872D01*
X80808Y58593D01*
X80877Y58944D01*
D02*
G37*
G36*
X78253D02*
X76629D01*
X76698Y58593D01*
X77181Y57872D01*
X77902Y57390D01*
X78253Y57320D01*
Y58944D01*
D02*
G37*
G36*
X53871Y44874D02*
X52500D01*
Y43876D01*
X52851Y43945D01*
X53572Y44427D01*
X53871Y44874D01*
D02*
G37*
G36*
X51500D02*
X50129D01*
X50428Y44427D01*
X51149Y43945D01*
X51500Y43876D01*
Y44874D01*
D02*
G37*
G36*
X52500Y43124D02*
Y41500D01*
X54124D01*
X54054Y41851D01*
X53572Y42573D01*
X52851Y43055D01*
X52500Y43124D01*
D02*
G37*
G36*
X51500D02*
X51149Y43055D01*
X50428Y42573D01*
X49945Y41851D01*
X49876Y41500D01*
X51500D01*
Y43124D01*
D02*
G37*
G36*
X27500Y41798D02*
Y40173D01*
X29124D01*
X29055Y40524D01*
X28572Y41246D01*
X27851Y41728D01*
X27500Y41798D01*
D02*
G37*
G36*
X26500D02*
X26149Y41728D01*
X25427Y41246D01*
X24945Y40524D01*
X24876Y40173D01*
X26500D01*
Y41798D01*
D02*
G37*
G36*
X22500D02*
Y40173D01*
X24124D01*
X24055Y40524D01*
X23573Y41246D01*
X22851Y41728D01*
X22500Y41798D01*
D02*
G37*
G36*
X21500D02*
X21149Y41728D01*
X20427Y41246D01*
X19945Y40524D01*
X19876Y40173D01*
X21500D01*
Y41798D01*
D02*
G37*
G36*
X54124Y40500D02*
X52500D01*
Y38876D01*
X52851Y38945D01*
X53572Y39428D01*
X54054Y40149D01*
X54124Y40500D01*
D02*
G37*
G36*
X51500D02*
X49876D01*
X49945Y40149D01*
X50428Y39428D01*
X51149Y38945D01*
X51500Y38876D01*
Y40500D01*
D02*
G37*
G36*
X82370Y40124D02*
Y38500D01*
X83994D01*
X83925Y38851D01*
X83443Y39573D01*
X82721Y40055D01*
X82370Y40124D01*
D02*
G37*
G36*
X81370D02*
X81019Y40055D01*
X80298Y39573D01*
X79816Y38851D01*
X79746Y38500D01*
X81370D01*
Y40124D01*
D02*
G37*
G36*
X29124Y39173D02*
X27500D01*
Y37549D01*
X27851Y37619D01*
X28572Y38101D01*
X29055Y38822D01*
X29124Y39173D01*
D02*
G37*
G36*
X26500D02*
X24876D01*
X24945Y38822D01*
X25427Y38101D01*
X26149Y37619D01*
X26500Y37549D01*
Y39173D01*
D02*
G37*
G36*
X24124D02*
X22500D01*
Y37549D01*
X22851Y37619D01*
X23573Y38101D01*
X24055Y38822D01*
X24124Y39173D01*
D02*
G37*
G36*
X21500D02*
X19876D01*
X19945Y38822D01*
X20427Y38101D01*
X21149Y37619D01*
X21500Y37549D01*
Y39173D01*
D02*
G37*
G36*
X73506Y75017D02*
X72170Y74841D01*
X70925Y74325D01*
X69856Y73505D01*
X69035Y72435D01*
X68520Y71190D01*
X68344Y69854D01*
X68520Y68518D01*
X69035Y67273D01*
X69856Y66204D01*
X70925Y65384D01*
X72101Y64897D01*
Y41006D01*
X72114Y40943D01*
X71947Y39680D01*
X71436Y38445D01*
X70622Y37384D01*
X69561Y36570D01*
X68326Y36059D01*
X68230Y36046D01*
X67768Y36354D01*
X67000Y36507D01*
X66232Y36354D01*
X65581Y35919D01*
X65146Y35268D01*
X64993Y34500D01*
X65146Y33732D01*
X65581Y33081D01*
X66232Y32646D01*
X67000Y32493D01*
X67768Y32646D01*
X68419Y33081D01*
X68521Y33234D01*
X68546Y33236D01*
X70032Y33687D01*
X71401Y34419D01*
X72602Y35404D01*
X73587Y36605D01*
X74319Y37974D01*
X74770Y39460D01*
X74922Y41006D01*
X74911D01*
Y64897D01*
X76087Y65384D01*
X77156Y66204D01*
X77977Y67273D01*
X78492Y68518D01*
X78668Y69854D01*
X78492Y71190D01*
X77977Y72435D01*
X77156Y73505D01*
X76087Y74325D01*
X74842Y74841D01*
X73506Y75017D01*
D02*
G37*
G36*
X83994Y37500D02*
X82370D01*
Y35876D01*
X82721Y35945D01*
X83443Y36428D01*
X83925Y37149D01*
X83994Y37500D01*
D02*
G37*
G36*
X81370D02*
X79746D01*
X79816Y37149D01*
X80298Y36428D01*
X81019Y35945D01*
X81370Y35876D01*
Y37500D01*
D02*
G37*
G36*
X52500Y37124D02*
Y35500D01*
X54124D01*
X54054Y35851D01*
X53572Y36573D01*
X52851Y37055D01*
X52500Y37124D01*
D02*
G37*
G36*
X51500D02*
X51149Y37055D01*
X50428Y36573D01*
X49945Y35851D01*
X49876Y35500D01*
X51500D01*
Y37124D01*
D02*
G37*
G36*
X78630Y35124D02*
Y33500D01*
X80254D01*
X80185Y33851D01*
X79702Y34572D01*
X78981Y35055D01*
X78630Y35124D01*
D02*
G37*
G36*
X77630D02*
X77279Y35055D01*
X76557Y34572D01*
X76075Y33851D01*
X76006Y33500D01*
X77630D01*
Y35124D01*
D02*
G37*
G36*
X54124Y34500D02*
X52500D01*
Y32876D01*
X52851Y32945D01*
X53572Y33428D01*
X54054Y34149D01*
X54124Y34500D01*
D02*
G37*
G36*
X51500D02*
X49876D01*
X49945Y34149D01*
X50428Y33428D01*
X51149Y32945D01*
X51500Y32876D01*
Y34500D01*
D02*
G37*
G36*
X80254Y32500D02*
X78630D01*
Y30876D01*
X78981Y30945D01*
X79702Y31427D01*
X80185Y32149D01*
X80254Y32500D01*
D02*
G37*
G36*
X77630D02*
X76006D01*
X76075Y32149D01*
X76557Y31427D01*
X77279Y30945D01*
X77630Y30876D01*
Y32500D01*
D02*
G37*
G36*
X74984Y30629D02*
Y29005D01*
X76609D01*
X76539Y29356D01*
X76057Y30077D01*
X75335Y30560D01*
X74984Y30629D01*
D02*
G37*
G36*
X73984D02*
X73633Y30560D01*
X72912Y30077D01*
X72430Y29356D01*
X72360Y29005D01*
X73984D01*
Y30629D01*
D02*
G37*
G36*
X76609Y28005D02*
X74984D01*
Y26381D01*
X75335Y26450D01*
X76057Y26932D01*
X76539Y27654D01*
X76609Y28005D01*
D02*
G37*
G36*
X73984D02*
X72360D01*
X72430Y27654D01*
X72912Y26932D01*
X73633Y26450D01*
X73984Y26381D01*
Y28005D01*
D02*
G37*
G36*
X71500Y26124D02*
Y24500D01*
X73124D01*
X73054Y24851D01*
X72572Y25572D01*
X71851Y26055D01*
X71500Y26124D01*
D02*
G37*
G36*
X70500D02*
X70149Y26055D01*
X69428Y25572D01*
X68945Y24851D01*
X68876Y24500D01*
X70500D01*
Y26124D01*
D02*
G37*
G36*
X73124Y23500D02*
X71500D01*
Y21876D01*
X71851Y21945D01*
X72572Y22427D01*
X73054Y23149D01*
X73124Y23500D01*
D02*
G37*
G36*
X70500D02*
X68876D01*
X68945Y23149D01*
X69428Y22427D01*
X70149Y21945D01*
X70500Y21876D01*
Y23500D01*
D02*
G37*
%LPD*%
D37*
X54100Y54500D02*
D03*
X49800D02*
D03*
Y58600D02*
D03*
X54100D02*
D03*
Y50300D02*
D03*
X49900D02*
D03*
D38*
X67000Y34500D02*
X68018Y34580D01*
X69010Y34818D01*
X69954Y35209D01*
X70824Y35743D01*
X71600Y36406D01*
X72263Y37182D01*
X72797Y38052D01*
X73188Y38996D01*
X73426Y39988D01*
X73506Y41006D01*
X52114Y102500D02*
X51134Y102452D01*
X50163Y102308D01*
X49211Y102069D01*
X48287Y101739D01*
X47400Y101319D01*
X46558Y100815D01*
X45770Y100230D01*
X45043Y99571D01*
X44384Y98844D01*
X43799Y98056D01*
X43295Y97214D01*
X42875Y96327D01*
X42545Y95403D01*
X42306Y94451D01*
X42162Y93480D01*
X42114Y92500D01*
X42000Y65000D02*
X42114Y65114D01*
X73506Y41006D02*
Y69854D01*
X52114Y102500D02*
X65000D01*
X42114Y65114D02*
Y92500D01*
D40*
X73506Y69854D02*
D03*
X30494D02*
D03*
D41*
X52000Y17650D02*
D03*
Y136350D02*
D03*
D42*
X80492Y114061D02*
D03*
X93209Y97500D02*
D03*
X78753Y59444D02*
D03*
X7500Y66552D02*
D03*
Y71746D02*
D03*
Y77207D02*
D03*
X73000Y123000D02*
D03*
X67500D02*
D03*
X81870Y38000D02*
D03*
X78130Y33000D02*
D03*
X74484Y28505D02*
D03*
X71000Y24000D02*
D03*
X28000Y119000D02*
D03*
X25000Y115000D02*
D03*
X22000Y111000D02*
D03*
X19000Y107000D02*
D03*
X38000Y82000D02*
D03*
Y77000D02*
D03*
X27000Y39673D02*
D03*
X22000D02*
D03*
X94135Y63199D02*
D03*
X94135Y88000D02*
D03*
X47000Y68000D02*
D03*
X52000Y35000D02*
D03*
Y41000D02*
D03*
Y46000D02*
D03*
X67000Y34500D02*
D03*
X65000Y102500D02*
D03*
X42114Y65114D02*
D03*
M02*
