G04*
G04 #@! TF.GenerationSoftware,Altium Limited,Altium Designer,20.1.14 (287)*
G04*
G04 Layer_Color=16711935*
%FSLAX25Y25*%
%MOIN*%
G70*
G04*
G04 #@! TF.SameCoordinates,3CBCD0D0-32B7-46DE-8EB3-B5E10EB4AE05*
G04*
G04*
G04 #@! TF.FilePolarity,Negative*
G04*
G01*
G75*
%ADD35C,0.08961*%
%ADD36C,0.27858*%
G36*
X57817Y64273D02*
X57845Y64265D01*
X57871Y64251D01*
X57894Y64232D01*
X57912Y64210D01*
X57926Y64183D01*
X57935Y64155D01*
X57938Y64126D01*
Y44874D01*
X57935Y44845D01*
X57926Y44816D01*
X57912Y44791D01*
X57894Y44768D01*
X57871Y44749D01*
X57845Y44735D01*
X57817Y44727D01*
X57787Y44724D01*
X46213D01*
X46183Y44727D01*
X46155Y44735D01*
X46129Y44749D01*
X46106Y44768D01*
X46088Y44791D01*
X46074Y44816D01*
X46065Y44845D01*
X46062Y44874D01*
Y64126D01*
X46065Y64155D01*
X46074Y64183D01*
X46088Y64210D01*
X46106Y64232D01*
X46129Y64251D01*
X46155Y64265D01*
X46183Y64273D01*
X46213Y64276D01*
X57787D01*
X57817Y64273D01*
D02*
G37*
D35*
X73506Y69854D02*
D03*
X30494D02*
D03*
D36*
X52000Y17650D02*
D03*
Y136350D02*
D03*
M02*
