G04*
G04 #@! TF.GenerationSoftware,Altium Limited,Altium Designer,20.1.14 (287)*
G04*
G04 Layer_Color=8388736*
%FSLAX25Y25*%
%MOIN*%
G70*
G04*
G04 #@! TF.SameCoordinates,3CBCD0D0-32B7-46DE-8EB3-B5E10EB4AE05*
G04*
G04*
G04 #@! TF.FilePolarity,Negative*
G04*
G01*
G75*
%ADD24R,0.10142X0.13095*%
%ADD25R,0.06598X0.07780*%
%ADD26R,0.08764X0.02071*%
%ADD27R,0.08685X0.12110*%
%ADD28R,0.05417X0.05811*%
%ADD29R,0.11323X0.05221*%
%ADD30R,0.02465X0.02465*%
%ADD31R,0.03055X0.02740*%
%ADD32R,0.02268X0.01953*%
%ADD33R,0.02465X0.02465*%
%ADD34R,0.05811X0.05417*%
%ADD35C,0.08961*%
%ADD36C,0.27858*%
%ADD37C,0.03150*%
D24*
X81500Y102000D02*
D03*
X57878D02*
D03*
D25*
X45535Y76500D02*
D03*
X62465D02*
D03*
D26*
X63319Y62000D02*
D03*
Y57000D02*
D03*
Y47000D02*
D03*
Y52000D02*
D03*
X40681Y47000D02*
D03*
Y52000D02*
D03*
Y62000D02*
D03*
Y57000D02*
D03*
D27*
X52000Y54500D02*
D03*
D28*
X83350Y79000D02*
D03*
X89650D02*
D03*
X83350Y71500D02*
D03*
X89650D02*
D03*
D29*
X22000Y58004D02*
D03*
Y45996D02*
D03*
D30*
X32000Y55543D02*
D03*
Y52000D02*
D03*
Y48000D02*
D03*
Y44457D02*
D03*
X80000Y53772D02*
D03*
Y50228D02*
D03*
D31*
X38886Y68000D02*
D03*
X42114D02*
D03*
D32*
X43220Y41500D02*
D03*
X40780D02*
D03*
D33*
X63228D02*
D03*
X66772D02*
D03*
X63228Y38000D02*
D03*
X66772D02*
D03*
D34*
X73500Y50150D02*
D03*
Y43850D02*
D03*
X86500Y59799D02*
D03*
Y53500D02*
D03*
D35*
X73506Y69854D02*
D03*
X30494D02*
D03*
D36*
X52000Y17650D02*
D03*
Y136350D02*
D03*
D37*
X54100Y54500D02*
D03*
X49800D02*
D03*
M02*
