M48
;Layer_Color=9474304
;FILE_FORMAT=2:5
INCH,TZ
;TYPE=PLATED
T1F00S00C0.01181
T2F00S00C0.01968
T3F00S00C0.04291
T4F00S00C0.15748
%
T01
X22000Y39673
X27000
X52000Y41000
Y46000
Y35000
X67000Y34500
X78130Y33000
X74484Y28505
X71000Y24000
X81870Y38000
X78753Y59444
X94135Y63199
X94135Y88000
X93209Y97500
X80492Y114061
X73000Y123000
X67500
X65000Y102500
X38000Y82000
Y77000
X42114Y65114
X47000Y68000
X7500Y66552
Y71746
Y77207
X19000Y107000
X22000Y111000
X25000Y115000
X28000Y119000
T02
X49900Y50300
X54100
Y54500
Y58600
X49800
Y54500
T03
X30494Y69854
X73506
T04
X52000Y17650
Y136350
M30
