G04*
G04 #@! TF.GenerationSoftware,Altium Limited,Altium Designer,20.1.14 (287)*
G04*
G04 Layer_Color=32896*
%FSLAX25Y25*%
%MOIN*%
G70*
G04*
G04 #@! TF.SameCoordinates,3CBCD0D0-32B7-46DE-8EB3-B5E10EB4AE05*
G04*
G04*
G04 #@! TF.FilePolarity,Positive*
G04*
G01*
G75*
G36*
X43005Y104549D02*
X43067D01*
Y104487D01*
X43129D01*
Y104426D01*
X43191D01*
Y104364D01*
X43252D01*
Y104302D01*
Y104240D01*
X43314D01*
Y104178D01*
Y104117D01*
X43376D01*
Y104055D01*
X43438D01*
Y103993D01*
Y103931D01*
Y103869D01*
X43500D01*
Y103808D01*
Y103746D01*
X43561D01*
Y103684D01*
Y103622D01*
X43623D01*
Y103560D01*
Y103499D01*
Y103437D01*
X43685D01*
Y103375D01*
Y103313D01*
X43747D01*
Y103252D01*
Y103190D01*
Y103128D01*
X43808D01*
Y103066D01*
Y103004D01*
Y102943D01*
Y102881D01*
X43870D01*
Y102819D01*
Y102757D01*
Y102695D01*
Y102634D01*
X43932D01*
Y102572D01*
Y102510D01*
Y102448D01*
Y102386D01*
Y102325D01*
X43994D01*
Y102263D01*
Y102201D01*
Y102139D01*
Y102077D01*
Y102016D01*
X44056D01*
Y101954D01*
Y101892D01*
Y101830D01*
Y101769D01*
Y101707D01*
Y101645D01*
Y101583D01*
X44118D01*
Y101521D01*
Y101460D01*
Y101398D01*
Y101336D01*
Y101274D01*
Y101212D01*
Y101151D01*
Y101089D01*
Y101027D01*
Y100965D01*
Y100903D01*
Y100842D01*
Y100780D01*
Y100718D01*
Y100656D01*
Y100594D01*
Y100533D01*
Y100471D01*
Y100409D01*
Y100347D01*
Y100285D01*
Y100224D01*
Y100162D01*
Y100100D01*
X44056D01*
Y100038D01*
Y99976D01*
Y99915D01*
Y99853D01*
Y99791D01*
Y99729D01*
Y99668D01*
Y99606D01*
X43994D01*
Y99544D01*
Y99482D01*
Y99420D01*
Y99359D01*
Y99297D01*
X43932D01*
Y99235D01*
Y99173D01*
Y99111D01*
Y99050D01*
X43870D01*
Y98988D01*
Y98926D01*
Y98864D01*
Y98803D01*
X43808D01*
Y98741D01*
Y98679D01*
Y98617D01*
X43747D01*
Y98555D01*
X43808D01*
Y98493D01*
X43747D01*
Y98432D01*
Y98370D01*
Y98308D01*
X43685D01*
Y98246D01*
Y98185D01*
X43623D01*
Y98123D01*
Y98061D01*
X43561D01*
Y97999D01*
Y97937D01*
X43500D01*
Y97876D01*
Y97814D01*
Y97752D01*
X43438D01*
Y97690D01*
Y97628D01*
X43376D01*
Y97567D01*
X43314D01*
Y97505D01*
Y97443D01*
X43252D01*
Y97381D01*
Y97319D01*
X43191D01*
Y97258D01*
Y97196D01*
X43129D01*
Y97134D01*
X43067D01*
Y97072D01*
X42820D01*
Y97134D01*
Y97196D01*
X42758D01*
Y97258D01*
Y97319D01*
X42820D01*
Y97381D01*
Y97443D01*
X42882D01*
Y97505D01*
Y97567D01*
X42943D01*
Y97628D01*
X43005D01*
Y97690D01*
Y97752D01*
X43067D01*
Y97814D01*
Y97876D01*
X43129D01*
Y97937D01*
Y97999D01*
X43191D01*
Y98061D01*
Y98123D01*
X43252D01*
Y98185D01*
Y98246D01*
X43314D01*
Y98308D01*
Y98370D01*
X43376D01*
Y98432D01*
Y98493D01*
X43438D01*
Y98555D01*
Y98617D01*
Y98679D01*
Y98741D01*
X43500D01*
Y98803D01*
Y98864D01*
Y98926D01*
Y98988D01*
X43561D01*
Y99050D01*
Y99111D01*
Y99173D01*
X43623D01*
Y99235D01*
Y99297D01*
Y99359D01*
Y99420D01*
Y99482D01*
X43685D01*
Y99544D01*
Y99606D01*
Y99668D01*
Y99729D01*
Y99791D01*
Y99853D01*
X43747D01*
Y99915D01*
Y99976D01*
Y100038D01*
Y100100D01*
Y100162D01*
Y100224D01*
Y100285D01*
Y100347D01*
Y100409D01*
Y100471D01*
X43808D01*
Y100533D01*
Y100594D01*
Y100656D01*
Y100718D01*
Y100780D01*
Y100842D01*
Y100903D01*
Y100965D01*
Y101027D01*
Y101089D01*
Y101151D01*
Y101212D01*
X43747D01*
Y101274D01*
Y101336D01*
Y101398D01*
Y101460D01*
Y101521D01*
Y101583D01*
Y101645D01*
Y101707D01*
Y101769D01*
Y101830D01*
X43685D01*
Y101892D01*
Y101954D01*
Y102016D01*
Y102077D01*
Y102139D01*
X43623D01*
Y102201D01*
Y102263D01*
Y102325D01*
Y102386D01*
Y102448D01*
X43561D01*
Y102510D01*
Y102572D01*
Y102634D01*
X43500D01*
Y102695D01*
Y102757D01*
Y102819D01*
Y102881D01*
Y102943D01*
Y103004D01*
X43438D01*
Y103066D01*
Y103128D01*
X43376D01*
Y103190D01*
Y103252D01*
Y103313D01*
X43314D01*
Y103375D01*
Y103437D01*
X43252D01*
Y103499D01*
Y103560D01*
Y103622D01*
X43191D01*
Y103684D01*
X43129D01*
Y103746D01*
Y103808D01*
X43067D01*
Y103869D01*
Y103931D01*
X43005D01*
Y103993D01*
X42943D01*
Y104055D01*
Y104117D01*
X42882D01*
Y104178D01*
X42820D01*
Y104240D01*
Y104302D01*
Y104364D01*
X42758D01*
Y104426D01*
X42820D01*
Y104487D01*
Y104549D01*
X42882D01*
Y104611D01*
X43005D01*
Y104549D01*
D02*
G37*
G36*
X31635D02*
X31697D01*
Y104487D01*
Y104426D01*
Y104364D01*
Y104302D01*
X31635D01*
Y104240D01*
Y104178D01*
X31574D01*
Y104117D01*
X31512D01*
Y104055D01*
Y103993D01*
X31450D01*
Y103931D01*
Y103869D01*
X31388D01*
Y103808D01*
X31326D01*
Y103746D01*
Y103684D01*
X31265D01*
Y103622D01*
Y103560D01*
X31203D01*
Y103499D01*
Y103437D01*
X31141D01*
Y103375D01*
Y103313D01*
X31079D01*
Y103252D01*
Y103190D01*
Y103128D01*
Y103066D01*
X31017D01*
Y103004D01*
Y102943D01*
Y102881D01*
X30956D01*
Y102819D01*
Y102757D01*
Y102695D01*
Y102634D01*
X30894D01*
Y102572D01*
Y102510D01*
Y102448D01*
X30832D01*
Y102386D01*
Y102325D01*
Y102263D01*
Y102201D01*
X30770D01*
Y102139D01*
Y102077D01*
Y102016D01*
Y101954D01*
X30708D01*
Y101892D01*
Y101830D01*
Y101769D01*
Y101707D01*
Y101645D01*
Y101583D01*
Y101521D01*
Y101460D01*
X30647D01*
Y101398D01*
Y101336D01*
Y101274D01*
Y101212D01*
Y101151D01*
Y101089D01*
Y101027D01*
Y100965D01*
Y100903D01*
Y100842D01*
Y100780D01*
Y100718D01*
Y100656D01*
Y100594D01*
Y100533D01*
Y100471D01*
Y100409D01*
Y100347D01*
Y100285D01*
Y100224D01*
X30708D01*
Y100162D01*
Y100100D01*
Y100038D01*
Y99976D01*
Y99915D01*
Y99853D01*
Y99791D01*
X30770D01*
Y99729D01*
Y99668D01*
Y99606D01*
Y99544D01*
Y99482D01*
X30832D01*
Y99420D01*
Y99359D01*
Y99297D01*
Y99235D01*
Y99173D01*
X30894D01*
Y99111D01*
Y99050D01*
Y98988D01*
X30956D01*
Y98926D01*
Y98864D01*
Y98803D01*
Y98741D01*
X31017D01*
Y98679D01*
Y98617D01*
X31079D01*
Y98555D01*
Y98493D01*
Y98432D01*
X31141D01*
Y98370D01*
Y98308D01*
Y98246D01*
Y98185D01*
X31203D01*
Y98123D01*
X31265D01*
Y98061D01*
Y97999D01*
X31326D01*
Y97937D01*
Y97876D01*
X31388D01*
Y97814D01*
X31450D01*
Y97752D01*
Y97690D01*
Y97628D01*
X31512D01*
Y97567D01*
X31574D01*
Y97505D01*
X31635D01*
Y97443D01*
Y97381D01*
X31697D01*
Y97319D01*
Y97258D01*
Y97196D01*
Y97134D01*
X31635D01*
Y97072D01*
X31574D01*
Y97010D01*
X31512D01*
Y97072D01*
X31388D01*
Y97134D01*
X31326D01*
Y97196D01*
Y97258D01*
X31265D01*
Y97319D01*
Y97381D01*
X31203D01*
Y97443D01*
X31141D01*
Y97505D01*
Y97567D01*
X31079D01*
Y97628D01*
Y97690D01*
X31017D01*
Y97752D01*
X30956D01*
Y97814D01*
Y97876D01*
Y97937D01*
X30894D01*
Y97999D01*
Y98061D01*
X30832D01*
Y98123D01*
Y98185D01*
X30770D01*
Y98246D01*
Y98308D01*
Y98370D01*
X30708D01*
Y98432D01*
Y98493D01*
Y98555D01*
X30647D01*
Y98617D01*
Y98679D01*
Y98741D01*
X30585D01*
Y98803D01*
Y98864D01*
Y98926D01*
X30523D01*
Y98988D01*
Y99050D01*
Y99111D01*
Y99173D01*
Y99235D01*
X30461D01*
Y99297D01*
Y99359D01*
Y99420D01*
Y99482D01*
X30400D01*
Y99544D01*
Y99606D01*
Y99668D01*
Y99729D01*
Y99791D01*
Y99853D01*
Y99915D01*
X30338D01*
Y99976D01*
Y100038D01*
Y100100D01*
Y100162D01*
Y100224D01*
Y100285D01*
Y100347D01*
Y100409D01*
Y100471D01*
Y100533D01*
Y100594D01*
Y100656D01*
Y100718D01*
Y100780D01*
Y100842D01*
Y100903D01*
Y100965D01*
Y101027D01*
Y101089D01*
Y101151D01*
Y101212D01*
Y101274D01*
Y101336D01*
Y101398D01*
Y101460D01*
Y101521D01*
Y101583D01*
Y101645D01*
Y101707D01*
Y101769D01*
X30400D01*
Y101830D01*
Y101892D01*
Y101954D01*
Y102016D01*
Y102077D01*
Y102139D01*
X30461D01*
Y102201D01*
Y102263D01*
Y102325D01*
Y102386D01*
Y102448D01*
X30523D01*
Y102510D01*
Y102572D01*
Y102634D01*
Y102695D01*
X30585D01*
Y102757D01*
Y102819D01*
Y102881D01*
X30647D01*
Y102943D01*
Y103004D01*
Y103066D01*
X30708D01*
Y103128D01*
Y103190D01*
Y103252D01*
Y103313D01*
X30770D01*
Y103375D01*
Y103437D01*
X30832D01*
Y103499D01*
Y103560D01*
Y103622D01*
X30894D01*
Y103684D01*
Y103746D01*
X30956D01*
Y103808D01*
Y103869D01*
X31017D01*
Y103931D01*
Y103993D01*
X31079D01*
Y104055D01*
Y104117D01*
X31141D01*
Y104178D01*
Y104240D01*
X31203D01*
Y104302D01*
X31265D01*
Y104364D01*
Y104426D01*
X31326D01*
Y104487D01*
X31388D01*
Y104549D01*
X31450D01*
Y104611D01*
X31635D01*
Y104549D01*
D02*
G37*
G36*
X20080Y88668D02*
Y88607D01*
X20018D01*
Y88545D01*
Y88483D01*
Y88421D01*
Y88359D01*
X19956D01*
Y88298D01*
Y88236D01*
Y88174D01*
Y88112D01*
X19895D01*
Y88051D01*
Y87989D01*
Y87927D01*
Y87865D01*
X19833D01*
Y87803D01*
Y87742D01*
Y87680D01*
X19771D01*
Y87618D01*
Y87556D01*
Y87494D01*
X19709D01*
Y87433D01*
Y87371D01*
Y87309D01*
Y87247D01*
X19647D01*
Y87185D01*
Y87124D01*
Y87062D01*
X19586D01*
Y87000D01*
Y86938D01*
Y86876D01*
X19524D01*
Y86815D01*
Y86753D01*
Y86691D01*
Y86629D01*
X19462D01*
Y86567D01*
Y86506D01*
Y86444D01*
Y86382D01*
Y86320D01*
X19400D01*
Y86259D01*
Y86197D01*
Y86135D01*
X19339D01*
Y86073D01*
Y86011D01*
Y85949D01*
X19277D01*
Y85888D01*
Y85826D01*
Y85764D01*
Y85702D01*
X19215D01*
Y85641D01*
Y85579D01*
Y85517D01*
X19153D01*
Y85455D01*
Y85393D01*
Y85332D01*
Y85270D01*
X19091D01*
Y85208D01*
Y85146D01*
Y85084D01*
X19030D01*
Y85023D01*
Y84961D01*
Y84899D01*
X18968D01*
Y84837D01*
Y84776D01*
Y84714D01*
Y84652D01*
Y84590D01*
X18906D01*
Y84528D01*
Y84466D01*
Y84405D01*
X18844D01*
Y84343D01*
Y84281D01*
Y84219D01*
Y84158D01*
X18782D01*
Y84096D01*
Y84034D01*
Y83972D01*
X18721D01*
Y83910D01*
Y83849D01*
Y83787D01*
Y83725D01*
X18659D01*
Y83663D01*
Y83601D01*
Y83540D01*
X18597D01*
Y83478D01*
Y83416D01*
Y83354D01*
X18535D01*
Y83292D01*
Y83231D01*
Y83169D01*
Y83107D01*
X18473D01*
Y83045D01*
Y82983D01*
Y82922D01*
X18412D01*
Y82860D01*
Y82798D01*
Y82736D01*
Y82674D01*
Y82613D01*
X18350D01*
Y82551D01*
Y82489D01*
Y82427D01*
Y82366D01*
X18288D01*
Y82304D01*
Y82242D01*
Y82180D01*
X18226D01*
Y82118D01*
Y82057D01*
Y81995D01*
X18165D01*
Y81933D01*
Y81871D01*
Y81809D01*
X18103D01*
Y81748D01*
Y81686D01*
Y81624D01*
Y81562D01*
X18041D01*
Y81500D01*
Y81439D01*
Y81377D01*
X17979D01*
Y81315D01*
Y81253D01*
Y81191D01*
X17917D01*
Y81130D01*
Y81068D01*
Y81006D01*
Y80944D01*
X17855D01*
Y80883D01*
Y80821D01*
Y80759D01*
Y80697D01*
Y80635D01*
X17794D01*
Y80573D01*
Y80512D01*
Y80450D01*
X17732D01*
Y80388D01*
Y80326D01*
Y80265D01*
X17670D01*
Y80203D01*
Y80141D01*
Y80079D01*
Y80017D01*
X17608D01*
Y79956D01*
Y79894D01*
Y79832D01*
X17547D01*
Y79770D01*
Y79708D01*
Y79647D01*
Y79585D01*
X17485D01*
Y79523D01*
Y79461D01*
Y79400D01*
X17423D01*
Y79338D01*
Y79276D01*
Y79214D01*
Y79152D01*
X17361D01*
Y79090D01*
Y79029D01*
Y78967D01*
X15384D01*
Y79029D01*
Y79090D01*
Y79152D01*
X15322D01*
Y79214D01*
Y79276D01*
Y79338D01*
X15260D01*
Y79400D01*
Y79461D01*
Y79523D01*
Y79585D01*
X15198D01*
Y79647D01*
Y79708D01*
Y79770D01*
X15137D01*
Y79832D01*
Y79894D01*
Y79956D01*
Y80017D01*
X15075D01*
Y80079D01*
Y80141D01*
Y80203D01*
X15013D01*
Y80265D01*
Y80326D01*
Y80388D01*
X14951D01*
Y80450D01*
Y80512D01*
Y80573D01*
Y80635D01*
Y80697D01*
Y80759D01*
X14889D01*
Y80821D01*
Y80883D01*
Y80944D01*
X14828D01*
Y81006D01*
Y81068D01*
Y81130D01*
Y81191D01*
X14766D01*
Y81253D01*
Y81315D01*
Y81377D01*
X14704D01*
Y81439D01*
Y81500D01*
Y81562D01*
Y81624D01*
X14642D01*
Y81686D01*
Y81748D01*
Y81809D01*
X14581D01*
Y81871D01*
Y81933D01*
Y81995D01*
X14519D01*
Y82057D01*
Y82118D01*
Y82180D01*
Y82242D01*
X14457D01*
Y82304D01*
Y82366D01*
Y82427D01*
Y82489D01*
Y82551D01*
X14395D01*
Y82613D01*
Y82674D01*
Y82736D01*
Y82798D01*
X14333D01*
Y82860D01*
Y82922D01*
Y82983D01*
X14272D01*
Y83045D01*
Y83107D01*
Y83169D01*
Y83231D01*
X14210D01*
Y83292D01*
Y83354D01*
Y83416D01*
X14148D01*
Y83478D01*
Y83540D01*
Y83601D01*
Y83663D01*
X14086D01*
Y83725D01*
Y83787D01*
Y83849D01*
X14024D01*
Y83910D01*
Y83972D01*
Y84034D01*
X13962D01*
Y84096D01*
Y84158D01*
Y84219D01*
Y84281D01*
X13901D01*
Y84343D01*
Y84405D01*
Y84466D01*
Y84528D01*
Y84590D01*
X13839D01*
Y84652D01*
Y84714D01*
Y84776D01*
Y84837D01*
X13777D01*
Y84899D01*
Y84961D01*
Y85023D01*
X13715D01*
Y85084D01*
Y85146D01*
X13592D01*
Y85084D01*
Y85023D01*
Y84961D01*
X13530D01*
Y84899D01*
Y84837D01*
Y84776D01*
X13468D01*
Y84714D01*
Y84652D01*
Y84590D01*
Y84528D01*
X13406D01*
Y84466D01*
Y84405D01*
Y84343D01*
X13345D01*
Y84281D01*
Y84219D01*
Y84158D01*
Y84096D01*
X13283D01*
Y84034D01*
Y83972D01*
Y83910D01*
Y83849D01*
X13221D01*
Y83787D01*
Y83725D01*
Y83663D01*
X13159D01*
Y83601D01*
Y83540D01*
Y83478D01*
Y83416D01*
X13097D01*
Y83354D01*
X13159D01*
Y83292D01*
X13097D01*
Y83231D01*
Y83169D01*
Y83107D01*
X13036D01*
Y83045D01*
Y82983D01*
Y82922D01*
Y82860D01*
X12974D01*
Y82798D01*
Y82736D01*
Y82674D01*
X12912D01*
Y82613D01*
Y82551D01*
Y82489D01*
Y82427D01*
X12850D01*
Y82366D01*
Y82304D01*
Y82242D01*
Y82180D01*
X12788D01*
Y82118D01*
Y82057D01*
Y81995D01*
X12727D01*
Y81933D01*
Y81871D01*
Y81809D01*
Y81748D01*
X12665D01*
Y81686D01*
Y81624D01*
Y81562D01*
X12603D01*
Y81500D01*
Y81439D01*
Y81377D01*
Y81315D01*
X12541D01*
Y81253D01*
X12603D01*
Y81191D01*
X12541D01*
Y81130D01*
Y81068D01*
Y81006D01*
X12479D01*
Y80944D01*
Y80883D01*
Y80821D01*
Y80759D01*
X12418D01*
Y80697D01*
Y80635D01*
Y80573D01*
X12356D01*
Y80512D01*
Y80450D01*
Y80388D01*
Y80326D01*
X12294D01*
Y80265D01*
Y80203D01*
Y80141D01*
Y80079D01*
X12232D01*
Y80017D01*
Y79956D01*
Y79894D01*
X12171D01*
Y79832D01*
Y79770D01*
Y79708D01*
Y79647D01*
X12109D01*
Y79585D01*
Y79523D01*
Y79461D01*
X12047D01*
Y79400D01*
Y79338D01*
Y79276D01*
Y79214D01*
Y79152D01*
Y79090D01*
X11985D01*
Y79029D01*
Y78967D01*
X10070D01*
Y79029D01*
Y79090D01*
Y79152D01*
X10008D01*
Y79214D01*
Y79276D01*
Y79338D01*
Y79400D01*
X9946D01*
Y79461D01*
Y79523D01*
Y79585D01*
X9884D01*
Y79647D01*
Y79708D01*
Y79770D01*
X9822D01*
Y79832D01*
Y79894D01*
Y79956D01*
X9761D01*
Y80017D01*
Y80079D01*
Y80141D01*
Y80203D01*
X9699D01*
Y80265D01*
Y80326D01*
Y80388D01*
X9637D01*
Y80450D01*
Y80512D01*
Y80573D01*
Y80635D01*
Y80697D01*
X9575D01*
Y80759D01*
Y80821D01*
Y80883D01*
X9513D01*
Y80944D01*
Y81006D01*
Y81068D01*
X9452D01*
Y81130D01*
Y81191D01*
Y81253D01*
Y81315D01*
X9390D01*
Y81377D01*
Y81439D01*
X9328D01*
Y81500D01*
Y81562D01*
Y81624D01*
Y81686D01*
X9266D01*
Y81748D01*
Y81809D01*
Y81871D01*
X9205D01*
Y81933D01*
Y81995D01*
Y82057D01*
X9143D01*
Y82118D01*
Y82180D01*
Y82242D01*
X9081D01*
Y82304D01*
X9143D01*
Y82366D01*
X9081D01*
Y82427D01*
Y82489D01*
Y82551D01*
X9019D01*
Y82613D01*
Y82674D01*
Y82736D01*
Y82798D01*
X8957D01*
Y82860D01*
Y82922D01*
X8896D01*
Y82983D01*
Y83045D01*
Y83107D01*
Y83169D01*
X8834D01*
Y83231D01*
Y83292D01*
Y83354D01*
X8772D01*
Y83416D01*
Y83478D01*
Y83540D01*
X8710D01*
Y83601D01*
Y83663D01*
Y83725D01*
Y83787D01*
X8648D01*
Y83849D01*
Y83910D01*
Y83972D01*
Y84034D01*
X8586D01*
Y84096D01*
Y84158D01*
Y84219D01*
Y84281D01*
X8525D01*
Y84343D01*
Y84405D01*
Y84466D01*
X8463D01*
Y84528D01*
Y84590D01*
Y84652D01*
X8401D01*
Y84714D01*
Y84776D01*
Y84837D01*
X8339D01*
Y84899D01*
Y84961D01*
Y85023D01*
X8278D01*
Y85084D01*
Y85146D01*
Y85208D01*
Y85270D01*
X8216D01*
Y85332D01*
Y85393D01*
Y85455D01*
X8154D01*
Y85517D01*
Y85579D01*
Y85641D01*
X8092D01*
Y85702D01*
Y85764D01*
Y85826D01*
X8030D01*
Y85888D01*
X8092D01*
Y85949D01*
X8030D01*
Y86011D01*
Y86073D01*
Y86135D01*
X7969D01*
Y86197D01*
Y86259D01*
Y86320D01*
X7907D01*
Y86382D01*
Y86444D01*
Y86506D01*
Y86567D01*
X7845D01*
Y86629D01*
Y86691D01*
Y86753D01*
X7783D01*
Y86815D01*
Y86876D01*
Y86938D01*
X7721D01*
Y87000D01*
Y87062D01*
Y87124D01*
X7660D01*
Y87185D01*
Y87247D01*
Y87309D01*
X7598D01*
Y87371D01*
Y87433D01*
Y87494D01*
Y87556D01*
X7536D01*
Y87618D01*
Y87680D01*
Y87742D01*
X7474D01*
Y87803D01*
Y87865D01*
Y87927D01*
Y87989D01*
Y88051D01*
X7412D01*
Y88112D01*
Y88174D01*
Y88236D01*
X7351D01*
Y88298D01*
Y88359D01*
Y88421D01*
X7289D01*
Y88483D01*
Y88545D01*
Y88607D01*
X7227D01*
Y88668D01*
Y88730D01*
X9081D01*
Y88668D01*
Y88607D01*
Y88545D01*
Y88483D01*
X9143D01*
Y88421D01*
Y88359D01*
Y88298D01*
X9205D01*
Y88236D01*
Y88174D01*
Y88112D01*
X9266D01*
Y88051D01*
Y87989D01*
Y87927D01*
Y87865D01*
X9328D01*
Y87803D01*
Y87742D01*
Y87680D01*
X9390D01*
Y87618D01*
Y87556D01*
Y87494D01*
Y87433D01*
X9452D01*
Y87371D01*
Y87309D01*
Y87247D01*
Y87185D01*
X9513D01*
Y87124D01*
Y87062D01*
Y87000D01*
Y86938D01*
X9575D01*
Y86876D01*
Y86815D01*
Y86753D01*
X9637D01*
Y86691D01*
Y86629D01*
Y86567D01*
Y86506D01*
X9699D01*
Y86444D01*
Y86382D01*
Y86320D01*
X9761D01*
Y86259D01*
Y86197D01*
Y86135D01*
X9822D01*
Y86073D01*
Y86011D01*
Y85949D01*
Y85888D01*
X9884D01*
Y85826D01*
Y85764D01*
Y85702D01*
X9946D01*
Y85641D01*
Y85579D01*
Y85517D01*
Y85455D01*
Y85393D01*
X10008D01*
Y85332D01*
Y85270D01*
Y85208D01*
X10070D01*
Y85146D01*
Y85084D01*
Y85023D01*
Y84961D01*
X10131D01*
Y84899D01*
Y84837D01*
Y84776D01*
X10193D01*
Y84714D01*
Y84652D01*
Y84590D01*
Y84528D01*
X10255D01*
Y84466D01*
Y84405D01*
Y84343D01*
X10317D01*
Y84281D01*
Y84219D01*
Y84158D01*
X10379D01*
Y84096D01*
Y84034D01*
Y83972D01*
Y83910D01*
X10440D01*
Y83849D01*
Y83787D01*
Y83725D01*
X10502D01*
Y83663D01*
X10440D01*
Y83601D01*
X10502D01*
Y83540D01*
Y83478D01*
Y83416D01*
X10564D01*
Y83354D01*
Y83292D01*
Y83231D01*
Y83169D01*
X10626D01*
Y83107D01*
Y83045D01*
Y82983D01*
X10688D01*
Y82922D01*
Y82860D01*
Y82798D01*
X10749D01*
Y82736D01*
Y82674D01*
Y82613D01*
X10811D01*
Y82551D01*
Y82489D01*
Y82427D01*
Y82366D01*
X10873D01*
Y82304D01*
Y82242D01*
Y82180D01*
Y82118D01*
X10935D01*
Y82057D01*
Y81995D01*
Y81933D01*
X10996D01*
Y81871D01*
X10935D01*
Y81809D01*
X11058D01*
Y81871D01*
X11120D01*
Y81933D01*
Y81995D01*
X11182D01*
Y82057D01*
Y82118D01*
Y82180D01*
X11244D01*
Y82242D01*
Y82304D01*
Y82366D01*
Y82427D01*
Y82489D01*
Y82551D01*
X11305D01*
Y82613D01*
Y82674D01*
Y82736D01*
X11367D01*
Y82798D01*
Y82860D01*
Y82922D01*
Y82983D01*
X11429D01*
Y83045D01*
Y83107D01*
Y83169D01*
Y83231D01*
X11491D01*
Y83292D01*
Y83354D01*
Y83416D01*
X11553D01*
Y83478D01*
Y83540D01*
Y83601D01*
Y83663D01*
X11614D01*
Y83725D01*
Y83787D01*
Y83849D01*
Y83910D01*
X11676D01*
Y83972D01*
Y84034D01*
Y84096D01*
Y84158D01*
X11738D01*
Y84219D01*
Y84281D01*
Y84343D01*
Y84405D01*
Y84466D01*
X11800D01*
Y84528D01*
Y84590D01*
Y84652D01*
Y84714D01*
X11862D01*
Y84776D01*
Y84837D01*
Y84899D01*
X11923D01*
Y84961D01*
Y85023D01*
Y85084D01*
Y85146D01*
X11985D01*
Y85208D01*
Y85270D01*
Y85332D01*
Y85393D01*
X12047D01*
Y85455D01*
Y85517D01*
Y85579D01*
X12109D01*
Y85641D01*
Y85702D01*
Y85764D01*
Y85826D01*
X12171D01*
Y85888D01*
Y85949D01*
Y86011D01*
Y86073D01*
X12232D01*
Y86135D01*
Y86197D01*
Y86259D01*
Y86320D01*
Y86382D01*
X12294D01*
Y86444D01*
Y86506D01*
Y86567D01*
Y86629D01*
X12356D01*
Y86691D01*
Y86753D01*
Y86815D01*
Y86876D01*
X12418D01*
Y86938D01*
Y87000D01*
Y87062D01*
X12479D01*
Y87124D01*
Y87185D01*
Y87247D01*
Y87309D01*
X12541D01*
Y87371D01*
Y87433D01*
Y87494D01*
Y87556D01*
X12603D01*
Y87618D01*
Y87680D01*
Y87742D01*
X12665D01*
Y87803D01*
Y87865D01*
Y87927D01*
Y87989D01*
X12727D01*
Y88051D01*
Y88112D01*
Y88174D01*
Y88236D01*
X12788D01*
Y88298D01*
Y88359D01*
Y88421D01*
Y88483D01*
Y88545D01*
X12850D01*
Y88607D01*
Y88668D01*
Y88730D01*
X14395D01*
Y88668D01*
Y88607D01*
Y88545D01*
X14457D01*
Y88483D01*
Y88421D01*
Y88359D01*
X14519D01*
Y88298D01*
Y88236D01*
Y88174D01*
Y88112D01*
X14581D01*
Y88051D01*
Y87989D01*
Y87927D01*
X14642D01*
Y87865D01*
Y87803D01*
Y87742D01*
Y87680D01*
X14704D01*
Y87618D01*
Y87556D01*
Y87494D01*
X14766D01*
Y87433D01*
Y87371D01*
Y87309D01*
Y87247D01*
Y87185D01*
X14828D01*
Y87124D01*
Y87062D01*
Y87000D01*
Y86938D01*
X14889D01*
Y86876D01*
Y86815D01*
Y86753D01*
X14951D01*
Y86691D01*
Y86629D01*
Y86567D01*
Y86506D01*
X15013D01*
Y86444D01*
Y86382D01*
Y86320D01*
X15075D01*
Y86259D01*
Y86197D01*
Y86135D01*
X15137D01*
Y86073D01*
Y86011D01*
Y85949D01*
Y85888D01*
X15198D01*
Y85826D01*
Y85764D01*
Y85702D01*
Y85641D01*
Y85579D01*
X15260D01*
Y85517D01*
Y85455D01*
Y85393D01*
Y85332D01*
X15322D01*
Y85270D01*
Y85208D01*
Y85146D01*
X15384D01*
Y85084D01*
Y85023D01*
Y84961D01*
X15446D01*
Y84899D01*
Y84837D01*
Y84776D01*
Y84714D01*
X15507D01*
Y84652D01*
Y84590D01*
Y84528D01*
X15569D01*
Y84466D01*
Y84405D01*
Y84343D01*
Y84281D01*
X15631D01*
Y84219D01*
Y84158D01*
Y84096D01*
X15693D01*
Y84034D01*
Y83972D01*
Y83910D01*
Y83849D01*
X15755D01*
Y83787D01*
Y83725D01*
Y83663D01*
Y83601D01*
Y83540D01*
X15816D01*
Y83478D01*
Y83416D01*
Y83354D01*
X15878D01*
Y83292D01*
Y83231D01*
Y83169D01*
Y83107D01*
X15940D01*
Y83045D01*
Y82983D01*
Y82922D01*
X16002D01*
Y82860D01*
Y82798D01*
Y82736D01*
Y82674D01*
X16063D01*
Y82613D01*
Y82551D01*
Y82489D01*
X16125D01*
Y82427D01*
Y82366D01*
Y82304D01*
Y82242D01*
X16187D01*
Y82180D01*
Y82118D01*
Y82057D01*
X16249D01*
Y81995D01*
Y81933D01*
Y81871D01*
X16311D01*
Y81809D01*
X16373D01*
Y81871D01*
X16434D01*
Y81933D01*
Y81995D01*
Y82057D01*
Y82118D01*
X16496D01*
Y82180D01*
Y82242D01*
Y82304D01*
X16558D01*
Y82366D01*
X16496D01*
Y82427D01*
X16558D01*
Y82489D01*
Y82551D01*
Y82613D01*
X16620D01*
Y82674D01*
Y82736D01*
Y82798D01*
Y82860D01*
X16681D01*
Y82922D01*
Y82983D01*
Y83045D01*
Y83107D01*
X16743D01*
Y83169D01*
Y83231D01*
Y83292D01*
X16805D01*
Y83354D01*
Y83416D01*
Y83478D01*
Y83540D01*
X16867D01*
Y83601D01*
Y83663D01*
Y83725D01*
X16929D01*
Y83787D01*
Y83849D01*
Y83910D01*
Y83972D01*
X16990D01*
Y84034D01*
Y84096D01*
Y84158D01*
Y84219D01*
Y84281D01*
X17052D01*
Y84343D01*
Y84405D01*
X17114D01*
Y84466D01*
X17052D01*
Y84528D01*
X17114D01*
Y84590D01*
Y84652D01*
Y84714D01*
X17176D01*
Y84776D01*
Y84837D01*
Y84899D01*
Y84961D01*
X17238D01*
Y85023D01*
Y85084D01*
Y85146D01*
Y85208D01*
X17299D01*
Y85270D01*
Y85332D01*
Y85393D01*
X17361D01*
Y85455D01*
Y85517D01*
Y85579D01*
Y85641D01*
X17423D01*
Y85702D01*
Y85764D01*
Y85826D01*
X17485D01*
Y85888D01*
Y85949D01*
Y86011D01*
Y86073D01*
X17547D01*
Y86135D01*
Y86197D01*
Y86259D01*
Y86320D01*
Y86382D01*
X17608D01*
Y86444D01*
Y86506D01*
Y86567D01*
Y86629D01*
X17670D01*
Y86691D01*
Y86753D01*
Y86815D01*
Y86876D01*
X17732D01*
Y86938D01*
Y87000D01*
Y87062D01*
X17794D01*
Y87124D01*
Y87185D01*
Y87247D01*
Y87309D01*
X17855D01*
Y87371D01*
Y87433D01*
Y87494D01*
X17917D01*
Y87556D01*
Y87618D01*
Y87680D01*
Y87742D01*
X17979D01*
Y87803D01*
Y87865D01*
Y87927D01*
Y87989D01*
X18041D01*
Y88051D01*
Y88112D01*
Y88174D01*
X18103D01*
Y88236D01*
Y88298D01*
Y88359D01*
Y88421D01*
X18165D01*
Y88483D01*
Y88545D01*
Y88607D01*
Y88668D01*
Y88730D01*
X20080D01*
Y88668D01*
D02*
G37*
G36*
X61481Y88483D02*
Y88421D01*
Y88359D01*
Y88298D01*
Y88236D01*
Y88174D01*
Y88112D01*
Y88051D01*
Y87989D01*
Y87927D01*
Y87865D01*
Y87803D01*
Y87742D01*
Y87680D01*
Y87618D01*
Y87556D01*
Y87494D01*
Y87433D01*
Y87371D01*
Y87309D01*
Y87247D01*
Y87185D01*
Y87124D01*
Y87062D01*
Y87000D01*
Y86938D01*
Y86876D01*
Y86815D01*
Y86753D01*
Y86691D01*
Y86629D01*
Y86567D01*
Y86506D01*
Y86444D01*
Y86382D01*
Y86320D01*
Y86259D01*
Y86197D01*
Y86135D01*
Y86073D01*
Y86011D01*
Y85949D01*
Y85888D01*
Y85826D01*
Y85764D01*
Y85702D01*
Y85641D01*
Y85579D01*
Y85517D01*
Y85455D01*
Y85393D01*
Y85332D01*
Y85270D01*
Y85208D01*
Y85146D01*
Y85084D01*
Y85023D01*
Y84961D01*
Y84899D01*
Y84837D01*
Y84776D01*
Y84714D01*
Y84652D01*
Y84590D01*
Y84528D01*
Y84466D01*
Y84405D01*
Y84343D01*
Y84281D01*
Y84219D01*
Y84158D01*
Y84096D01*
Y84034D01*
Y83972D01*
Y83910D01*
Y83849D01*
Y83787D01*
Y83725D01*
Y83663D01*
Y83601D01*
Y83540D01*
Y83478D01*
Y83416D01*
Y83354D01*
Y83292D01*
Y83231D01*
Y83169D01*
Y83107D01*
Y83045D01*
Y82983D01*
Y82922D01*
Y82860D01*
Y82798D01*
Y82736D01*
Y82674D01*
Y82613D01*
Y82551D01*
Y82489D01*
Y82427D01*
Y82366D01*
Y82304D01*
Y82242D01*
Y82180D01*
Y82118D01*
Y82057D01*
Y81995D01*
Y81933D01*
Y81871D01*
Y81809D01*
Y81748D01*
Y81686D01*
Y81624D01*
Y81562D01*
Y81500D01*
Y81439D01*
Y81377D01*
Y81315D01*
Y81253D01*
Y81191D01*
Y81130D01*
Y81068D01*
Y81006D01*
Y80944D01*
Y80883D01*
Y80821D01*
Y80759D01*
Y80697D01*
Y80635D01*
Y80573D01*
Y80512D01*
Y80450D01*
Y80388D01*
Y80326D01*
Y80265D01*
Y80203D01*
Y80141D01*
Y80079D01*
Y80017D01*
Y79956D01*
Y79894D01*
Y79832D01*
Y79770D01*
Y79708D01*
Y79647D01*
Y79585D01*
Y79523D01*
Y79461D01*
Y79400D01*
Y79338D01*
Y79276D01*
Y79214D01*
Y79152D01*
Y79090D01*
Y79029D01*
Y78967D01*
X55055D01*
Y79029D01*
X54808D01*
Y79090D01*
X54622D01*
Y79152D01*
X54437D01*
Y79214D01*
X54375D01*
Y79276D01*
X54252D01*
Y79338D01*
X54190D01*
Y79400D01*
X54128D01*
Y79461D01*
X54066D01*
Y79523D01*
Y79585D01*
X54004D01*
Y79647D01*
X53943D01*
Y79708D01*
Y79770D01*
X53881D01*
Y79832D01*
Y79894D01*
Y79956D01*
X53819D01*
Y80017D01*
Y80079D01*
Y80141D01*
Y80203D01*
Y80265D01*
X53757D01*
Y80326D01*
Y80388D01*
Y80450D01*
Y80512D01*
Y80573D01*
Y80635D01*
Y80697D01*
Y80759D01*
Y80821D01*
Y80883D01*
Y80944D01*
Y81006D01*
Y81068D01*
Y81130D01*
Y81191D01*
Y81253D01*
Y81315D01*
Y81377D01*
Y81439D01*
Y81500D01*
Y81562D01*
Y81624D01*
Y81686D01*
Y81748D01*
Y81809D01*
Y81871D01*
Y81933D01*
Y81995D01*
Y82057D01*
Y82118D01*
Y82180D01*
Y82242D01*
Y82304D01*
Y82366D01*
Y82427D01*
Y82489D01*
Y82551D01*
Y82613D01*
Y82674D01*
Y82736D01*
Y82798D01*
Y82860D01*
Y82922D01*
Y82983D01*
Y83045D01*
Y83107D01*
Y83169D01*
Y83231D01*
Y83292D01*
Y83354D01*
Y83416D01*
Y83478D01*
Y83540D01*
Y83601D01*
Y83663D01*
Y83725D01*
Y83787D01*
Y83849D01*
Y83910D01*
Y83972D01*
Y84034D01*
Y84096D01*
Y84158D01*
Y84219D01*
Y84281D01*
Y84343D01*
Y84405D01*
Y84466D01*
Y84528D01*
Y84590D01*
Y84652D01*
Y84714D01*
Y84776D01*
Y84837D01*
Y84899D01*
Y84961D01*
Y85023D01*
Y85084D01*
Y85146D01*
Y85208D01*
Y85270D01*
Y85332D01*
Y85393D01*
Y85455D01*
Y85517D01*
Y85579D01*
Y85641D01*
Y85702D01*
Y85764D01*
Y85826D01*
Y85888D01*
Y85949D01*
Y86011D01*
Y86073D01*
Y86135D01*
Y86197D01*
Y86259D01*
Y86320D01*
Y86382D01*
Y86444D01*
Y86506D01*
Y86567D01*
Y86629D01*
Y86691D01*
Y86753D01*
Y86815D01*
Y86876D01*
Y86938D01*
Y87000D01*
Y87062D01*
Y87124D01*
Y87185D01*
X53819D01*
Y87247D01*
Y87309D01*
Y87371D01*
X53881D01*
Y87433D01*
Y87494D01*
Y87556D01*
X53943D01*
Y87618D01*
Y87680D01*
X54004D01*
Y87742D01*
X54066D01*
Y87803D01*
Y87865D01*
X54128D01*
Y87927D01*
X54190D01*
Y87989D01*
X54252D01*
Y88051D01*
X54313D01*
Y88112D01*
X54375D01*
Y88174D01*
X54499D01*
Y88236D01*
X54561D01*
Y88298D01*
X54684D01*
Y88359D01*
X54808D01*
Y88421D01*
X54931D01*
Y88483D01*
X55178D01*
Y88545D01*
X61481D01*
Y88483D01*
D02*
G37*
G36*
X51965Y88421D02*
Y88359D01*
Y88298D01*
Y88236D01*
Y88174D01*
Y88112D01*
Y88051D01*
Y87989D01*
Y87927D01*
Y87865D01*
Y87803D01*
Y87742D01*
Y87680D01*
Y87618D01*
Y87556D01*
Y87494D01*
Y87433D01*
Y87371D01*
Y87309D01*
Y87247D01*
Y87185D01*
Y87124D01*
Y87062D01*
Y87000D01*
Y86938D01*
Y86876D01*
Y86815D01*
Y86753D01*
Y86691D01*
Y86629D01*
Y86567D01*
Y86506D01*
Y86444D01*
Y86382D01*
Y86320D01*
Y86259D01*
Y86197D01*
Y86135D01*
Y86073D01*
Y86011D01*
Y85949D01*
Y85888D01*
Y85826D01*
Y85764D01*
Y85702D01*
Y85641D01*
Y85579D01*
Y85517D01*
Y85455D01*
Y85393D01*
Y85332D01*
Y85270D01*
Y85208D01*
Y85146D01*
Y85084D01*
Y85023D01*
Y84961D01*
Y84899D01*
Y84837D01*
Y84776D01*
Y84714D01*
Y84652D01*
Y84590D01*
Y84528D01*
Y84466D01*
Y84405D01*
Y84343D01*
Y84281D01*
Y84219D01*
Y84158D01*
Y84096D01*
Y84034D01*
Y83972D01*
Y83910D01*
Y83849D01*
Y83787D01*
Y83725D01*
Y83663D01*
Y83601D01*
Y83540D01*
Y83478D01*
Y83416D01*
Y83354D01*
Y83292D01*
Y83231D01*
Y83169D01*
Y83107D01*
Y83045D01*
Y82983D01*
Y82922D01*
Y82860D01*
Y82798D01*
Y82736D01*
Y82674D01*
Y82613D01*
Y82551D01*
Y82489D01*
Y82427D01*
Y82366D01*
Y82304D01*
Y82242D01*
Y82180D01*
Y82118D01*
Y82057D01*
Y81995D01*
Y81933D01*
Y81871D01*
Y81809D01*
Y81748D01*
Y81686D01*
Y81624D01*
Y81562D01*
Y81500D01*
Y81439D01*
Y81377D01*
Y81315D01*
Y81253D01*
Y81191D01*
Y81130D01*
Y81068D01*
Y81006D01*
Y80944D01*
Y80883D01*
Y80821D01*
Y80759D01*
Y80697D01*
Y80635D01*
Y80573D01*
Y80512D01*
Y80450D01*
Y80388D01*
Y80326D01*
Y80265D01*
Y80203D01*
Y80141D01*
Y80079D01*
Y80017D01*
Y79956D01*
Y79894D01*
Y79832D01*
Y79770D01*
Y79708D01*
Y79647D01*
Y79585D01*
Y79523D01*
Y79461D01*
Y79400D01*
Y79338D01*
Y79276D01*
Y79214D01*
Y79152D01*
Y79090D01*
Y79029D01*
Y78967D01*
X45786D01*
Y79029D01*
Y79090D01*
Y79152D01*
Y79214D01*
Y79276D01*
Y79338D01*
Y79400D01*
Y79461D01*
Y79523D01*
Y79585D01*
Y79647D01*
Y79708D01*
Y79770D01*
Y79832D01*
Y79894D01*
Y79956D01*
Y80017D01*
Y80079D01*
Y80141D01*
Y80203D01*
Y80265D01*
Y80326D01*
Y80388D01*
Y80450D01*
Y80512D01*
Y80573D01*
X50173D01*
Y80635D01*
Y80697D01*
Y80759D01*
Y80821D01*
Y80883D01*
Y80944D01*
Y81006D01*
Y81068D01*
Y81130D01*
Y81191D01*
Y81253D01*
Y81315D01*
Y81377D01*
Y81439D01*
Y81500D01*
Y81562D01*
Y81624D01*
Y81686D01*
Y81748D01*
Y81809D01*
Y81871D01*
Y81933D01*
Y81995D01*
Y82057D01*
Y82118D01*
Y82180D01*
Y82242D01*
Y82304D01*
Y82366D01*
Y82427D01*
Y82489D01*
Y82551D01*
Y82613D01*
Y82674D01*
Y82736D01*
Y82798D01*
Y82860D01*
Y82922D01*
Y82983D01*
Y83045D01*
Y83107D01*
Y83169D01*
Y83231D01*
Y83292D01*
Y83354D01*
Y83416D01*
Y83478D01*
Y83540D01*
Y83601D01*
Y83663D01*
Y83725D01*
Y83787D01*
Y83849D01*
Y83910D01*
Y83972D01*
Y84034D01*
Y84096D01*
Y84158D01*
Y84219D01*
Y84281D01*
Y84343D01*
Y84405D01*
Y84466D01*
Y84528D01*
Y84590D01*
Y84652D01*
Y84714D01*
Y84776D01*
Y84837D01*
Y84899D01*
Y84961D01*
Y85023D01*
Y85084D01*
Y85146D01*
Y85208D01*
Y85270D01*
Y85332D01*
Y85393D01*
Y85455D01*
Y85517D01*
Y85579D01*
Y85641D01*
Y85702D01*
Y85764D01*
Y85826D01*
Y85888D01*
Y85949D01*
Y86011D01*
Y86073D01*
Y86135D01*
Y86197D01*
Y86259D01*
Y86320D01*
Y86382D01*
Y86444D01*
Y86506D01*
Y86567D01*
Y86629D01*
Y86691D01*
Y86753D01*
Y86815D01*
Y86876D01*
Y86938D01*
Y87000D01*
Y87062D01*
Y87124D01*
Y87185D01*
Y87247D01*
Y87309D01*
Y87371D01*
Y87433D01*
Y87494D01*
Y87556D01*
Y87618D01*
Y87680D01*
Y87742D01*
Y87803D01*
Y87865D01*
Y87927D01*
Y87989D01*
Y88051D01*
Y88112D01*
Y88174D01*
Y88236D01*
Y88298D01*
Y88359D01*
Y88421D01*
Y88483D01*
X51965D01*
Y88421D01*
D02*
G37*
G36*
X37938Y102819D02*
X38185D01*
Y102757D01*
X38371D01*
Y102695D01*
X38494D01*
Y102634D01*
X38618D01*
Y102572D01*
X38680D01*
Y102510D01*
X38803D01*
Y102448D01*
X38865D01*
Y102386D01*
X38989D01*
Y102325D01*
X39050D01*
Y102263D01*
X39112D01*
Y102201D01*
X39174D01*
Y102139D01*
X39236D01*
Y102077D01*
Y102016D01*
X39298D01*
Y101954D01*
X39359D01*
Y101892D01*
X39421D01*
Y101830D01*
Y101769D01*
X39483D01*
Y101707D01*
X39545D01*
Y101645D01*
Y101583D01*
X39607D01*
Y101521D01*
X39545D01*
Y101460D01*
X39607D01*
Y101398D01*
Y101336D01*
Y101274D01*
X39668D01*
Y101212D01*
Y101151D01*
Y101089D01*
Y101027D01*
X39730D01*
Y100965D01*
Y100903D01*
Y100842D01*
Y100780D01*
Y100718D01*
Y100656D01*
X39668D01*
Y100594D01*
Y100533D01*
Y100471D01*
Y100409D01*
Y100347D01*
X39607D01*
Y100285D01*
Y100224D01*
Y100162D01*
Y100100D01*
X39545D01*
Y100038D01*
Y99976D01*
Y99915D01*
X39483D01*
Y99853D01*
X39421D01*
Y99791D01*
Y99729D01*
X39359D01*
Y99668D01*
Y99606D01*
X39236D01*
Y99544D01*
Y99482D01*
X39174D01*
Y99420D01*
X39112D01*
Y99359D01*
X39050D01*
Y99297D01*
X38989D01*
Y99235D01*
X38865D01*
Y99173D01*
X38803D01*
Y99111D01*
X38741D01*
Y99050D01*
X38618D01*
Y98988D01*
X38494D01*
Y98926D01*
X38432D01*
Y98864D01*
Y98803D01*
Y98741D01*
X38494D01*
Y98679D01*
X38556D01*
Y98617D01*
Y98555D01*
X38618D01*
Y98493D01*
X38680D01*
Y98432D01*
Y98370D01*
X38741D01*
Y98308D01*
Y98246D01*
X38803D01*
Y98185D01*
Y98123D01*
X38865D01*
Y98061D01*
X38927D01*
Y97999D01*
Y97937D01*
Y97876D01*
X38989D01*
Y97814D01*
Y97752D01*
X39050D01*
Y97690D01*
Y97628D01*
X39112D01*
Y97567D01*
Y97505D01*
Y97443D01*
X39174D01*
Y97381D01*
Y97319D01*
Y97258D01*
X39236D01*
Y97196D01*
Y97134D01*
X39298D01*
Y97072D01*
Y97010D01*
Y96949D01*
X39359D01*
Y96887D01*
Y96825D01*
Y96763D01*
X39421D01*
Y96702D01*
Y96640D01*
Y96578D01*
X39483D01*
Y96516D01*
Y96454D01*
Y96393D01*
X39545D01*
Y96331D01*
Y96269D01*
Y96207D01*
X39607D01*
Y96145D01*
Y96084D01*
Y96022D01*
Y95960D01*
X39668D01*
Y95898D01*
Y95836D01*
Y95775D01*
X39730D01*
Y95713D01*
Y95651D01*
Y95589D01*
X39792D01*
Y95527D01*
Y95466D01*
Y95404D01*
X39854D01*
Y95342D01*
Y95280D01*
X39916D01*
Y95218D01*
Y95157D01*
Y95095D01*
X39977D01*
Y95033D01*
Y94971D01*
Y94910D01*
X40039D01*
Y94848D01*
Y94786D01*
Y94724D01*
X40101D01*
Y94662D01*
Y94600D01*
Y94539D01*
Y94477D01*
X40163D01*
Y94415D01*
Y94353D01*
Y94292D01*
X40224D01*
Y94230D01*
Y94168D01*
Y94106D01*
X40286D01*
Y94044D01*
Y93983D01*
Y93921D01*
X40348D01*
Y93859D01*
Y93797D01*
X40410D01*
Y93735D01*
Y93674D01*
Y93612D01*
X40472D01*
Y93550D01*
Y93488D01*
Y93427D01*
X40534D01*
Y93365D01*
Y93303D01*
Y93241D01*
X40595D01*
Y93179D01*
Y93117D01*
Y93056D01*
X40657D01*
Y92994D01*
Y92932D01*
Y92870D01*
Y92809D01*
X40719D01*
Y92747D01*
Y92685D01*
Y92623D01*
X40781D01*
Y92561D01*
Y92500D01*
Y92438D01*
X40843D01*
Y92376D01*
Y92314D01*
Y92252D01*
X40904D01*
Y92191D01*
Y92129D01*
X40966D01*
Y92067D01*
Y92005D01*
Y91943D01*
X41028D01*
Y91882D01*
Y91820D01*
Y91758D01*
X41090D01*
Y91696D01*
Y91635D01*
Y91573D01*
X41151D01*
Y91511D01*
Y91449D01*
Y91387D01*
Y91325D01*
X41213D01*
Y91264D01*
Y91202D01*
Y91140D01*
X41275D01*
Y91078D01*
Y91017D01*
Y90955D01*
X41337D01*
Y90893D01*
Y90831D01*
Y90769D01*
X41399D01*
Y90708D01*
Y90646D01*
Y90584D01*
X41460D01*
Y90522D01*
Y90460D01*
X41522D01*
Y90399D01*
Y90337D01*
Y90275D01*
X41584D01*
Y90213D01*
Y90151D01*
Y90090D01*
X41646D01*
Y90028D01*
Y89966D01*
Y89904D01*
X41708D01*
Y89842D01*
Y89781D01*
Y89719D01*
Y89657D01*
X41769D01*
Y89595D01*
Y89534D01*
Y89472D01*
X41831D01*
Y89410D01*
Y89348D01*
Y89286D01*
X41893D01*
Y89224D01*
Y89163D01*
Y89101D01*
X41955D01*
Y89039D01*
Y88977D01*
X42017D01*
Y88916D01*
Y88854D01*
Y88792D01*
X42078D01*
Y88730D01*
Y88668D01*
Y88607D01*
X42140D01*
Y88545D01*
Y88483D01*
Y88421D01*
X42202D01*
Y88359D01*
Y88298D01*
Y88236D01*
Y88174D01*
X42264D01*
Y88112D01*
Y88051D01*
Y87989D01*
X42325D01*
Y87927D01*
Y87865D01*
Y87803D01*
X42387D01*
Y87742D01*
Y87680D01*
X42449D01*
Y87618D01*
Y87556D01*
Y87494D01*
Y87433D01*
X42511D01*
Y87371D01*
Y87309D01*
Y87247D01*
X42573D01*
Y87185D01*
Y87124D01*
Y87062D01*
X42634D01*
Y87000D01*
Y86938D01*
Y86876D01*
X42696D01*
Y86815D01*
Y86753D01*
Y86691D01*
Y86629D01*
X42758D01*
Y86567D01*
Y86506D01*
Y86444D01*
X42820D01*
Y86382D01*
Y86320D01*
X42882D01*
Y86259D01*
Y86197D01*
Y86135D01*
X42943D01*
Y86073D01*
Y86011D01*
Y85949D01*
X43005D01*
Y85888D01*
Y85826D01*
Y85764D01*
X43067D01*
Y85702D01*
Y85641D01*
Y85579D01*
X43129D01*
Y85517D01*
Y85455D01*
Y85393D01*
X43191D01*
Y85332D01*
Y85270D01*
Y85208D01*
X43252D01*
Y85146D01*
Y85084D01*
X43314D01*
Y85023D01*
Y84961D01*
Y84899D01*
X43376D01*
Y84837D01*
Y84776D01*
Y84714D01*
X43438D01*
Y84652D01*
Y84590D01*
Y84528D01*
X43500D01*
Y84466D01*
Y84405D01*
Y84343D01*
X43561D01*
Y84281D01*
Y84219D01*
Y84158D01*
X43623D01*
Y84096D01*
Y84034D01*
Y83972D01*
X43685D01*
Y83910D01*
Y83849D01*
Y83787D01*
X43747D01*
Y83725D01*
Y83663D01*
Y83601D01*
X43808D01*
Y83540D01*
X43747D01*
Y83478D01*
X43808D01*
Y83416D01*
Y83354D01*
Y83292D01*
X43870D01*
Y83231D01*
Y83169D01*
X43932D01*
Y83107D01*
Y83045D01*
Y82983D01*
X43994D01*
Y82922D01*
Y82860D01*
Y82798D01*
X44056D01*
Y82736D01*
Y82674D01*
Y82613D01*
X44118D01*
Y82551D01*
Y82489D01*
X44179D01*
Y82427D01*
Y82366D01*
Y82304D01*
X44241D01*
Y82242D01*
Y82180D01*
Y82118D01*
Y82057D01*
X44303D01*
Y81995D01*
Y81933D01*
Y81871D01*
Y81809D01*
X44365D01*
Y81748D01*
Y81686D01*
Y81624D01*
X44427D01*
Y81562D01*
Y81500D01*
X44488D01*
Y81439D01*
Y81377D01*
Y81315D01*
X44550D01*
Y81253D01*
Y81191D01*
Y81130D01*
X44612D01*
Y81068D01*
Y81006D01*
Y80944D01*
X44674D01*
Y80883D01*
Y80821D01*
X44735D01*
Y80759D01*
Y80697D01*
Y80635D01*
X44797D01*
Y80573D01*
Y80512D01*
Y80450D01*
X44859D01*
Y80388D01*
X44797D01*
Y80326D01*
X44859D01*
Y80265D01*
Y80203D01*
Y80141D01*
X44921D01*
Y80079D01*
Y80017D01*
X44983D01*
Y79956D01*
Y79894D01*
Y79832D01*
X45044D01*
Y79770D01*
Y79708D01*
Y79647D01*
X45106D01*
Y79585D01*
Y79523D01*
Y79461D01*
X45168D01*
Y79400D01*
Y79338D01*
X45230D01*
Y79276D01*
Y79214D01*
Y79152D01*
X45292D01*
Y79090D01*
Y79029D01*
Y78967D01*
X44365D01*
Y79029D01*
Y79090D01*
X44303D01*
Y79152D01*
Y79214D01*
Y79276D01*
X44241D01*
Y79338D01*
Y79400D01*
Y79461D01*
Y79523D01*
X44179D01*
Y79585D01*
Y79647D01*
Y79708D01*
X44118D01*
Y79770D01*
Y79832D01*
X44056D01*
Y79894D01*
Y79956D01*
Y80017D01*
X43994D01*
Y80079D01*
Y80141D01*
Y80203D01*
Y80265D01*
Y80326D01*
X43932D01*
Y80388D01*
Y80450D01*
Y80512D01*
X43870D01*
Y80573D01*
Y80635D01*
Y80697D01*
X43808D01*
Y80759D01*
Y80821D01*
X43747D01*
Y80883D01*
Y80944D01*
Y81006D01*
X43685D01*
Y81068D01*
Y81130D01*
Y81191D01*
X43623D01*
Y81253D01*
Y81315D01*
Y81377D01*
X43561D01*
Y81439D01*
Y81500D01*
Y81562D01*
X43500D01*
Y81624D01*
Y81686D01*
Y81748D01*
Y81809D01*
X43438D01*
Y81871D01*
Y81933D01*
Y81995D01*
X43376D01*
Y82057D01*
Y82118D01*
Y82180D01*
X43314D01*
Y82242D01*
Y82304D01*
Y82366D01*
X43252D01*
Y82427D01*
Y82489D01*
X43191D01*
Y82551D01*
Y82613D01*
Y82674D01*
X43129D01*
Y82736D01*
Y82798D01*
Y82860D01*
X43067D01*
Y82922D01*
Y82983D01*
Y83045D01*
X43005D01*
Y83107D01*
Y83169D01*
X42943D01*
Y83231D01*
X43005D01*
Y83292D01*
X42943D01*
Y83354D01*
Y83416D01*
Y83478D01*
X42882D01*
Y83540D01*
Y83601D01*
Y83663D01*
X42820D01*
Y83725D01*
Y83787D01*
Y83849D01*
X42758D01*
Y83910D01*
Y83972D01*
X42696D01*
Y84034D01*
Y84096D01*
Y84158D01*
X42634D01*
Y84219D01*
Y84281D01*
Y84343D01*
X42573D01*
Y84405D01*
Y84466D01*
Y84528D01*
X42511D01*
Y84590D01*
Y84652D01*
Y84714D01*
X42449D01*
Y84776D01*
Y84837D01*
Y84899D01*
X42387D01*
Y84961D01*
Y85023D01*
Y85084D01*
Y85146D01*
X42325D01*
Y85208D01*
Y85270D01*
Y85332D01*
X42264D01*
Y85393D01*
Y85455D01*
Y85517D01*
X42202D01*
Y85579D01*
Y85641D01*
X42140D01*
Y85702D01*
Y85764D01*
Y85826D01*
X42078D01*
Y85888D01*
Y85949D01*
Y86011D01*
X42017D01*
Y86073D01*
Y86135D01*
Y86197D01*
X41955D01*
Y86259D01*
Y86320D01*
Y86382D01*
X41893D01*
Y86444D01*
Y86506D01*
Y86567D01*
Y86629D01*
X41831D01*
Y86691D01*
Y86753D01*
Y86815D01*
X41769D01*
Y86876D01*
Y86938D01*
Y87000D01*
X41708D01*
Y87062D01*
Y87124D01*
Y87185D01*
X41646D01*
Y87247D01*
Y87309D01*
Y87371D01*
X41584D01*
Y87433D01*
Y87494D01*
Y87556D01*
X41522D01*
Y87618D01*
Y87680D01*
Y87742D01*
X41460D01*
Y87803D01*
Y87865D01*
X41399D01*
Y87927D01*
Y87989D01*
Y88051D01*
X41337D01*
Y88112D01*
Y88174D01*
Y88236D01*
Y88298D01*
X41275D01*
Y88359D01*
Y88421D01*
X41213D01*
Y88483D01*
X41151D01*
Y88545D01*
Y88607D01*
X41090D01*
Y88668D01*
X41028D01*
Y88730D01*
X40904D01*
Y88792D01*
X40781D01*
Y88854D01*
X40719D01*
Y88916D01*
X40657D01*
Y88977D01*
X40595D01*
Y89039D01*
X40534D01*
Y89101D01*
X40410D01*
Y89163D01*
X40348D01*
Y89224D01*
X40286D01*
Y89286D01*
X40224D01*
Y89348D01*
X40101D01*
Y89410D01*
X40039D01*
Y89472D01*
X39977D01*
Y89534D01*
X39916D01*
Y89595D01*
X39792D01*
Y89657D01*
X39730D01*
Y89719D01*
X39668D01*
Y89781D01*
X39545D01*
Y89842D01*
X39483D01*
Y89904D01*
X39421D01*
Y89966D01*
X39298D01*
Y90028D01*
X39236D01*
Y90090D01*
X39174D01*
Y90151D01*
X39050D01*
Y90213D01*
X38989D01*
Y90275D01*
X38927D01*
Y90337D01*
X38803D01*
Y90399D01*
X38741D01*
Y90460D01*
X38680D01*
Y90522D01*
X38556D01*
Y90584D01*
X38494D01*
Y90646D01*
X38432D01*
Y90708D01*
X38309D01*
Y90769D01*
X38247D01*
Y90831D01*
X38185D01*
Y90893D01*
X38124D01*
Y90955D01*
X38000D01*
Y91017D01*
X37938D01*
Y91078D01*
X37876D01*
Y91140D01*
X37815D01*
Y91202D01*
X37691D01*
Y91264D01*
X37629D01*
Y91325D01*
X37567D01*
Y91387D01*
X37258D01*
Y91325D01*
X37197D01*
Y91264D01*
X37135D01*
Y91202D01*
X37073D01*
Y91140D01*
X36950D01*
Y91078D01*
X36888D01*
Y91017D01*
X36826D01*
Y90955D01*
X36764D01*
Y90893D01*
X36641D01*
Y90831D01*
X36579D01*
Y90769D01*
X36517D01*
Y90708D01*
X36393D01*
Y90646D01*
X36332D01*
Y90584D01*
X36270D01*
Y90522D01*
X36208D01*
Y90460D01*
X36084D01*
Y90399D01*
X36023D01*
Y90337D01*
X35961D01*
Y90275D01*
X35899D01*
Y90213D01*
X35837D01*
Y90151D01*
X35776D01*
Y90090D01*
X35652D01*
Y90028D01*
X35590D01*
Y89966D01*
X35528D01*
Y89904D01*
X35405D01*
Y89842D01*
X35343D01*
Y89781D01*
X35281D01*
Y89719D01*
X35219D01*
Y89657D01*
X35096D01*
Y89595D01*
X35034D01*
Y89534D01*
X34972D01*
Y89472D01*
X34910D01*
Y89410D01*
X34787D01*
Y89348D01*
X34725D01*
Y89286D01*
X34663D01*
Y89224D01*
X34601D01*
Y89163D01*
X34478D01*
Y89101D01*
X34416D01*
Y89039D01*
X34354D01*
Y88977D01*
X34292D01*
Y88916D01*
X34169D01*
Y88854D01*
X34107D01*
Y88792D01*
X34045D01*
Y88730D01*
X33922D01*
Y88668D01*
X33860D01*
Y88607D01*
X33798D01*
Y88545D01*
X33674D01*
Y88483D01*
X33613D01*
Y88421D01*
X33551D01*
Y88359D01*
Y88298D01*
X33489D01*
Y88236D01*
X33427D01*
Y88174D01*
Y88112D01*
X33365D01*
Y88051D01*
Y87989D01*
Y87927D01*
X33304D01*
Y87865D01*
Y87803D01*
Y87742D01*
X33242D01*
Y87680D01*
Y87618D01*
Y87556D01*
Y87494D01*
X33180D01*
Y87433D01*
Y87371D01*
Y87309D01*
X33118D01*
Y87247D01*
Y87185D01*
Y87124D01*
X33057D01*
Y87062D01*
Y87000D01*
Y86938D01*
X32995D01*
Y86876D01*
Y86815D01*
Y86753D01*
X32933D01*
Y86691D01*
Y86629D01*
X32871D01*
Y86567D01*
Y86506D01*
Y86444D01*
X32809D01*
Y86382D01*
Y86320D01*
Y86259D01*
Y86197D01*
X32748D01*
Y86135D01*
Y86073D01*
Y86011D01*
X32686D01*
Y85949D01*
Y85888D01*
Y85826D01*
Y85764D01*
X32624D01*
Y85702D01*
Y85641D01*
Y85579D01*
X32562D01*
Y85517D01*
Y85455D01*
X32500D01*
Y85393D01*
Y85332D01*
Y85270D01*
X32439D01*
Y85208D01*
Y85146D01*
Y85084D01*
X32377D01*
Y85023D01*
Y84961D01*
Y84899D01*
X32315D01*
Y84837D01*
Y84776D01*
Y84714D01*
X32253D01*
Y84652D01*
Y84590D01*
Y84528D01*
X32192D01*
Y84466D01*
Y84405D01*
X32130D01*
Y84343D01*
X32192D01*
Y84281D01*
X32130D01*
Y84219D01*
Y84158D01*
Y84096D01*
X32068D01*
Y84034D01*
Y83972D01*
X32006D01*
Y83910D01*
Y83849D01*
Y83787D01*
X31944D01*
Y83725D01*
Y83663D01*
Y83601D01*
X31883D01*
Y83540D01*
Y83478D01*
Y83416D01*
X31821D01*
Y83354D01*
Y83292D01*
Y83231D01*
X31759D01*
Y83169D01*
Y83107D01*
Y83045D01*
X31697D01*
Y82983D01*
Y82922D01*
Y82860D01*
X31635D01*
Y82798D01*
Y82736D01*
Y82674D01*
Y82613D01*
X31574D01*
Y82551D01*
Y82489D01*
Y82427D01*
X31512D01*
Y82366D01*
Y82304D01*
X31450D01*
Y82242D01*
Y82180D01*
Y82118D01*
X31388D01*
Y82057D01*
Y81995D01*
Y81933D01*
X31326D01*
Y81871D01*
Y81809D01*
Y81748D01*
X31265D01*
Y81686D01*
Y81624D01*
Y81562D01*
X31203D01*
Y81500D01*
Y81439D01*
Y81377D01*
X31141D01*
Y81315D01*
Y81253D01*
Y81191D01*
Y81130D01*
X31079D01*
Y81068D01*
Y81006D01*
Y80944D01*
X31017D01*
Y80883D01*
Y80821D01*
X30956D01*
Y80759D01*
Y80697D01*
Y80635D01*
X30894D01*
Y80573D01*
Y80512D01*
Y80450D01*
Y80388D01*
X30832D01*
Y80326D01*
Y80265D01*
X30770D01*
Y80203D01*
Y80141D01*
Y80079D01*
X30708D01*
Y80017D01*
Y79956D01*
Y79894D01*
X30647D01*
Y79832D01*
Y79770D01*
Y79708D01*
X30585D01*
Y79647D01*
Y79585D01*
Y79523D01*
Y79461D01*
Y79400D01*
X30523D01*
Y79338D01*
Y79276D01*
Y79214D01*
X30461D01*
Y79152D01*
Y79090D01*
X30400D01*
Y79029D01*
Y78967D01*
X29596D01*
Y79029D01*
X29473D01*
Y79090D01*
X29534D01*
Y79152D01*
Y79214D01*
X29596D01*
Y79276D01*
Y79338D01*
Y79400D01*
X29658D01*
Y79461D01*
Y79523D01*
Y79585D01*
X29720D01*
Y79647D01*
Y79708D01*
Y79770D01*
Y79832D01*
X29781D01*
Y79894D01*
Y79956D01*
Y80017D01*
X29843D01*
Y80079D01*
Y80141D01*
Y80203D01*
X29905D01*
Y80265D01*
Y80326D01*
Y80388D01*
X29967D01*
Y80450D01*
Y80512D01*
Y80573D01*
X30029D01*
Y80635D01*
Y80697D01*
Y80759D01*
X30090D01*
Y80821D01*
Y80883D01*
Y80944D01*
X30152D01*
Y81006D01*
Y81068D01*
X30214D01*
Y81130D01*
Y81191D01*
Y81253D01*
X30276D01*
Y81315D01*
Y81377D01*
Y81439D01*
Y81500D01*
X30338D01*
Y81562D01*
Y81624D01*
Y81686D01*
X30400D01*
Y81748D01*
Y81809D01*
Y81871D01*
X30461D01*
Y81933D01*
Y81995D01*
Y82057D01*
X30523D01*
Y82118D01*
Y82180D01*
Y82242D01*
X30585D01*
Y82304D01*
Y82366D01*
Y82427D01*
X30647D01*
Y82489D01*
Y82551D01*
Y82613D01*
X30708D01*
Y82674D01*
Y82736D01*
Y82798D01*
X30770D01*
Y82860D01*
Y82922D01*
Y82983D01*
X30832D01*
Y83045D01*
Y83107D01*
Y83169D01*
X30894D01*
Y83231D01*
Y83292D01*
Y83354D01*
X30956D01*
Y83416D01*
Y83478D01*
Y83540D01*
X31017D01*
Y83601D01*
Y83663D01*
Y83725D01*
X31079D01*
Y83787D01*
Y83849D01*
Y83910D01*
X31141D01*
Y83972D01*
Y84034D01*
Y84096D01*
X31203D01*
Y84158D01*
Y84219D01*
Y84281D01*
X31265D01*
Y84343D01*
Y84405D01*
X31326D01*
Y84466D01*
Y84528D01*
Y84590D01*
Y84652D01*
Y84714D01*
X31388D01*
Y84776D01*
Y84837D01*
X31450D01*
Y84899D01*
Y84961D01*
Y85023D01*
X31512D01*
Y85084D01*
Y85146D01*
Y85208D01*
X31574D01*
Y85270D01*
Y85332D01*
Y85393D01*
X31635D01*
Y85455D01*
Y85517D01*
Y85579D01*
X31697D01*
Y85641D01*
Y85702D01*
Y85764D01*
X31759D01*
Y85826D01*
Y85888D01*
X31821D01*
Y85949D01*
Y86011D01*
Y86073D01*
X31883D01*
Y86135D01*
Y86197D01*
Y86259D01*
Y86320D01*
X31944D01*
Y86382D01*
Y86444D01*
Y86506D01*
X32006D01*
Y86567D01*
Y86629D01*
Y86691D01*
X32068D01*
Y86753D01*
Y86815D01*
Y86876D01*
X32130D01*
Y86938D01*
Y87000D01*
Y87062D01*
X32192D01*
Y87124D01*
Y87185D01*
Y87247D01*
X32253D01*
Y87309D01*
Y87371D01*
Y87433D01*
X32315D01*
Y87494D01*
Y87556D01*
X32377D01*
Y87618D01*
Y87680D01*
Y87742D01*
Y87803D01*
Y87865D01*
X32439D01*
Y87927D01*
Y87989D01*
X32500D01*
Y88051D01*
Y88112D01*
Y88174D01*
X32562D01*
Y88236D01*
Y88298D01*
Y88359D01*
X32624D01*
Y88421D01*
Y88483D01*
Y88545D01*
X32686D01*
Y88607D01*
Y88668D01*
Y88730D01*
X32748D01*
Y88792D01*
Y88854D01*
Y88916D01*
X32809D01*
Y88977D01*
Y89039D01*
X32871D01*
Y89101D01*
Y89163D01*
Y89224D01*
X32933D01*
Y89286D01*
Y89348D01*
Y89410D01*
Y89472D01*
Y89534D01*
X32995D01*
Y89595D01*
Y89657D01*
X33057D01*
Y89719D01*
Y89781D01*
Y89842D01*
X33118D01*
Y89904D01*
Y89966D01*
Y90028D01*
X33180D01*
Y90090D01*
Y90151D01*
Y90213D01*
X33242D01*
Y90275D01*
Y90337D01*
Y90399D01*
X33304D01*
Y90460D01*
Y90522D01*
Y90584D01*
X33365D01*
Y90646D01*
Y90708D01*
X33427D01*
Y90769D01*
Y90831D01*
Y90893D01*
Y90955D01*
Y91017D01*
X33489D01*
Y91078D01*
Y91140D01*
X33551D01*
Y91202D01*
Y91264D01*
Y91325D01*
X33613D01*
Y91387D01*
Y91449D01*
Y91511D01*
X33674D01*
Y91573D01*
Y91635D01*
Y91696D01*
X33736D01*
Y91758D01*
Y91820D01*
Y91882D01*
X33798D01*
Y91943D01*
Y92005D01*
Y92067D01*
X33860D01*
Y92129D01*
Y92191D01*
Y92252D01*
X33922D01*
Y92314D01*
Y92376D01*
X33983D01*
Y92438D01*
Y92500D01*
Y92561D01*
Y92623D01*
Y92685D01*
X34045D01*
Y92747D01*
Y92809D01*
X34107D01*
Y92870D01*
Y92932D01*
Y92994D01*
X34169D01*
Y93056D01*
Y93117D01*
Y93179D01*
X34231D01*
Y93241D01*
Y93303D01*
Y93365D01*
Y93427D01*
X34292D01*
Y93488D01*
Y93550D01*
X34354D01*
Y93612D01*
Y93674D01*
Y93735D01*
X34416D01*
Y93797D01*
Y93859D01*
Y93921D01*
X34478D01*
Y93983D01*
Y94044D01*
Y94106D01*
Y94168D01*
X34540D01*
Y94230D01*
Y94292D01*
Y94353D01*
X34601D01*
Y94415D01*
Y94477D01*
Y94539D01*
X34663D01*
Y94600D01*
Y94662D01*
Y94724D01*
X34725D01*
Y94786D01*
Y94848D01*
X34787D01*
Y94910D01*
Y94971D01*
Y95033D01*
X34849D01*
Y95095D01*
Y95157D01*
Y95218D01*
X34910D01*
Y95280D01*
Y95342D01*
Y95404D01*
X34972D01*
Y95466D01*
Y95527D01*
Y95589D01*
X35034D01*
Y95651D01*
Y95713D01*
Y95775D01*
Y95836D01*
X35096D01*
Y95898D01*
Y95960D01*
Y96022D01*
X35157D01*
Y96084D01*
Y96145D01*
Y96207D01*
X35219D01*
Y96269D01*
Y96331D01*
Y96393D01*
X35281D01*
Y96454D01*
Y96516D01*
X35343D01*
Y96578D01*
Y96640D01*
Y96702D01*
Y96763D01*
X35405D01*
Y96825D01*
Y96887D01*
Y96949D01*
X35467D01*
Y97010D01*
Y97072D01*
X35528D01*
Y97134D01*
Y97196D01*
Y97258D01*
X35590D01*
Y97319D01*
Y97381D01*
Y97443D01*
X35652D01*
Y97505D01*
Y97567D01*
X35714D01*
Y97628D01*
Y97690D01*
X35776D01*
Y97752D01*
Y97814D01*
Y97876D01*
X35837D01*
Y97937D01*
Y97999D01*
X35899D01*
Y98061D01*
Y98123D01*
X35961D01*
Y98185D01*
Y98246D01*
X36023D01*
Y98308D01*
Y98370D01*
X36084D01*
Y98432D01*
Y98493D01*
X36146D01*
Y98555D01*
X36208D01*
Y98617D01*
Y98679D01*
X36270D01*
Y98741D01*
X36332D01*
Y98803D01*
Y98864D01*
Y98926D01*
X36208D01*
Y98988D01*
X36084D01*
Y99050D01*
X35961D01*
Y99111D01*
X35899D01*
Y99173D01*
X35776D01*
Y99235D01*
X35714D01*
Y99297D01*
X35652D01*
Y99359D01*
X35590D01*
Y99420D01*
X35528D01*
Y99482D01*
X35467D01*
Y99544D01*
X35405D01*
Y99606D01*
X35343D01*
Y99668D01*
X35281D01*
Y99729D01*
Y99791D01*
X35219D01*
Y99853D01*
X35157D01*
Y99915D01*
Y99976D01*
X35096D01*
Y100038D01*
Y100100D01*
Y100162D01*
X35034D01*
Y100224D01*
Y100285D01*
Y100347D01*
Y100409D01*
X34972D01*
Y100471D01*
Y100533D01*
Y100594D01*
Y100656D01*
Y100718D01*
Y100780D01*
Y100842D01*
Y100903D01*
Y100965D01*
Y101027D01*
Y101089D01*
Y101151D01*
Y101212D01*
X35034D01*
Y101274D01*
Y101336D01*
Y101398D01*
Y101460D01*
X35096D01*
Y101521D01*
Y101583D01*
Y101645D01*
X35157D01*
Y101707D01*
Y101769D01*
X35219D01*
Y101830D01*
X35281D01*
Y101892D01*
Y101954D01*
X35343D01*
Y102016D01*
X35405D01*
Y102077D01*
X35467D01*
Y102139D01*
X35528D01*
Y102201D01*
X35590D01*
Y102263D01*
X35652D01*
Y102325D01*
X35714D01*
Y102386D01*
X35776D01*
Y102448D01*
X35899D01*
Y102510D01*
X35961D01*
Y102572D01*
X36084D01*
Y102634D01*
X36208D01*
Y102695D01*
X36332D01*
Y102757D01*
X36517D01*
Y102819D01*
X36702D01*
Y102881D01*
X37938D01*
Y102819D01*
D02*
G37*
G36*
X40410Y88607D02*
Y88545D01*
Y88483D01*
Y88421D01*
Y88359D01*
Y88298D01*
Y88236D01*
Y88174D01*
Y88112D01*
Y88051D01*
Y87989D01*
Y87927D01*
Y87865D01*
Y87803D01*
Y87742D01*
Y87680D01*
Y87618D01*
Y87556D01*
Y87494D01*
Y87433D01*
Y87371D01*
Y87309D01*
Y87247D01*
Y87185D01*
Y87124D01*
Y87062D01*
Y87000D01*
X35590D01*
Y86938D01*
Y86876D01*
Y86815D01*
Y86753D01*
Y86691D01*
Y86629D01*
Y86567D01*
Y86506D01*
Y86444D01*
Y86382D01*
Y86320D01*
Y86259D01*
Y86197D01*
Y86135D01*
Y86073D01*
Y86011D01*
Y85949D01*
Y85888D01*
Y85826D01*
Y85764D01*
Y85702D01*
Y85641D01*
Y85579D01*
Y85517D01*
Y85455D01*
Y85393D01*
Y85332D01*
Y85270D01*
Y85208D01*
Y85146D01*
Y85084D01*
Y85023D01*
Y84961D01*
X39359D01*
Y84899D01*
X39607D01*
Y84837D01*
X39792D01*
Y84776D01*
X39916D01*
Y84714D01*
X39977D01*
Y84652D01*
X40039D01*
Y84590D01*
X40101D01*
Y84528D01*
X40163D01*
Y84466D01*
X40224D01*
Y84405D01*
Y84343D01*
X40286D01*
Y84281D01*
X40348D01*
Y84219D01*
Y84158D01*
X40410D01*
Y84096D01*
Y84034D01*
Y83972D01*
X40472D01*
Y83910D01*
Y83849D01*
Y83787D01*
Y83725D01*
Y83663D01*
X40534D01*
Y83601D01*
Y83540D01*
Y83478D01*
Y83416D01*
Y83354D01*
Y83292D01*
Y83231D01*
Y83169D01*
Y83107D01*
Y83045D01*
Y82983D01*
Y82922D01*
Y82860D01*
Y82798D01*
Y82736D01*
Y82674D01*
Y82613D01*
Y82551D01*
Y82489D01*
Y82427D01*
Y82366D01*
Y82304D01*
Y82242D01*
Y82180D01*
Y82118D01*
Y82057D01*
Y81995D01*
Y81933D01*
Y81871D01*
Y81809D01*
Y81748D01*
Y81686D01*
Y81624D01*
Y81562D01*
Y81500D01*
Y81439D01*
Y81377D01*
Y81315D01*
Y81253D01*
Y81191D01*
Y81130D01*
Y81068D01*
Y81006D01*
Y80944D01*
Y80883D01*
Y80821D01*
Y80759D01*
Y80697D01*
Y80635D01*
Y80573D01*
Y80512D01*
Y80450D01*
Y80388D01*
Y80326D01*
Y80265D01*
Y80203D01*
Y80141D01*
Y80079D01*
Y80017D01*
Y79956D01*
Y79894D01*
Y79832D01*
Y79770D01*
Y79708D01*
Y79647D01*
Y79585D01*
Y79523D01*
Y79461D01*
Y79400D01*
Y79338D01*
Y79276D01*
Y79214D01*
Y79152D01*
Y79090D01*
Y79029D01*
Y78967D01*
X34231D01*
Y79029D01*
Y79090D01*
Y79152D01*
Y79214D01*
Y79276D01*
Y79338D01*
Y79400D01*
Y79461D01*
Y79523D01*
Y79585D01*
Y79647D01*
Y79708D01*
Y79770D01*
Y79832D01*
Y79894D01*
Y79956D01*
Y80017D01*
Y80079D01*
Y80141D01*
Y80203D01*
Y80265D01*
Y80326D01*
Y80388D01*
Y80450D01*
Y80512D01*
Y80573D01*
X39050D01*
Y80635D01*
X39112D01*
Y80697D01*
Y80759D01*
Y80821D01*
Y80883D01*
Y80944D01*
Y81006D01*
Y81068D01*
Y81130D01*
Y81191D01*
Y81253D01*
Y81315D01*
Y81377D01*
Y81439D01*
Y81500D01*
Y81562D01*
Y81624D01*
Y81686D01*
Y81748D01*
Y81809D01*
Y81871D01*
Y81933D01*
Y81995D01*
Y82057D01*
Y82118D01*
Y82180D01*
Y82242D01*
Y82304D01*
Y82366D01*
Y82427D01*
Y82489D01*
Y82551D01*
Y82613D01*
Y82674D01*
Y82736D01*
Y82798D01*
Y82860D01*
Y82922D01*
Y82983D01*
Y83045D01*
Y83107D01*
Y83169D01*
Y83231D01*
Y83292D01*
X35219D01*
Y83354D01*
X35034D01*
Y83416D01*
X34910D01*
Y83478D01*
X34787D01*
Y83540D01*
X34725D01*
Y83601D01*
X34663D01*
Y83663D01*
X34601D01*
Y83725D01*
X34540D01*
Y83787D01*
Y83849D01*
X34478D01*
Y83910D01*
X34416D01*
Y83972D01*
Y84034D01*
X34354D01*
Y84096D01*
Y84158D01*
Y84219D01*
Y84281D01*
X34292D01*
Y84343D01*
Y84405D01*
Y84466D01*
X34231D01*
Y84528D01*
Y84590D01*
Y84652D01*
Y84714D01*
Y84776D01*
Y84837D01*
Y84899D01*
Y84961D01*
Y85023D01*
Y85084D01*
Y85146D01*
X34169D01*
Y85208D01*
Y85270D01*
Y85332D01*
Y85393D01*
Y85455D01*
Y85517D01*
Y85579D01*
Y85641D01*
Y85702D01*
Y85764D01*
Y85826D01*
Y85888D01*
Y85949D01*
Y86011D01*
Y86073D01*
Y86135D01*
Y86197D01*
Y86259D01*
Y86320D01*
Y86382D01*
Y86444D01*
Y86506D01*
Y86567D01*
Y86629D01*
Y86691D01*
Y86753D01*
Y86815D01*
Y86876D01*
Y86938D01*
Y87000D01*
Y87062D01*
X34231D01*
Y87124D01*
Y87185D01*
Y87247D01*
Y87309D01*
Y87371D01*
Y87433D01*
Y87494D01*
Y87556D01*
X34292D01*
Y87618D01*
Y87680D01*
Y87742D01*
Y87803D01*
X34354D01*
Y87865D01*
Y87927D01*
Y87989D01*
X34416D01*
Y88051D01*
Y88112D01*
X34478D01*
Y88174D01*
X34540D01*
Y88236D01*
Y88298D01*
X34601D01*
Y88359D01*
X34663D01*
Y88421D01*
X34787D01*
Y88483D01*
X34849D01*
Y88545D01*
X35034D01*
Y88607D01*
X35219D01*
Y88668D01*
X40410D01*
Y88607D01*
D02*
G37*
G36*
X28793Y88668D02*
Y88607D01*
Y88545D01*
Y88483D01*
Y88421D01*
Y88359D01*
Y88298D01*
Y88236D01*
Y88174D01*
Y88112D01*
Y88051D01*
Y87989D01*
Y87927D01*
Y87865D01*
Y87803D01*
Y87742D01*
Y87680D01*
Y87618D01*
Y87556D01*
Y87494D01*
Y87433D01*
Y87371D01*
Y87309D01*
Y87247D01*
Y87185D01*
Y87124D01*
Y87062D01*
Y87000D01*
Y86938D01*
Y86876D01*
Y86815D01*
Y86753D01*
Y86691D01*
Y86629D01*
Y86567D01*
Y86506D01*
Y86444D01*
Y86382D01*
Y86320D01*
Y86259D01*
Y86197D01*
Y86135D01*
Y86073D01*
Y86011D01*
Y85949D01*
Y85888D01*
Y85826D01*
Y85764D01*
Y85702D01*
Y85641D01*
Y85579D01*
Y85517D01*
Y85455D01*
Y85393D01*
Y85332D01*
Y85270D01*
Y85208D01*
Y85146D01*
Y85084D01*
Y85023D01*
Y84961D01*
Y84899D01*
Y84837D01*
Y84776D01*
Y84714D01*
Y84652D01*
Y84590D01*
Y84528D01*
Y84466D01*
Y84405D01*
Y84343D01*
Y84281D01*
Y84219D01*
Y84158D01*
Y84096D01*
Y84034D01*
Y83972D01*
Y83910D01*
Y83849D01*
Y83787D01*
Y83725D01*
Y83663D01*
Y83601D01*
Y83540D01*
Y83478D01*
Y83416D01*
Y83354D01*
Y83292D01*
Y83231D01*
Y83169D01*
Y83107D01*
Y83045D01*
Y82983D01*
Y82922D01*
Y82860D01*
Y82798D01*
Y82736D01*
Y82674D01*
Y82613D01*
Y82551D01*
Y82489D01*
Y82427D01*
Y82366D01*
Y82304D01*
Y82242D01*
Y82180D01*
Y82118D01*
Y82057D01*
Y81995D01*
Y81933D01*
Y81871D01*
Y81809D01*
Y81748D01*
Y81686D01*
Y81624D01*
Y81562D01*
Y81500D01*
Y81439D01*
Y81377D01*
Y81315D01*
Y81253D01*
Y81191D01*
Y81130D01*
Y81068D01*
Y81006D01*
Y80944D01*
Y80883D01*
Y80821D01*
Y80759D01*
Y80697D01*
Y80635D01*
Y80573D01*
Y80512D01*
Y80450D01*
Y80388D01*
Y80326D01*
Y80265D01*
Y80203D01*
Y80141D01*
Y80079D01*
Y80017D01*
Y79956D01*
Y79894D01*
Y79832D01*
Y79770D01*
Y79708D01*
Y79647D01*
Y79585D01*
Y79523D01*
Y79461D01*
Y79400D01*
Y79338D01*
Y79276D01*
Y79214D01*
Y79152D01*
Y79090D01*
Y79029D01*
Y78967D01*
Y78905D01*
X22490D01*
Y78967D01*
X22057D01*
Y79029D01*
X21810D01*
Y79090D01*
X21687D01*
Y79152D01*
X21563D01*
Y79214D01*
X21440D01*
Y79276D01*
X21378D01*
Y79338D01*
X21316D01*
Y79400D01*
X21254D01*
Y79461D01*
X21192D01*
Y79523D01*
X21131D01*
Y79585D01*
Y79647D01*
X21069D01*
Y79708D01*
Y79770D01*
X21007D01*
Y79832D01*
Y79894D01*
X20945D01*
Y79956D01*
Y80017D01*
Y80079D01*
Y80141D01*
X20883D01*
Y80203D01*
Y80265D01*
Y80326D01*
Y80388D01*
Y80450D01*
Y80512D01*
Y80573D01*
Y80635D01*
Y80697D01*
Y80759D01*
Y80821D01*
Y80883D01*
Y80944D01*
X20822D01*
Y81006D01*
Y81068D01*
Y81130D01*
Y81191D01*
Y81253D01*
Y81315D01*
Y81377D01*
Y81439D01*
Y81500D01*
Y81562D01*
Y81624D01*
Y81686D01*
Y81748D01*
Y81809D01*
Y81871D01*
Y81933D01*
Y81995D01*
Y82057D01*
Y82118D01*
Y82180D01*
Y82242D01*
Y82304D01*
Y82366D01*
Y82427D01*
Y82489D01*
Y82551D01*
Y82613D01*
Y82674D01*
Y82736D01*
Y82798D01*
Y82860D01*
Y82922D01*
Y82983D01*
Y83045D01*
Y83107D01*
Y83169D01*
Y83231D01*
Y83292D01*
Y83354D01*
Y83416D01*
Y83478D01*
Y83540D01*
Y83601D01*
Y83663D01*
Y83725D01*
Y83787D01*
Y83849D01*
Y83910D01*
Y83972D01*
Y84034D01*
Y84096D01*
Y84158D01*
Y84219D01*
Y84281D01*
Y84343D01*
Y84405D01*
Y84466D01*
Y84528D01*
Y84590D01*
Y84652D01*
Y84714D01*
Y84776D01*
Y84837D01*
Y84899D01*
Y84961D01*
Y85023D01*
Y85084D01*
Y85146D01*
Y85208D01*
Y85270D01*
Y85332D01*
Y85393D01*
Y85455D01*
Y85517D01*
Y85579D01*
Y85641D01*
Y85702D01*
Y85764D01*
Y85826D01*
Y85888D01*
Y85949D01*
Y86011D01*
Y86073D01*
Y86135D01*
Y86197D01*
Y86259D01*
Y86320D01*
Y86382D01*
Y86444D01*
Y86506D01*
Y86567D01*
X20883D01*
Y86629D01*
Y86691D01*
Y86753D01*
Y86815D01*
Y86876D01*
Y86938D01*
Y87000D01*
Y87062D01*
Y87124D01*
Y87185D01*
Y87247D01*
Y87309D01*
Y87371D01*
X20945D01*
Y87433D01*
Y87494D01*
Y87556D01*
X21007D01*
Y87618D01*
Y87680D01*
X21069D01*
Y87742D01*
Y87803D01*
X21131D01*
Y87865D01*
Y87927D01*
X21192D01*
Y87989D01*
Y88051D01*
X21316D01*
Y88112D01*
Y88174D01*
X21378D01*
Y88236D01*
X21501D01*
Y88298D01*
X21563D01*
Y88359D01*
X21625D01*
Y88421D01*
X21748D01*
Y88483D01*
X21872D01*
Y88545D01*
X21996D01*
Y88607D01*
X22181D01*
Y88668D01*
X22428D01*
Y88730D01*
X28793D01*
Y88668D01*
D02*
G37*
G36*
X67821Y118984D02*
X67357D01*
Y119516D01*
X67821D01*
Y118984D01*
D02*
G37*
G36*
X56557Y119483D02*
X56584Y119437D01*
X56647Y119347D01*
X56715Y119262D01*
X56751Y119221D01*
X56783Y119183D01*
X56816Y119150D01*
X56846Y119117D01*
X56873Y119090D01*
X56898Y119065D01*
X56917Y119046D01*
X56931Y119033D01*
X56942Y119025D01*
X56944Y119022D01*
X57056Y118929D01*
X57174Y118844D01*
X57288Y118768D01*
X57343Y118735D01*
X57395Y118702D01*
X57441Y118675D01*
X57485Y118650D01*
X57526Y118629D01*
X57559Y118612D01*
X57586Y118599D01*
X57608Y118588D01*
X57619Y118582D01*
X57624Y118580D01*
Y118132D01*
X57542Y118165D01*
X57458Y118203D01*
X57376Y118241D01*
X57299Y118279D01*
X57266Y118298D01*
X57234Y118315D01*
X57206Y118331D01*
X57185Y118345D01*
X57165Y118353D01*
X57149Y118361D01*
X57141Y118367D01*
X57138Y118369D01*
X57040Y118429D01*
X56996Y118459D01*
X56953Y118487D01*
X56914Y118517D01*
X56879Y118541D01*
X56846Y118569D01*
X56813Y118590D01*
X56789Y118612D01*
X56764Y118631D01*
X56742Y118650D01*
X56726Y118664D01*
X56712Y118675D01*
X56704Y118683D01*
X56699Y118689D01*
X56696Y118692D01*
Y115738D01*
X56232D01*
Y119530D01*
X56532D01*
X56557Y119483D01*
D02*
G37*
G36*
X60652Y117949D02*
X60125D01*
Y118476D01*
X60652D01*
Y117949D01*
D02*
G37*
G36*
X77539Y115738D02*
X77024D01*
X75544Y119516D01*
X76054D01*
X77075Y116770D01*
X77119Y116655D01*
X77157Y116540D01*
X77174Y116488D01*
X77193Y116437D01*
X77206Y116387D01*
X77223Y116344D01*
X77234Y116303D01*
X77247Y116264D01*
X77255Y116232D01*
X77264Y116202D01*
X77272Y116180D01*
X77277Y116164D01*
X77280Y116153D01*
Y116150D01*
X77310Y116259D01*
X77346Y116368D01*
X77378Y116472D01*
X77395Y116521D01*
X77408Y116568D01*
X77425Y116611D01*
X77438Y116649D01*
X77449Y116685D01*
X77460Y116712D01*
X77469Y116737D01*
X77474Y116756D01*
X77477Y116767D01*
X77479Y116770D01*
X78460Y119516D01*
X79003D01*
X77539Y115738D01*
D02*
G37*
G36*
X74135Y118530D02*
X74233Y118519D01*
X74326Y118500D01*
X74416Y118476D01*
X74498Y118448D01*
X74572Y118416D01*
X74643Y118380D01*
X74706Y118345D01*
X74763Y118309D01*
X74812Y118274D01*
X74853Y118244D01*
X74889Y118214D01*
X74919Y118189D01*
X74938Y118170D01*
X74949Y118159D01*
X74954Y118154D01*
X75017Y118080D01*
X75072Y117998D01*
X75118Y117913D01*
X75159Y117826D01*
X75194Y117736D01*
X75222Y117646D01*
X75246Y117559D01*
X75265Y117477D01*
X75279Y117395D01*
X75290Y117321D01*
X75298Y117255D01*
X75304Y117198D01*
X75306Y117171D01*
Y117149D01*
Y117130D01*
X75309Y117114D01*
Y117100D01*
Y117092D01*
Y117086D01*
Y117084D01*
X75306Y116961D01*
X75293Y116846D01*
X75276Y116740D01*
X75254Y116639D01*
X75227Y116546D01*
X75197Y116461D01*
X75167Y116385D01*
X75134Y116314D01*
X75102Y116251D01*
X75069Y116199D01*
X75042Y116153D01*
X75014Y116114D01*
X74992Y116084D01*
X74973Y116062D01*
X74962Y116052D01*
X74960Y116046D01*
X74891Y115981D01*
X74818Y115923D01*
X74741Y115874D01*
X74662Y115833D01*
X74583Y115798D01*
X74504Y115768D01*
X74424Y115743D01*
X74351Y115724D01*
X74280Y115708D01*
X74214Y115697D01*
X74157Y115689D01*
X74105Y115683D01*
X74064Y115680D01*
X74048D01*
X74034Y115678D01*
X74007D01*
X73919Y115680D01*
X73835Y115689D01*
X73756Y115699D01*
X73682Y115713D01*
X73614Y115732D01*
X73548Y115751D01*
X73491Y115773D01*
X73436Y115795D01*
X73387Y115814D01*
X73346Y115836D01*
X73308Y115855D01*
X73278Y115874D01*
X73253Y115888D01*
X73237Y115899D01*
X73226Y115907D01*
X73223Y115910D01*
X73169Y115956D01*
X73117Y116005D01*
X73070Y116057D01*
X73030Y116109D01*
X72991Y116164D01*
X72956Y116218D01*
X72926Y116273D01*
X72899Y116322D01*
X72874Y116371D01*
X72855Y116417D01*
X72838Y116458D01*
X72825Y116494D01*
X72816Y116521D01*
X72808Y116543D01*
X72803Y116557D01*
Y116562D01*
X73281Y116625D01*
X73303Y116570D01*
X73324Y116521D01*
X73346Y116475D01*
X73371Y116431D01*
X73395Y116393D01*
X73417Y116357D01*
X73442Y116327D01*
X73464Y116297D01*
X73485Y116273D01*
X73505Y116251D01*
X73521Y116235D01*
X73537Y116218D01*
X73551Y116207D01*
X73559Y116199D01*
X73565Y116196D01*
X73567Y116194D01*
X73603Y116169D01*
X73638Y116150D01*
X73674Y116131D01*
X73712Y116117D01*
X73786Y116093D01*
X73854Y116076D01*
X73884Y116071D01*
X73914Y116068D01*
X73939Y116065D01*
X73960Y116062D01*
X73980Y116060D01*
X74004D01*
X74067Y116062D01*
X74127Y116071D01*
X74184Y116082D01*
X74239Y116098D01*
X74291Y116114D01*
X74337Y116136D01*
X74381Y116155D01*
X74419Y116180D01*
X74454Y116202D01*
X74487Y116224D01*
X74515Y116243D01*
X74537Y116259D01*
X74553Y116276D01*
X74567Y116286D01*
X74575Y116295D01*
X74577Y116297D01*
X74618Y116344D01*
X74654Y116396D01*
X74687Y116450D01*
X74714Y116507D01*
X74739Y116565D01*
X74758Y116622D01*
X74777Y116677D01*
X74790Y116734D01*
X74801Y116786D01*
X74812Y116832D01*
X74818Y116876D01*
X74823Y116914D01*
X74829Y116944D01*
Y116969D01*
X74831Y116982D01*
Y116988D01*
X72789D01*
Y117018D01*
X72786Y117043D01*
Y117062D01*
Y117081D01*
Y117095D01*
Y117103D01*
Y117108D01*
Y117111D01*
X72789Y117234D01*
X72800Y117351D01*
X72819Y117460D01*
X72841Y117561D01*
X72868Y117654D01*
X72896Y117742D01*
X72929Y117821D01*
X72961Y117892D01*
X72994Y117954D01*
X73024Y118009D01*
X73054Y118055D01*
X73081Y118094D01*
X73103Y118124D01*
X73120Y118146D01*
X73133Y118156D01*
X73136Y118162D01*
X73204Y118227D01*
X73275Y118285D01*
X73346Y118337D01*
X73423Y118377D01*
X73496Y118416D01*
X73573Y118446D01*
X73644Y118470D01*
X73715Y118490D01*
X73780Y118506D01*
X73840Y118517D01*
X73892Y118525D01*
X73941Y118530D01*
X73980Y118533D01*
X74007Y118536D01*
X74031D01*
X74135Y118530D01*
D02*
G37*
G36*
X71277Y118533D02*
X71331Y118522D01*
X71381Y118506D01*
X71427Y118490D01*
X71463Y118470D01*
X71490Y118457D01*
X71501Y118448D01*
X71509Y118446D01*
X71512Y118440D01*
X71514D01*
X71539Y118421D01*
X71566Y118397D01*
X71591Y118369D01*
X71615Y118342D01*
X71665Y118277D01*
X71711Y118214D01*
X71749Y118154D01*
X71766Y118126D01*
X71779Y118102D01*
X71790Y118083D01*
X71798Y118069D01*
X71804Y118058D01*
X71806Y118055D01*
Y118476D01*
X72224D01*
Y115738D01*
X71760D01*
Y117168D01*
X71757Y117277D01*
X71749Y117378D01*
X71741Y117425D01*
X71736Y117469D01*
X71730Y117509D01*
X71722Y117550D01*
X71714Y117583D01*
X71708Y117616D01*
X71700Y117643D01*
X71694Y117665D01*
X71692Y117684D01*
X71686Y117698D01*
X71684Y117706D01*
Y117709D01*
X71662Y117766D01*
X71635Y117818D01*
X71607Y117862D01*
X71577Y117897D01*
X71553Y117924D01*
X71531Y117946D01*
X71517Y117957D01*
X71512Y117963D01*
X71465Y117993D01*
X71419Y118017D01*
X71372Y118034D01*
X71331Y118044D01*
X71296Y118050D01*
X71266Y118055D01*
X71241D01*
X71179Y118050D01*
X71116Y118039D01*
X71058Y118025D01*
X71009Y118006D01*
X70966Y117987D01*
X70947Y117979D01*
X70933Y117973D01*
X70919Y117965D01*
X70911Y117963D01*
X70906Y117957D01*
X70903D01*
X70739Y118386D01*
X70785Y118413D01*
X70829Y118435D01*
X70873Y118457D01*
X70916Y118473D01*
X70996Y118500D01*
X71034Y118509D01*
X71069Y118517D01*
X71102Y118522D01*
X71129Y118528D01*
X71154Y118530D01*
X71176Y118533D01*
X71192Y118536D01*
X71217D01*
X71277Y118533D01*
D02*
G37*
G36*
X67821Y115738D02*
X67357D01*
Y118476D01*
X67821D01*
Y115738D01*
D02*
G37*
G36*
X62533Y118530D02*
X62631Y118517D01*
X62721Y118495D01*
X62806Y118465D01*
X62885Y118432D01*
X62956Y118394D01*
X63021Y118353D01*
X63079Y118312D01*
X63130Y118268D01*
X63174Y118227D01*
X63212Y118189D01*
X63245Y118156D01*
X63267Y118126D01*
X63286Y118105D01*
X63297Y118091D01*
X63300Y118085D01*
Y118476D01*
X63718D01*
Y115738D01*
X63253D01*
Y117231D01*
X63251Y117326D01*
X63245Y117414D01*
X63234Y117493D01*
X63221Y117564D01*
X63204Y117630D01*
X63185Y117690D01*
X63166Y117742D01*
X63147Y117785D01*
X63128Y117826D01*
X63109Y117859D01*
X63090Y117886D01*
X63073Y117908D01*
X63060Y117924D01*
X63049Y117938D01*
X63043Y117944D01*
X63040Y117946D01*
X62999Y117979D01*
X62956Y118009D01*
X62912Y118034D01*
X62868Y118055D01*
X62825Y118075D01*
X62784Y118088D01*
X62743Y118102D01*
X62702Y118110D01*
X62666Y118118D01*
X62634Y118124D01*
X62604Y118129D01*
X62576Y118132D01*
X62557Y118135D01*
X62527D01*
X62459Y118132D01*
X62399Y118121D01*
X62344Y118107D01*
X62295Y118094D01*
X62257Y118077D01*
X62230Y118064D01*
X62219Y118058D01*
X62211Y118053D01*
X62208Y118050D01*
X62205D01*
X62156Y118017D01*
X62115Y117979D01*
X62082Y117941D01*
X62055Y117905D01*
X62036Y117873D01*
X62022Y117848D01*
X62017Y117837D01*
X62014Y117829D01*
X62011Y117826D01*
Y117823D01*
X62000Y117796D01*
X61992Y117766D01*
X61978Y117698D01*
X61970Y117630D01*
X61962Y117559D01*
Y117528D01*
X61959Y117499D01*
Y117471D01*
X61957Y117447D01*
Y117428D01*
Y117414D01*
Y117403D01*
Y117400D01*
Y115738D01*
X61493D01*
Y117419D01*
Y117477D01*
Y117531D01*
X61495Y117580D01*
X61498Y117627D01*
Y117668D01*
X61501Y117703D01*
X61503Y117736D01*
X61506Y117766D01*
X61509Y117791D01*
X61512Y117812D01*
X61514Y117832D01*
Y117845D01*
X61517Y117856D01*
X61520Y117864D01*
Y117867D01*
Y117870D01*
X61539Y117941D01*
X61561Y118006D01*
X61583Y118066D01*
X61607Y118115D01*
X61629Y118156D01*
X61640Y118173D01*
X61648Y118186D01*
X61654Y118197D01*
X61659Y118206D01*
X61664Y118208D01*
Y118211D01*
X61708Y118263D01*
X61757Y118309D01*
X61809Y118350D01*
X61858Y118383D01*
X61905Y118410D01*
X61924Y118421D01*
X61940Y118429D01*
X61957Y118438D01*
X61967Y118443D01*
X61973Y118446D01*
X61976D01*
X62055Y118476D01*
X62134Y118498D01*
X62211Y118514D01*
X62279Y118525D01*
X62312Y118528D01*
X62339Y118530D01*
X62366Y118533D01*
X62388Y118536D01*
X62429D01*
X62533Y118530D01*
D02*
G37*
G36*
X60652Y115738D02*
X60125D01*
Y116264D01*
X60652D01*
Y115738D01*
D02*
G37*
G36*
X54782D02*
X54255D01*
Y116264D01*
X54782D01*
Y115738D01*
D02*
G37*
G36*
X69644Y118533D02*
X69718Y118528D01*
X69786Y118517D01*
X69846Y118509D01*
X69871Y118503D01*
X69895Y118498D01*
X69917Y118492D01*
X69934Y118487D01*
X69947Y118484D01*
X69958Y118481D01*
X69964Y118479D01*
X69966D01*
X70032Y118457D01*
X70092Y118435D01*
X70141Y118413D01*
X70182Y118391D01*
X70218Y118372D01*
X70242Y118358D01*
X70256Y118348D01*
X70261Y118345D01*
X70313Y118304D01*
X70357Y118260D01*
X70398Y118217D01*
X70430Y118175D01*
X70455Y118140D01*
X70474Y118113D01*
X70482Y118102D01*
X70488Y118094D01*
X70491Y118088D01*
Y118085D01*
X70518Y118025D01*
X70537Y117968D01*
X70553Y117911D01*
X70562Y117859D01*
X70567Y117812D01*
X70570Y117793D01*
Y117777D01*
X70573Y117766D01*
Y117755D01*
Y117750D01*
Y117747D01*
X70567Y117673D01*
X70556Y117605D01*
X70540Y117542D01*
X70521Y117488D01*
X70512Y117463D01*
X70504Y117441D01*
X70496Y117422D01*
X70488Y117408D01*
X70480Y117395D01*
X70477Y117387D01*
X70472Y117381D01*
Y117378D01*
X70430Y117318D01*
X70381Y117266D01*
X70332Y117223D01*
X70286Y117187D01*
X70242Y117157D01*
X70223Y117146D01*
X70207Y117135D01*
X70193Y117130D01*
X70182Y117124D01*
X70177Y117119D01*
X70174D01*
X70133Y117103D01*
X70086Y117084D01*
X70035Y117064D01*
X69980Y117045D01*
X69863Y117007D01*
X69745Y116972D01*
X69688Y116955D01*
X69636Y116942D01*
X69590Y116928D01*
X69546Y116917D01*
X69513Y116909D01*
X69486Y116901D01*
X69470Y116898D01*
X69467Y116895D01*
X69464D01*
X69396Y116879D01*
X69333Y116862D01*
X69279Y116846D01*
X69229Y116832D01*
X69186Y116819D01*
X69145Y116805D01*
X69112Y116794D01*
X69082Y116783D01*
X69060Y116772D01*
X69038Y116764D01*
X69022Y116756D01*
X69008Y116751D01*
X69000Y116745D01*
X68995Y116742D01*
X68989Y116740D01*
X68964Y116723D01*
X68943Y116704D01*
X68924Y116682D01*
X68907Y116663D01*
X68883Y116622D01*
X68866Y116584D01*
X68858Y116549D01*
X68853Y116518D01*
X68850Y116510D01*
Y116502D01*
Y116497D01*
Y116494D01*
X68853Y116461D01*
X68855Y116431D01*
X68863Y116401D01*
X68874Y116374D01*
X68899Y116319D01*
X68926Y116276D01*
X68956Y116240D01*
X68981Y116213D01*
X68992Y116202D01*
X69000Y116194D01*
X69003Y116191D01*
X69006Y116188D01*
X69036Y116166D01*
X69071Y116147D01*
X69145Y116114D01*
X69224Y116093D01*
X69300Y116076D01*
X69339Y116071D01*
X69371Y116068D01*
X69401Y116062D01*
X69429D01*
X69450Y116060D01*
X69481D01*
X69538Y116062D01*
X69592Y116065D01*
X69644Y116073D01*
X69693Y116082D01*
X69737Y116093D01*
X69778Y116106D01*
X69816Y116120D01*
X69849Y116133D01*
X69879Y116144D01*
X69904Y116158D01*
X69925Y116172D01*
X69945Y116183D01*
X69958Y116191D01*
X69969Y116199D01*
X69975Y116202D01*
X69977Y116205D01*
X70007Y116235D01*
X70037Y116264D01*
X70062Y116297D01*
X70084Y116333D01*
X70122Y116404D01*
X70149Y116472D01*
X70160Y116502D01*
X70168Y116532D01*
X70177Y116559D01*
X70182Y116581D01*
X70185Y116600D01*
X70188Y116617D01*
X70190Y116625D01*
Y116628D01*
X70649Y116557D01*
X70633Y116478D01*
X70611Y116404D01*
X70589Y116333D01*
X70562Y116270D01*
X70531Y116210D01*
X70504Y116155D01*
X70472Y116109D01*
X70441Y116065D01*
X70414Y116024D01*
X70387Y115991D01*
X70360Y115964D01*
X70338Y115940D01*
X70321Y115923D01*
X70305Y115910D01*
X70297Y115901D01*
X70294Y115899D01*
X70239Y115860D01*
X70179Y115825D01*
X70114Y115795D01*
X70048Y115770D01*
X69980Y115749D01*
X69912Y115732D01*
X69846Y115716D01*
X69781Y115705D01*
X69718Y115697D01*
X69661Y115689D01*
X69612Y115686D01*
X69565Y115680D01*
X69530D01*
X69502Y115678D01*
X69478D01*
X69360Y115683D01*
X69251Y115694D01*
X69202Y115705D01*
X69153Y115713D01*
X69109Y115724D01*
X69068Y115735D01*
X69033Y115743D01*
X69000Y115754D01*
X68970Y115765D01*
X68945Y115773D01*
X68926Y115779D01*
X68913Y115784D01*
X68905Y115789D01*
X68902D01*
X68855Y115811D01*
X68812Y115836D01*
X68771Y115860D01*
X68733Y115885D01*
X68697Y115912D01*
X68664Y115940D01*
X68634Y115964D01*
X68610Y115989D01*
X68585Y116013D01*
X68566Y116035D01*
X68547Y116054D01*
X68533Y116073D01*
X68522Y116087D01*
X68514Y116098D01*
X68511Y116103D01*
X68509Y116106D01*
X68484Y116144D01*
X68462Y116183D01*
X68446Y116224D01*
X68429Y116262D01*
X68405Y116335D01*
X68388Y116401D01*
X68383Y116431D01*
X68380Y116458D01*
X68375Y116483D01*
Y116505D01*
X68372Y116521D01*
Y116532D01*
Y116540D01*
Y116543D01*
X68378Y116628D01*
X68388Y116704D01*
X68408Y116770D01*
X68419Y116800D01*
X68427Y116827D01*
X68438Y116851D01*
X68449Y116873D01*
X68457Y116892D01*
X68468Y116909D01*
X68473Y116920D01*
X68479Y116928D01*
X68484Y116933D01*
Y116936D01*
X68530Y116993D01*
X68580Y117043D01*
X68629Y117084D01*
X68678Y117119D01*
X68722Y117146D01*
X68741Y117157D01*
X68757Y117165D01*
X68771Y117174D01*
X68782Y117179D01*
X68787Y117182D01*
X68790D01*
X68831Y117198D01*
X68874Y117215D01*
X68926Y117234D01*
X68978Y117250D01*
X69093Y117288D01*
X69208Y117321D01*
X69259Y117337D01*
X69311Y117351D01*
X69358Y117365D01*
X69399Y117376D01*
X69431Y117384D01*
X69456Y117392D01*
X69472Y117395D01*
X69475Y117397D01*
X69478D01*
X69538Y117414D01*
X69595Y117430D01*
X69644Y117444D01*
X69688Y117455D01*
X69726Y117466D01*
X69759Y117477D01*
X69789Y117485D01*
X69814Y117490D01*
X69833Y117499D01*
X69849Y117501D01*
X69863Y117507D01*
X69874Y117509D01*
X69882Y117512D01*
X69887Y117515D01*
X69890D01*
X69934Y117534D01*
X69969Y117556D01*
X70002Y117575D01*
X70026Y117594D01*
X70046Y117613D01*
X70059Y117627D01*
X70067Y117635D01*
X70070Y117638D01*
X70089Y117665D01*
X70103Y117695D01*
X70111Y117722D01*
X70117Y117747D01*
X70122Y117769D01*
X70125Y117785D01*
Y117799D01*
Y117801D01*
X70122Y117826D01*
X70119Y117853D01*
X70103Y117900D01*
X70081Y117941D01*
X70056Y117976D01*
X70032Y118006D01*
X70010Y118028D01*
X69994Y118042D01*
X69991Y118047D01*
X69988D01*
X69961Y118066D01*
X69928Y118083D01*
X69895Y118096D01*
X69860Y118110D01*
X69784Y118129D01*
X69707Y118140D01*
X69672Y118146D01*
X69639Y118148D01*
X69609Y118151D01*
X69582D01*
X69560Y118154D01*
X69481D01*
X69434Y118148D01*
X69390Y118143D01*
X69349Y118135D01*
X69314Y118126D01*
X69279Y118115D01*
X69248Y118105D01*
X69218Y118094D01*
X69194Y118083D01*
X69172Y118072D01*
X69156Y118061D01*
X69139Y118053D01*
X69128Y118044D01*
X69117Y118039D01*
X69115Y118036D01*
X69112Y118034D01*
X69085Y118012D01*
X69060Y117987D01*
X69019Y117933D01*
X68989Y117878D01*
X68964Y117826D01*
X68948Y117780D01*
X68940Y117758D01*
X68937Y117742D01*
X68932Y117725D01*
Y117714D01*
X68929Y117709D01*
Y117706D01*
X68476Y117769D01*
X68495Y117864D01*
X68509Y117905D01*
X68522Y117946D01*
X68533Y117984D01*
X68547Y118020D01*
X68560Y118050D01*
X68574Y118080D01*
X68588Y118105D01*
X68599Y118129D01*
X68610Y118148D01*
X68621Y118162D01*
X68629Y118175D01*
X68634Y118184D01*
X68637Y118189D01*
X68640Y118192D01*
X68661Y118222D01*
X68689Y118249D01*
X68743Y118298D01*
X68803Y118342D01*
X68861Y118377D01*
X68915Y118405D01*
X68937Y118416D01*
X68956Y118427D01*
X68973Y118435D01*
X68986Y118438D01*
X68995Y118443D01*
X68997D01*
X69090Y118473D01*
X69188Y118498D01*
X69284Y118514D01*
X69330Y118519D01*
X69371Y118525D01*
X69412Y118528D01*
X69450Y118530D01*
X69483Y118533D01*
X69511Y118536D01*
X69565D01*
X69644Y118533D01*
D02*
G37*
G36*
X65637D02*
X65727Y118522D01*
X65811Y118509D01*
X65891Y118490D01*
X65967Y118465D01*
X66038Y118440D01*
X66104Y118410D01*
X66163Y118383D01*
X66218Y118356D01*
X66264Y118326D01*
X66306Y118301D01*
X66341Y118279D01*
X66368Y118257D01*
X66387Y118244D01*
X66398Y118233D01*
X66404Y118230D01*
X66478Y118156D01*
X66543Y118077D01*
X66598Y117990D01*
X66647Y117900D01*
X66688Y117807D01*
X66720Y117714D01*
X66751Y117621D01*
X66772Y117531D01*
X66789Y117444D01*
X66802Y117365D01*
X66811Y117294D01*
X66816Y117261D01*
X66819Y117231D01*
Y117204D01*
X66821Y117179D01*
Y117157D01*
X66824Y117138D01*
Y117124D01*
Y117114D01*
Y117108D01*
Y117105D01*
X66821Y116980D01*
X66808Y116860D01*
X66791Y116751D01*
X66770Y116647D01*
X66742Y116551D01*
X66712Y116464D01*
X66680Y116385D01*
X66647Y116314D01*
X66614Y116251D01*
X66584Y116196D01*
X66554Y116150D01*
X66527Y116112D01*
X66505Y116082D01*
X66488Y116060D01*
X66475Y116049D01*
X66472Y116043D01*
X66404Y115978D01*
X66330Y115923D01*
X66254Y115874D01*
X66177Y115833D01*
X66101Y115798D01*
X66022Y115768D01*
X65948Y115743D01*
X65874Y115724D01*
X65806Y115708D01*
X65743Y115697D01*
X65689Y115689D01*
X65639Y115683D01*
X65598Y115680D01*
X65582D01*
X65568Y115678D01*
X65544D01*
X65476Y115680D01*
X65413Y115686D01*
X65350Y115694D01*
X65287Y115705D01*
X65230Y115716D01*
X65175Y115729D01*
X65126Y115746D01*
X65077Y115762D01*
X65036Y115776D01*
X64998Y115792D01*
X64965Y115806D01*
X64935Y115820D01*
X64913Y115828D01*
X64897Y115836D01*
X64886Y115841D01*
X64883Y115844D01*
X64829Y115877D01*
X64777Y115912D01*
X64728Y115951D01*
X64684Y115989D01*
X64643Y116027D01*
X64605Y116065D01*
X64569Y116103D01*
X64539Y116142D01*
X64512Y116177D01*
X64487Y116210D01*
X64468Y116237D01*
X64452Y116264D01*
X64438Y116284D01*
X64430Y116300D01*
X64425Y116311D01*
X64422Y116314D01*
X64394Y116374D01*
X64367Y116437D01*
X64348Y116502D01*
X64329Y116570D01*
X64313Y116641D01*
X64299Y116709D01*
X64288Y116778D01*
X64280Y116843D01*
X64274Y116903D01*
X64269Y116961D01*
X64266Y117013D01*
X64263Y117056D01*
X64261Y117092D01*
Y117122D01*
Y117130D01*
Y117138D01*
Y117141D01*
Y117144D01*
X64263Y117264D01*
X64277Y117376D01*
X64293Y117479D01*
X64318Y117578D01*
X64345Y117671D01*
X64375Y117752D01*
X64408Y117829D01*
X64441Y117900D01*
X64474Y117960D01*
X64506Y118015D01*
X64536Y118058D01*
X64564Y118096D01*
X64588Y118126D01*
X64605Y118148D01*
X64616Y118159D01*
X64621Y118165D01*
X64689Y118230D01*
X64763Y118288D01*
X64840Y118337D01*
X64916Y118380D01*
X64992Y118416D01*
X65069Y118446D01*
X65145Y118470D01*
X65216Y118490D01*
X65285Y118506D01*
X65347Y118517D01*
X65402Y118525D01*
X65451Y118530D01*
X65489Y118533D01*
X65506Y118536D01*
X65544D01*
X65637Y118533D01*
D02*
G37*
G36*
X52424Y119527D02*
X52494Y119521D01*
X52563Y119510D01*
X52628Y119494D01*
X52688Y119478D01*
X52746Y119459D01*
X52798Y119439D01*
X52844Y119420D01*
X52887Y119399D01*
X52923Y119379D01*
X52956Y119360D01*
X52983Y119344D01*
X53005Y119330D01*
X53019Y119319D01*
X53030Y119311D01*
X53032Y119308D01*
X53081Y119265D01*
X53128Y119218D01*
X53171Y119169D01*
X53212Y119117D01*
X53248Y119065D01*
X53281Y119011D01*
X53313Y118959D01*
X53338Y118910D01*
X53363Y118863D01*
X53384Y118820D01*
X53401Y118779D01*
X53417Y118746D01*
X53428Y118716D01*
X53436Y118697D01*
X53439Y118683D01*
X53442Y118678D01*
X53466Y118599D01*
X53485Y118514D01*
X53505Y118427D01*
X53521Y118337D01*
X53545Y118156D01*
X53554Y118069D01*
X53562Y117984D01*
X53567Y117905D01*
X53570Y117832D01*
X53573Y117766D01*
X53575Y117711D01*
Y117687D01*
X53578Y117665D01*
Y117646D01*
Y117630D01*
Y117616D01*
Y117608D01*
Y117602D01*
Y117599D01*
Y117501D01*
X53573Y117406D01*
X53570Y117316D01*
X53562Y117228D01*
X53554Y117144D01*
X53543Y117062D01*
X53532Y116985D01*
X53521Y116911D01*
X53507Y116838D01*
X53491Y116772D01*
X53477Y116707D01*
X53461Y116647D01*
X53444Y116587D01*
X53428Y116532D01*
X53409Y116480D01*
X53393Y116431D01*
X53376Y116387D01*
X53357Y116344D01*
X53341Y116305D01*
X53324Y116267D01*
X53308Y116235D01*
X53294Y116205D01*
X53278Y116177D01*
X53264Y116153D01*
X53253Y116131D01*
X53242Y116114D01*
X53232Y116098D01*
X53223Y116084D01*
X53215Y116076D01*
X53210Y116068D01*
X53207Y116065D01*
Y116062D01*
X53147Y115994D01*
X53081Y115934D01*
X53013Y115882D01*
X52942Y115839D01*
X52868Y115800D01*
X52798Y115770D01*
X52729Y115743D01*
X52661Y115724D01*
X52595Y115708D01*
X52538Y115697D01*
X52483Y115686D01*
X52437Y115680D01*
X52399Y115678D01*
X52372Y115675D01*
X52347D01*
X52271Y115678D01*
X52200Y115686D01*
X52131Y115697D01*
X52066Y115710D01*
X52006Y115727D01*
X51951Y115746D01*
X51899Y115765D01*
X51850Y115787D01*
X51809Y115806D01*
X51771Y115825D01*
X51741Y115844D01*
X51714Y115860D01*
X51692Y115877D01*
X51678Y115888D01*
X51667Y115893D01*
X51665Y115896D01*
X51615Y115940D01*
X51569Y115986D01*
X51525Y116035D01*
X51484Y116087D01*
X51449Y116142D01*
X51416Y116194D01*
X51383Y116245D01*
X51356Y116295D01*
X51334Y116341D01*
X51312Y116385D01*
X51296Y116426D01*
X51280Y116458D01*
X51269Y116488D01*
X51261Y116507D01*
X51258Y116521D01*
X51255Y116527D01*
X51230Y116606D01*
X51209Y116690D01*
X51190Y116778D01*
X51173Y116868D01*
X51148Y117045D01*
X51140Y117133D01*
X51132Y117217D01*
X51127Y117297D01*
X51124Y117367D01*
X51121Y117433D01*
X51118Y117490D01*
Y117515D01*
X51116Y117537D01*
Y117556D01*
Y117569D01*
Y117583D01*
Y117591D01*
Y117597D01*
Y117599D01*
Y117703D01*
X51118Y117799D01*
X51124Y117892D01*
X51129Y117976D01*
X51135Y118055D01*
X51143Y118129D01*
X51151Y118197D01*
X51160Y118257D01*
X51168Y118312D01*
X51176Y118358D01*
X51184Y118399D01*
X51190Y118432D01*
X51195Y118459D01*
X51200Y118476D01*
X51203Y118490D01*
Y118492D01*
X51219Y118552D01*
X51239Y118612D01*
X51255Y118667D01*
X51274Y118719D01*
X51296Y118768D01*
X51315Y118814D01*
X51334Y118858D01*
X51353Y118896D01*
X51370Y118932D01*
X51386Y118962D01*
X51400Y118989D01*
X51413Y119011D01*
X51424Y119027D01*
X51433Y119041D01*
X51435Y119049D01*
X51438Y119052D01*
X51495Y119134D01*
X51558Y119205D01*
X51621Y119267D01*
X51681Y119317D01*
X51708Y119339D01*
X51736Y119355D01*
X51757Y119371D01*
X51776Y119385D01*
X51793Y119393D01*
X51804Y119401D01*
X51812Y119407D01*
X51815D01*
X51858Y119429D01*
X51902Y119448D01*
X51995Y119478D01*
X52085Y119500D01*
X52167Y119513D01*
X52205Y119519D01*
X52238Y119524D01*
X52271Y119527D01*
X52295D01*
X52317Y119530D01*
X52347D01*
X52424Y119527D01*
D02*
G37*
G36*
X69680Y114387D02*
X69216D01*
Y114919D01*
X69680D01*
Y114387D01*
D02*
G37*
G36*
X65869D02*
X65405D01*
Y114919D01*
X65869D01*
Y114387D01*
D02*
G37*
G36*
X58700Y113352D02*
X58173D01*
Y113879D01*
X58700D01*
Y113352D01*
D02*
G37*
G36*
X56082Y112274D02*
X54651D01*
Y112741D01*
X56082D01*
Y112274D01*
D02*
G37*
G36*
X71564Y111141D02*
X71129D01*
X70092Y113879D01*
X70570D01*
X71179Y112208D01*
X71217Y112099D01*
X71236Y112047D01*
X71252Y111998D01*
X71266Y111952D01*
X71280Y111908D01*
X71293Y111870D01*
X71304Y111834D01*
X71315Y111802D01*
X71326Y111772D01*
X71331Y111747D01*
X71340Y111725D01*
X71345Y111709D01*
X71348Y111698D01*
X71351Y111690D01*
Y111687D01*
X71381Y111793D01*
X71411Y111894D01*
X71441Y111987D01*
X71454Y112031D01*
X71468Y112069D01*
X71479Y112107D01*
X71490Y112140D01*
X71501Y112167D01*
X71509Y112192D01*
X71517Y112211D01*
X71520Y112227D01*
X71525Y112236D01*
Y112238D01*
X72112Y113879D01*
X72601D01*
X71564Y111141D01*
D02*
G37*
G36*
X74236Y113934D02*
X74334Y113923D01*
X74427Y113904D01*
X74517Y113879D01*
X74599Y113852D01*
X74673Y113819D01*
X74744Y113784D01*
X74807Y113748D01*
X74864Y113713D01*
X74913Y113677D01*
X74954Y113647D01*
X74990Y113617D01*
X75020Y113592D01*
X75039Y113573D01*
X75050Y113562D01*
X75055Y113557D01*
X75118Y113483D01*
X75173Y113401D01*
X75219Y113317D01*
X75260Y113229D01*
X75295Y113139D01*
X75323Y113049D01*
X75347Y112962D01*
X75366Y112880D01*
X75380Y112798D01*
X75391Y112724D01*
X75399Y112659D01*
X75405Y112601D01*
X75407Y112574D01*
Y112552D01*
Y112533D01*
X75410Y112517D01*
Y112503D01*
Y112495D01*
Y112489D01*
Y112487D01*
X75407Y112364D01*
X75394Y112249D01*
X75377Y112143D01*
X75355Y112042D01*
X75328Y111949D01*
X75298Y111864D01*
X75268Y111788D01*
X75235Y111717D01*
X75203Y111654D01*
X75170Y111602D01*
X75143Y111556D01*
X75115Y111518D01*
X75093Y111488D01*
X75074Y111466D01*
X75063Y111455D01*
X75061Y111449D01*
X74992Y111384D01*
X74919Y111327D01*
X74842Y111277D01*
X74763Y111236D01*
X74684Y111201D01*
X74605Y111171D01*
X74525Y111146D01*
X74452Y111127D01*
X74381Y111111D01*
X74315Y111100D01*
X74258Y111092D01*
X74206Y111086D01*
X74165Y111083D01*
X74149D01*
X74135Y111081D01*
X74108D01*
X74020Y111083D01*
X73936Y111092D01*
X73857Y111103D01*
X73783Y111116D01*
X73715Y111135D01*
X73649Y111154D01*
X73592Y111176D01*
X73537Y111198D01*
X73488Y111217D01*
X73447Y111239D01*
X73409Y111258D01*
X73379Y111277D01*
X73354Y111291D01*
X73338Y111302D01*
X73327Y111310D01*
X73324Y111313D01*
X73270Y111359D01*
X73218Y111408D01*
X73172Y111460D01*
X73131Y111512D01*
X73092Y111567D01*
X73057Y111621D01*
X73027Y111676D01*
X73000Y111725D01*
X72975Y111774D01*
X72956Y111821D01*
X72939Y111862D01*
X72926Y111897D01*
X72918Y111924D01*
X72909Y111946D01*
X72904Y111960D01*
Y111965D01*
X73382Y112028D01*
X73404Y111974D01*
X73425Y111924D01*
X73447Y111878D01*
X73472Y111834D01*
X73496Y111796D01*
X73518Y111761D01*
X73543Y111731D01*
X73565Y111700D01*
X73586Y111676D01*
X73606Y111654D01*
X73622Y111638D01*
X73638Y111621D01*
X73652Y111610D01*
X73660Y111602D01*
X73666Y111600D01*
X73668Y111597D01*
X73704Y111572D01*
X73739Y111553D01*
X73775Y111534D01*
X73813Y111520D01*
X73887Y111496D01*
X73955Y111479D01*
X73985Y111474D01*
X74015Y111471D01*
X74040Y111469D01*
X74061Y111466D01*
X74080Y111463D01*
X74105D01*
X74168Y111466D01*
X74228Y111474D01*
X74285Y111485D01*
X74340Y111501D01*
X74392Y111518D01*
X74438Y111539D01*
X74482Y111559D01*
X74520Y111583D01*
X74556Y111605D01*
X74588Y111627D01*
X74616Y111646D01*
X74638Y111662D01*
X74654Y111679D01*
X74668Y111690D01*
X74676Y111698D01*
X74678Y111700D01*
X74719Y111747D01*
X74755Y111799D01*
X74788Y111853D01*
X74815Y111911D01*
X74840Y111968D01*
X74859Y112025D01*
X74878Y112080D01*
X74891Y112137D01*
X74902Y112189D01*
X74913Y112236D01*
X74919Y112279D01*
X74924Y112318D01*
X74930Y112347D01*
Y112372D01*
X74932Y112386D01*
Y112391D01*
X72890D01*
Y112421D01*
X72887Y112446D01*
Y112465D01*
Y112484D01*
Y112498D01*
Y112506D01*
Y112511D01*
Y112514D01*
X72890Y112637D01*
X72901Y112754D01*
X72920Y112864D01*
X72942Y112964D01*
X72969Y113057D01*
X72997Y113145D01*
X73030Y113224D01*
X73062Y113295D01*
X73095Y113358D01*
X73125Y113412D01*
X73155Y113459D01*
X73182Y113497D01*
X73204Y113527D01*
X73221Y113549D01*
X73234Y113560D01*
X73237Y113565D01*
X73305Y113631D01*
X73376Y113688D01*
X73447Y113740D01*
X73524Y113781D01*
X73597Y113819D01*
X73674Y113849D01*
X73745Y113874D01*
X73816Y113893D01*
X73881Y113909D01*
X73941Y113920D01*
X73993Y113928D01*
X74042Y113934D01*
X74080Y113936D01*
X74108Y113939D01*
X74132D01*
X74236Y113934D01*
D02*
G37*
G36*
X79000Y111141D02*
X78500D01*
Y112820D01*
X77853D01*
X77796Y112817D01*
X77747Y112814D01*
X77709Y112812D01*
X77681Y112806D01*
X77660Y112803D01*
X77646Y112801D01*
X77643D01*
X77600Y112787D01*
X77559Y112773D01*
X77520Y112754D01*
X77488Y112738D01*
X77458Y112724D01*
X77436Y112711D01*
X77422Y112702D01*
X77417Y112700D01*
X77373Y112670D01*
X77329Y112631D01*
X77288Y112588D01*
X77247Y112547D01*
X77215Y112509D01*
X77187Y112476D01*
X77176Y112462D01*
X77168Y112454D01*
X77165Y112449D01*
X77163Y112446D01*
X77135Y112410D01*
X77105Y112372D01*
X77045Y112290D01*
X76985Y112203D01*
X76928Y112118D01*
X76903Y112080D01*
X76879Y112045D01*
X76857Y112012D01*
X76838Y111982D01*
X76824Y111960D01*
X76813Y111941D01*
X76805Y111930D01*
X76802Y111927D01*
X76303Y111141D01*
X75678D01*
X76330Y112167D01*
X76404Y112276D01*
X76442Y112326D01*
X76477Y112375D01*
X76513Y112418D01*
X76548Y112460D01*
X76581Y112498D01*
X76611Y112533D01*
X76639Y112566D01*
X76666Y112593D01*
X76688Y112615D01*
X76707Y112637D01*
X76723Y112651D01*
X76734Y112664D01*
X76742Y112670D01*
X76745Y112672D01*
X76789Y112708D01*
X76835Y112741D01*
X76884Y112773D01*
X76933Y112801D01*
X76977Y112825D01*
X76996Y112836D01*
X77013Y112844D01*
X77026Y112853D01*
X77037Y112855D01*
X77043Y112861D01*
X77045D01*
X76947Y112877D01*
X76854Y112896D01*
X76770Y112921D01*
X76690Y112945D01*
X76619Y112975D01*
X76551Y113003D01*
X76494Y113033D01*
X76439Y113063D01*
X76393Y113093D01*
X76355Y113120D01*
X76319Y113145D01*
X76292Y113166D01*
X76270Y113186D01*
X76254Y113199D01*
X76245Y113207D01*
X76243Y113210D01*
X76196Y113262D01*
X76155Y113319D01*
X76120Y113374D01*
X76090Y113431D01*
X76065Y113489D01*
X76043Y113546D01*
X76027Y113601D01*
X76013Y113653D01*
X76003Y113702D01*
X75994Y113745D01*
X75989Y113786D01*
X75983Y113819D01*
Y113849D01*
X75981Y113871D01*
Y113882D01*
Y113887D01*
X75983Y113945D01*
X75986Y114002D01*
X75994Y114057D01*
X76005Y114108D01*
X76016Y114157D01*
X76030Y114204D01*
X76046Y114248D01*
X76060Y114289D01*
X76073Y114324D01*
X76090Y114357D01*
X76104Y114387D01*
X76114Y114411D01*
X76125Y114430D01*
X76131Y114444D01*
X76136Y114452D01*
X76139Y114455D01*
X76169Y114502D01*
X76202Y114545D01*
X76237Y114583D01*
X76270Y114622D01*
X76306Y114654D01*
X76341Y114684D01*
X76376Y114709D01*
X76409Y114734D01*
X76439Y114753D01*
X76469Y114769D01*
X76494Y114785D01*
X76516Y114796D01*
X76535Y114804D01*
X76548Y114810D01*
X76557Y114815D01*
X76559D01*
X76611Y114835D01*
X76669Y114851D01*
X76729Y114865D01*
X76789Y114875D01*
X76917Y114895D01*
X76980Y114900D01*
X77040Y114906D01*
X77100Y114911D01*
X77152Y114914D01*
X77201Y114917D01*
X77245D01*
X77277Y114919D01*
X79000D01*
Y111141D01*
D02*
G37*
G36*
X69680D02*
X69216D01*
Y113879D01*
X69680D01*
Y111141D01*
D02*
G37*
G36*
X65869D02*
X65405D01*
Y113879D01*
X65869D01*
Y111141D01*
D02*
G37*
G36*
X60581Y113934D02*
X60679Y113920D01*
X60769Y113898D01*
X60854Y113868D01*
X60933Y113835D01*
X61004Y113797D01*
X61069Y113756D01*
X61127Y113715D01*
X61179Y113672D01*
X61222Y113631D01*
X61260Y113592D01*
X61293Y113560D01*
X61315Y113530D01*
X61334Y113508D01*
X61345Y113494D01*
X61348Y113489D01*
Y113879D01*
X61765D01*
Y111141D01*
X61301D01*
Y112634D01*
X61299Y112730D01*
X61293Y112817D01*
X61282Y112896D01*
X61269Y112967D01*
X61252Y113033D01*
X61233Y113093D01*
X61214Y113145D01*
X61195Y113188D01*
X61176Y113229D01*
X61157Y113262D01*
X61138Y113289D01*
X61121Y113311D01*
X61108Y113328D01*
X61097Y113341D01*
X61091Y113347D01*
X61089Y113349D01*
X61048Y113382D01*
X61004Y113412D01*
X60960Y113437D01*
X60917Y113459D01*
X60873Y113478D01*
X60832Y113491D01*
X60791Y113505D01*
X60750Y113513D01*
X60715Y113521D01*
X60682Y113527D01*
X60652Y113532D01*
X60624Y113535D01*
X60605Y113538D01*
X60575D01*
X60507Y113535D01*
X60447Y113524D01*
X60392Y113511D01*
X60343Y113497D01*
X60305Y113480D01*
X60278Y113467D01*
X60267Y113461D01*
X60259Y113456D01*
X60256Y113453D01*
X60253D01*
X60204Y113420D01*
X60163Y113382D01*
X60130Y113344D01*
X60103Y113309D01*
X60084Y113276D01*
X60070Y113251D01*
X60065Y113240D01*
X60062Y113232D01*
X60059Y113229D01*
Y113227D01*
X60048Y113199D01*
X60040Y113169D01*
X60027Y113101D01*
X60018Y113033D01*
X60010Y112962D01*
Y112932D01*
X60007Y112902D01*
Y112874D01*
X60005Y112850D01*
Y112831D01*
Y112817D01*
Y112806D01*
Y112803D01*
Y111141D01*
X59541D01*
Y112823D01*
Y112880D01*
Y112935D01*
X59543Y112984D01*
X59546Y113030D01*
Y113071D01*
X59549Y113107D01*
X59552Y113139D01*
X59554Y113169D01*
X59557Y113194D01*
X59560Y113216D01*
X59562Y113235D01*
Y113248D01*
X59565Y113259D01*
X59568Y113268D01*
Y113270D01*
Y113273D01*
X59587Y113344D01*
X59609Y113409D01*
X59631Y113470D01*
X59655Y113519D01*
X59677Y113560D01*
X59688Y113576D01*
X59696Y113590D01*
X59702Y113601D01*
X59707Y113609D01*
X59712Y113611D01*
Y113614D01*
X59756Y113666D01*
X59805Y113713D01*
X59857Y113753D01*
X59906Y113786D01*
X59953Y113813D01*
X59972Y113824D01*
X59988Y113833D01*
X60005Y113841D01*
X60016Y113846D01*
X60021Y113849D01*
X60024D01*
X60103Y113879D01*
X60182Y113901D01*
X60259Y113917D01*
X60327Y113928D01*
X60360Y113931D01*
X60387Y113934D01*
X60414Y113936D01*
X60436Y113939D01*
X60477D01*
X60581Y113934D01*
D02*
G37*
G36*
X58700Y111141D02*
X58173D01*
Y111668D01*
X58700D01*
Y111141D01*
D02*
G37*
G36*
X67692Y113936D02*
X67766Y113931D01*
X67834Y113920D01*
X67894Y113912D01*
X67919Y113906D01*
X67944Y113901D01*
X67965Y113895D01*
X67982Y113890D01*
X67995Y113887D01*
X68006Y113884D01*
X68012Y113882D01*
X68015D01*
X68080Y113860D01*
X68140Y113838D01*
X68189Y113816D01*
X68230Y113794D01*
X68266Y113775D01*
X68290Y113762D01*
X68304Y113751D01*
X68309Y113748D01*
X68361Y113707D01*
X68405Y113663D01*
X68446Y113620D01*
X68479Y113579D01*
X68503Y113543D01*
X68522Y113516D01*
X68530Y113505D01*
X68536Y113497D01*
X68539Y113491D01*
Y113489D01*
X68566Y113429D01*
X68585Y113371D01*
X68601Y113314D01*
X68610Y113262D01*
X68615Y113216D01*
X68618Y113197D01*
Y113180D01*
X68621Y113169D01*
Y113158D01*
Y113153D01*
Y113150D01*
X68615Y113076D01*
X68604Y113008D01*
X68588Y112945D01*
X68569Y112891D01*
X68560Y112866D01*
X68552Y112844D01*
X68544Y112825D01*
X68536Y112812D01*
X68528Y112798D01*
X68525Y112790D01*
X68520Y112784D01*
Y112782D01*
X68479Y112722D01*
X68429Y112670D01*
X68380Y112626D01*
X68334Y112591D01*
X68290Y112560D01*
X68271Y112549D01*
X68255Y112539D01*
X68241Y112533D01*
X68230Y112528D01*
X68225Y112522D01*
X68222D01*
X68181Y112506D01*
X68135Y112487D01*
X68083Y112468D01*
X68028Y112449D01*
X67911Y112410D01*
X67793Y112375D01*
X67736Y112358D01*
X67684Y112345D01*
X67638Y112331D01*
X67594Y112320D01*
X67561Y112312D01*
X67534Y112304D01*
X67518Y112301D01*
X67515Y112298D01*
X67512D01*
X67444Y112282D01*
X67381Y112266D01*
X67326Y112249D01*
X67277Y112236D01*
X67234Y112222D01*
X67193Y112208D01*
X67160Y112197D01*
X67130Y112187D01*
X67108Y112176D01*
X67086Y112167D01*
X67070Y112159D01*
X67056Y112154D01*
X67048Y112148D01*
X67043Y112145D01*
X67037Y112143D01*
X67013Y112126D01*
X66991Y112107D01*
X66972Y112085D01*
X66955Y112066D01*
X66931Y112025D01*
X66914Y111987D01*
X66906Y111952D01*
X66901Y111922D01*
X66898Y111914D01*
Y111905D01*
Y111900D01*
Y111897D01*
X66901Y111864D01*
X66903Y111834D01*
X66912Y111804D01*
X66922Y111777D01*
X66947Y111722D01*
X66974Y111679D01*
X67004Y111643D01*
X67029Y111616D01*
X67040Y111605D01*
X67048Y111597D01*
X67051Y111594D01*
X67054Y111591D01*
X67084Y111569D01*
X67119Y111550D01*
X67193Y111518D01*
X67272Y111496D01*
X67348Y111479D01*
X67387Y111474D01*
X67419Y111471D01*
X67449Y111466D01*
X67477D01*
X67498Y111463D01*
X67528D01*
X67586Y111466D01*
X67641Y111469D01*
X67692Y111477D01*
X67742Y111485D01*
X67785Y111496D01*
X67826Y111509D01*
X67864Y111523D01*
X67897Y111537D01*
X67927Y111548D01*
X67952Y111561D01*
X67974Y111575D01*
X67993Y111586D01*
X68006Y111594D01*
X68017Y111602D01*
X68023Y111605D01*
X68025Y111608D01*
X68055Y111638D01*
X68085Y111668D01*
X68110Y111700D01*
X68132Y111736D01*
X68170Y111807D01*
X68197Y111875D01*
X68208Y111905D01*
X68217Y111935D01*
X68225Y111963D01*
X68230Y111984D01*
X68233Y112004D01*
X68236Y112020D01*
X68238Y112028D01*
Y112031D01*
X68697Y111960D01*
X68681Y111881D01*
X68659Y111807D01*
X68637Y111736D01*
X68610Y111673D01*
X68580Y111613D01*
X68552Y111559D01*
X68520Y111512D01*
X68489Y111469D01*
X68462Y111427D01*
X68435Y111395D01*
X68408Y111367D01*
X68386Y111343D01*
X68369Y111327D01*
X68353Y111313D01*
X68345Y111305D01*
X68342Y111302D01*
X68287Y111264D01*
X68227Y111228D01*
X68162Y111198D01*
X68096Y111174D01*
X68028Y111152D01*
X67960Y111135D01*
X67894Y111119D01*
X67829Y111108D01*
X67766Y111100D01*
X67709Y111092D01*
X67660Y111089D01*
X67613Y111083D01*
X67578D01*
X67550Y111081D01*
X67526D01*
X67408Y111086D01*
X67299Y111097D01*
X67250Y111108D01*
X67201Y111116D01*
X67157Y111127D01*
X67116Y111138D01*
X67081Y111146D01*
X67048Y111157D01*
X67018Y111168D01*
X66993Y111176D01*
X66974Y111182D01*
X66961Y111187D01*
X66953Y111193D01*
X66950D01*
X66903Y111215D01*
X66860Y111239D01*
X66819Y111264D01*
X66781Y111288D01*
X66745Y111316D01*
X66712Y111343D01*
X66682Y111367D01*
X66658Y111392D01*
X66633Y111417D01*
X66614Y111438D01*
X66595Y111458D01*
X66581Y111477D01*
X66570Y111490D01*
X66562Y111501D01*
X66559Y111507D01*
X66557Y111509D01*
X66532Y111548D01*
X66510Y111586D01*
X66494Y111627D01*
X66478Y111665D01*
X66453Y111739D01*
X66436Y111804D01*
X66431Y111834D01*
X66428Y111862D01*
X66423Y111886D01*
Y111908D01*
X66420Y111924D01*
Y111935D01*
Y111943D01*
Y111946D01*
X66426Y112031D01*
X66436Y112107D01*
X66456Y112173D01*
X66467Y112203D01*
X66475Y112230D01*
X66486Y112255D01*
X66497Y112276D01*
X66505Y112296D01*
X66516Y112312D01*
X66521Y112323D01*
X66527Y112331D01*
X66532Y112337D01*
Y112339D01*
X66579Y112397D01*
X66628Y112446D01*
X66677Y112487D01*
X66726Y112522D01*
X66770Y112549D01*
X66789Y112560D01*
X66805Y112569D01*
X66819Y112577D01*
X66830Y112582D01*
X66835Y112585D01*
X66838D01*
X66879Y112601D01*
X66922Y112618D01*
X66974Y112637D01*
X67026Y112653D01*
X67141Y112691D01*
X67256Y112724D01*
X67307Y112741D01*
X67359Y112754D01*
X67406Y112768D01*
X67447Y112779D01*
X67479Y112787D01*
X67504Y112795D01*
X67520Y112798D01*
X67523Y112801D01*
X67526D01*
X67586Y112817D01*
X67643Y112833D01*
X67692Y112847D01*
X67736Y112858D01*
X67774Y112869D01*
X67807Y112880D01*
X67837Y112888D01*
X67862Y112893D01*
X67881Y112902D01*
X67897Y112904D01*
X67911Y112910D01*
X67922Y112913D01*
X67930Y112915D01*
X67935Y112918D01*
X67938D01*
X67982Y112937D01*
X68017Y112959D01*
X68050Y112978D01*
X68075Y112997D01*
X68094Y113016D01*
X68107Y113030D01*
X68116Y113038D01*
X68118Y113041D01*
X68137Y113068D01*
X68151Y113098D01*
X68159Y113126D01*
X68165Y113150D01*
X68170Y113172D01*
X68173Y113188D01*
Y113202D01*
Y113205D01*
X68170Y113229D01*
X68167Y113257D01*
X68151Y113303D01*
X68129Y113344D01*
X68105Y113380D01*
X68080Y113409D01*
X68058Y113431D01*
X68042Y113445D01*
X68039Y113451D01*
X68036D01*
X68009Y113470D01*
X67976Y113486D01*
X67944Y113500D01*
X67908Y113513D01*
X67832Y113532D01*
X67755Y113543D01*
X67720Y113549D01*
X67687Y113551D01*
X67657Y113554D01*
X67629D01*
X67608Y113557D01*
X67528D01*
X67482Y113551D01*
X67439Y113546D01*
X67397Y113538D01*
X67362Y113530D01*
X67326Y113519D01*
X67296Y113508D01*
X67266Y113497D01*
X67242Y113486D01*
X67220Y113475D01*
X67204Y113464D01*
X67187Y113456D01*
X67176Y113448D01*
X67165Y113442D01*
X67163Y113440D01*
X67160Y113437D01*
X67133Y113415D01*
X67108Y113390D01*
X67067Y113336D01*
X67037Y113281D01*
X67013Y113229D01*
X66996Y113183D01*
X66988Y113161D01*
X66985Y113145D01*
X66980Y113128D01*
Y113117D01*
X66977Y113112D01*
Y113109D01*
X66524Y113172D01*
X66543Y113268D01*
X66557Y113309D01*
X66570Y113349D01*
X66581Y113388D01*
X66595Y113423D01*
X66609Y113453D01*
X66622Y113483D01*
X66636Y113508D01*
X66647Y113532D01*
X66658Y113551D01*
X66669Y113565D01*
X66677Y113579D01*
X66682Y113587D01*
X66685Y113592D01*
X66688Y113595D01*
X66710Y113625D01*
X66737Y113653D01*
X66791Y113702D01*
X66852Y113745D01*
X66909Y113781D01*
X66963Y113808D01*
X66985Y113819D01*
X67004Y113830D01*
X67021Y113838D01*
X67034Y113841D01*
X67043Y113846D01*
X67045D01*
X67138Y113876D01*
X67236Y113901D01*
X67332Y113917D01*
X67378Y113923D01*
X67419Y113928D01*
X67460Y113931D01*
X67498Y113934D01*
X67531Y113936D01*
X67559Y113939D01*
X67613D01*
X67692Y113936D01*
D02*
G37*
G36*
X63685D02*
X63775Y113926D01*
X63859Y113912D01*
X63939Y113893D01*
X64015Y113868D01*
X64086Y113844D01*
X64152Y113813D01*
X64212Y113786D01*
X64266Y113759D01*
X64313Y113729D01*
X64354Y113704D01*
X64389Y113682D01*
X64416Y113661D01*
X64435Y113647D01*
X64446Y113636D01*
X64452Y113633D01*
X64526Y113560D01*
X64591Y113480D01*
X64646Y113393D01*
X64695Y113303D01*
X64736Y113210D01*
X64768Y113117D01*
X64798Y113025D01*
X64820Y112935D01*
X64837Y112847D01*
X64850Y112768D01*
X64859Y112697D01*
X64864Y112664D01*
X64867Y112634D01*
Y112607D01*
X64869Y112582D01*
Y112560D01*
X64872Y112541D01*
Y112528D01*
Y112517D01*
Y112511D01*
Y112509D01*
X64869Y112383D01*
X64856Y112263D01*
X64840Y112154D01*
X64818Y112050D01*
X64790Y111954D01*
X64760Y111867D01*
X64728Y111788D01*
X64695Y111717D01*
X64662Y111654D01*
X64632Y111600D01*
X64602Y111553D01*
X64575Y111515D01*
X64553Y111485D01*
X64536Y111463D01*
X64523Y111452D01*
X64520Y111447D01*
X64452Y111381D01*
X64378Y111327D01*
X64302Y111277D01*
X64225Y111236D01*
X64149Y111201D01*
X64070Y111171D01*
X63996Y111146D01*
X63922Y111127D01*
X63854Y111111D01*
X63791Y111100D01*
X63737Y111092D01*
X63687Y111086D01*
X63647Y111083D01*
X63630D01*
X63616Y111081D01*
X63592D01*
X63524Y111083D01*
X63461Y111089D01*
X63398Y111097D01*
X63335Y111108D01*
X63278Y111119D01*
X63223Y111133D01*
X63174Y111149D01*
X63125Y111165D01*
X63084Y111179D01*
X63046Y111196D01*
X63013Y111209D01*
X62983Y111223D01*
X62961Y111231D01*
X62945Y111239D01*
X62934Y111245D01*
X62931Y111247D01*
X62877Y111280D01*
X62825Y111316D01*
X62776Y111354D01*
X62732Y111392D01*
X62691Y111430D01*
X62653Y111469D01*
X62617Y111507D01*
X62587Y111545D01*
X62560Y111580D01*
X62535Y111613D01*
X62516Y111641D01*
X62500Y111668D01*
X62486Y111687D01*
X62478Y111703D01*
X62473Y111714D01*
X62470Y111717D01*
X62443Y111777D01*
X62415Y111840D01*
X62396Y111905D01*
X62377Y111974D01*
X62361Y112045D01*
X62347Y112113D01*
X62336Y112181D01*
X62328Y112247D01*
X62322Y112307D01*
X62317Y112364D01*
X62314Y112416D01*
X62312Y112460D01*
X62309Y112495D01*
Y112525D01*
Y112533D01*
Y112541D01*
Y112544D01*
Y112547D01*
X62312Y112667D01*
X62325Y112779D01*
X62341Y112883D01*
X62366Y112981D01*
X62393Y113074D01*
X62423Y113156D01*
X62456Y113232D01*
X62489Y113303D01*
X62522Y113363D01*
X62555Y113418D01*
X62585Y113461D01*
X62612Y113500D01*
X62636Y113530D01*
X62653Y113551D01*
X62664Y113562D01*
X62669Y113568D01*
X62737Y113633D01*
X62811Y113691D01*
X62888Y113740D01*
X62964Y113784D01*
X63040Y113819D01*
X63117Y113849D01*
X63193Y113874D01*
X63264Y113893D01*
X63332Y113909D01*
X63395Y113920D01*
X63450Y113928D01*
X63499Y113934D01*
X63537Y113936D01*
X63554Y113939D01*
X63592D01*
X63685Y113936D01*
D02*
G37*
G36*
X49284Y110322D02*
X49377Y110314D01*
X49464Y110301D01*
X49546Y110282D01*
X49622Y110260D01*
X49694Y110235D01*
X49756Y110211D01*
X49816Y110186D01*
X49868Y110159D01*
X49915Y110134D01*
X49953Y110109D01*
X49986Y110088D01*
X50010Y110071D01*
X50029Y110055D01*
X50040Y110047D01*
X50043Y110044D01*
X50100Y109989D01*
X50149Y109929D01*
X50196Y109866D01*
X50234Y109801D01*
X50270Y109733D01*
X50300Y109664D01*
X50324Y109599D01*
X50346Y109533D01*
X50362Y109473D01*
X50376Y109416D01*
X50387Y109364D01*
X50395Y109320D01*
X50403Y109285D01*
X50406Y109258D01*
Y109247D01*
X50409Y109239D01*
Y109236D01*
Y109233D01*
X49931Y109184D01*
X49928Y109249D01*
X49923Y109310D01*
X49912Y109367D01*
X49901Y109422D01*
X49885Y109471D01*
X49868Y109514D01*
X49849Y109558D01*
X49830Y109593D01*
X49814Y109626D01*
X49795Y109656D01*
X49778Y109681D01*
X49762Y109703D01*
X49751Y109716D01*
X49740Y109730D01*
X49734Y109736D01*
X49732Y109738D01*
X49694Y109774D01*
X49650Y109804D01*
X49606Y109831D01*
X49562Y109856D01*
X49516Y109875D01*
X49472Y109891D01*
X49429Y109905D01*
X49388Y109916D01*
X49347Y109924D01*
X49311Y109929D01*
X49279Y109935D01*
X49248Y109938D01*
X49227Y109940D01*
X49194D01*
X49136Y109938D01*
X49082Y109932D01*
X49030Y109924D01*
X48981Y109910D01*
X48937Y109897D01*
X48894Y109880D01*
X48855Y109864D01*
X48820Y109845D01*
X48790Y109828D01*
X48763Y109809D01*
X48738Y109793D01*
X48719Y109779D01*
X48702Y109766D01*
X48691Y109757D01*
X48686Y109752D01*
X48683Y109749D01*
X48648Y109714D01*
X48618Y109675D01*
X48590Y109637D01*
X48569Y109596D01*
X48550Y109558D01*
X48533Y109520D01*
X48520Y109482D01*
X48509Y109446D01*
X48500Y109413D01*
X48495Y109383D01*
X48489Y109356D01*
X48487Y109331D01*
X48484Y109312D01*
Y109299D01*
Y109288D01*
Y109285D01*
X48487Y109236D01*
X48492Y109187D01*
X48503Y109138D01*
X48517Y109088D01*
X48552Y108993D01*
X48574Y108949D01*
X48593Y108908D01*
X48612Y108870D01*
X48634Y108835D01*
X48651Y108805D01*
X48667Y108777D01*
X48683Y108758D01*
X48694Y108742D01*
X48700Y108731D01*
X48702Y108728D01*
X48746Y108671D01*
X48801Y108608D01*
X48858Y108545D01*
X48924Y108480D01*
X48989Y108411D01*
X49060Y108346D01*
X49128Y108280D01*
X49199Y108218D01*
X49265Y108158D01*
X49328Y108103D01*
X49382Y108051D01*
X49434Y108010D01*
X49475Y107975D01*
X49491Y107961D01*
X49505Y107947D01*
X49516Y107939D01*
X49524Y107931D01*
X49530Y107928D01*
X49532Y107925D01*
X49603Y107865D01*
X49672Y107808D01*
X49734Y107754D01*
X49795Y107702D01*
X49849Y107650D01*
X49898Y107603D01*
X49942Y107560D01*
X49983Y107519D01*
X50021Y107483D01*
X50051Y107450D01*
X50078Y107423D01*
X50100Y107399D01*
X50117Y107379D01*
X50128Y107366D01*
X50136Y107358D01*
X50138Y107355D01*
X50212Y107262D01*
X50275Y107172D01*
X50327Y107087D01*
X50351Y107049D01*
X50371Y107011D01*
X50387Y106978D01*
X50403Y106948D01*
X50417Y106921D01*
X50425Y106896D01*
X50433Y106877D01*
X50439Y106863D01*
X50444Y106855D01*
Y106853D01*
X50463Y106795D01*
X50477Y106738D01*
X50485Y106683D01*
X50491Y106637D01*
X50493Y106593D01*
X50496Y106577D01*
Y106561D01*
Y106550D01*
Y106541D01*
Y106536D01*
Y106533D01*
X48001Y106533D01*
Y106978D01*
X49852D01*
X49822Y107025D01*
X49789Y107071D01*
X49756Y107112D01*
X49726Y107150D01*
X49699Y107180D01*
X49677Y107205D01*
X49663Y107221D01*
X49658Y107227D01*
X49633Y107254D01*
X49601Y107284D01*
X49565Y107317D01*
X49524Y107355D01*
X49481Y107393D01*
X49437Y107434D01*
X49344Y107513D01*
X49300Y107552D01*
X49259Y107587D01*
X49224Y107620D01*
X49188Y107647D01*
X49161Y107672D01*
X49142Y107688D01*
X49128Y107702D01*
X49123Y107704D01*
X49033Y107781D01*
X48948Y107854D01*
X48872Y107923D01*
X48801Y107985D01*
X48735Y108046D01*
X48678Y108100D01*
X48623Y108149D01*
X48577Y108193D01*
X48536Y108234D01*
X48503Y108270D01*
X48473Y108300D01*
X48449Y108324D01*
X48430Y108343D01*
X48419Y108357D01*
X48410Y108365D01*
X48408Y108368D01*
X48369Y108414D01*
X48331Y108458D01*
X48298Y108502D01*
X48268Y108543D01*
X48214Y108622D01*
X48192Y108657D01*
X48173Y108690D01*
X48154Y108720D01*
X48140Y108747D01*
X48126Y108772D01*
X48118Y108791D01*
X48110Y108807D01*
X48105Y108818D01*
X48099Y108826D01*
Y108829D01*
X48069Y108911D01*
X48044Y108990D01*
X48028Y109067D01*
X48017Y109135D01*
X48015Y109165D01*
X48012Y109192D01*
X48009Y109214D01*
X48006Y109236D01*
Y109252D01*
Y109263D01*
Y109271D01*
Y109274D01*
X48009Y109356D01*
X48020Y109435D01*
X48036Y109509D01*
X48055Y109580D01*
X48080Y109645D01*
X48107Y109708D01*
X48137Y109766D01*
X48165Y109817D01*
X48195Y109864D01*
X48225Y109905D01*
X48252Y109940D01*
X48277Y109968D01*
X48296Y109992D01*
X48312Y110009D01*
X48323Y110019D01*
X48326Y110022D01*
X48388Y110077D01*
X48454Y110123D01*
X48522Y110161D01*
X48593Y110197D01*
X48664Y110227D01*
X48738Y110251D01*
X48806Y110271D01*
X48875Y110287D01*
X48937Y110301D01*
X48997Y110309D01*
X49049Y110317D01*
X49096Y110320D01*
X49134Y110322D01*
X49161Y110325D01*
X49186D01*
X49284Y110322D01*
D02*
G37*
G36*
X43414D02*
X43507Y110314D01*
X43595Y110301D01*
X43676Y110282D01*
X43753Y110260D01*
X43824Y110235D01*
X43887Y110211D01*
X43947Y110186D01*
X43999Y110159D01*
X44045Y110134D01*
X44083Y110109D01*
X44116Y110088D01*
X44141Y110071D01*
X44160Y110055D01*
X44171Y110047D01*
X44173Y110044D01*
X44231Y109989D01*
X44280Y109929D01*
X44326Y109866D01*
X44365Y109801D01*
X44400Y109733D01*
X44430Y109664D01*
X44455Y109599D01*
X44476Y109533D01*
X44493Y109473D01*
X44506Y109416D01*
X44517Y109364D01*
X44526Y109320D01*
X44534Y109285D01*
X44537Y109258D01*
Y109247D01*
X44539Y109239D01*
Y109236D01*
Y109233D01*
X44061Y109184D01*
X44059Y109249D01*
X44053Y109310D01*
X44042Y109367D01*
X44031Y109422D01*
X44015Y109471D01*
X43999Y109514D01*
X43980Y109558D01*
X43960Y109593D01*
X43944Y109626D01*
X43925Y109656D01*
X43909Y109681D01*
X43892Y109703D01*
X43881Y109716D01*
X43870Y109730D01*
X43865Y109736D01*
X43862Y109738D01*
X43824Y109774D01*
X43780Y109804D01*
X43737Y109831D01*
X43693Y109856D01*
X43646Y109875D01*
X43603Y109891D01*
X43559Y109905D01*
X43518Y109916D01*
X43477Y109924D01*
X43442Y109929D01*
X43409Y109935D01*
X43379Y109938D01*
X43357Y109940D01*
X43324D01*
X43267Y109938D01*
X43212Y109932D01*
X43161Y109924D01*
X43111Y109910D01*
X43068Y109897D01*
X43024Y109880D01*
X42986Y109864D01*
X42950Y109845D01*
X42920Y109828D01*
X42893Y109809D01*
X42869Y109793D01*
X42849Y109779D01*
X42833Y109766D01*
X42822Y109757D01*
X42817Y109752D01*
X42814Y109749D01*
X42778Y109714D01*
X42748Y109675D01*
X42721Y109637D01*
X42699Y109596D01*
X42680Y109558D01*
X42664Y109520D01*
X42650Y109482D01*
X42639Y109446D01*
X42631Y109413D01*
X42625Y109383D01*
X42620Y109356D01*
X42617Y109331D01*
X42615Y109312D01*
Y109299D01*
Y109288D01*
Y109285D01*
X42617Y109236D01*
X42623Y109187D01*
X42634Y109138D01*
X42647Y109088D01*
X42683Y108993D01*
X42705Y108949D01*
X42724Y108908D01*
X42743Y108870D01*
X42765Y108835D01*
X42781Y108805D01*
X42797Y108777D01*
X42814Y108758D01*
X42825Y108742D01*
X42830Y108731D01*
X42833Y108728D01*
X42877Y108671D01*
X42931Y108608D01*
X42989Y108545D01*
X43054Y108480D01*
X43120Y108411D01*
X43191Y108346D01*
X43259Y108280D01*
X43330Y108218D01*
X43395Y108158D01*
X43458Y108103D01*
X43513Y108051D01*
X43565Y108010D01*
X43606Y107975D01*
X43622Y107961D01*
X43636Y107947D01*
X43646Y107939D01*
X43655Y107931D01*
X43660Y107928D01*
X43663Y107925D01*
X43734Y107865D01*
X43802Y107808D01*
X43865Y107754D01*
X43925Y107702D01*
X43980Y107650D01*
X44029Y107603D01*
X44072Y107560D01*
X44113Y107519D01*
X44151Y107483D01*
X44182Y107450D01*
X44209Y107423D01*
X44231Y107399D01*
X44247Y107379D01*
X44258Y107366D01*
X44266Y107358D01*
X44269Y107355D01*
X44343Y107262D01*
X44405Y107172D01*
X44457Y107087D01*
X44482Y107049D01*
X44501Y107011D01*
X44517Y106978D01*
X44534Y106948D01*
X44547Y106921D01*
X44556Y106896D01*
X44564Y106877D01*
X44569Y106863D01*
X44575Y106855D01*
Y106853D01*
X44594Y106795D01*
X44607Y106738D01*
X44616Y106683D01*
X44621Y106637D01*
X44624Y106593D01*
X44627Y106577D01*
Y106561D01*
Y106550D01*
Y106541D01*
Y106536D01*
Y106533D01*
X42131D01*
Y106978D01*
X43982D01*
X43952Y107025D01*
X43920Y107071D01*
X43887Y107112D01*
X43857Y107150D01*
X43829Y107180D01*
X43808Y107205D01*
X43794Y107221D01*
X43788Y107227D01*
X43764Y107254D01*
X43731Y107284D01*
X43696Y107317D01*
X43655Y107355D01*
X43611Y107393D01*
X43567Y107434D01*
X43475Y107513D01*
X43431Y107552D01*
X43390Y107587D01*
X43354Y107620D01*
X43319Y107647D01*
X43292Y107672D01*
X43273Y107688D01*
X43259Y107702D01*
X43253Y107704D01*
X43163Y107781D01*
X43079Y107854D01*
X43002Y107923D01*
X42931Y107985D01*
X42866Y108046D01*
X42808Y108100D01*
X42754Y108149D01*
X42707Y108193D01*
X42666Y108234D01*
X42634Y108270D01*
X42604Y108300D01*
X42579Y108324D01*
X42560Y108343D01*
X42549Y108357D01*
X42541Y108365D01*
X42538Y108368D01*
X42500Y108414D01*
X42462Y108458D01*
X42429Y108502D01*
X42399Y108543D01*
X42344Y108622D01*
X42322Y108657D01*
X42303Y108690D01*
X42284Y108720D01*
X42271Y108747D01*
X42257Y108772D01*
X42249Y108791D01*
X42241Y108807D01*
X42235Y108818D01*
X42230Y108826D01*
Y108829D01*
X42200Y108911D01*
X42175Y108990D01*
X42159Y109067D01*
X42148Y109135D01*
X42145Y109165D01*
X42142Y109192D01*
X42140Y109214D01*
X42137Y109236D01*
Y109252D01*
Y109263D01*
Y109271D01*
Y109274D01*
X42140Y109356D01*
X42151Y109435D01*
X42167Y109509D01*
X42186Y109580D01*
X42211Y109645D01*
X42238Y109708D01*
X42268Y109766D01*
X42295Y109817D01*
X42325Y109864D01*
X42355Y109905D01*
X42382Y109940D01*
X42407Y109968D01*
X42426Y109992D01*
X42443Y110009D01*
X42454Y110019D01*
X42456Y110022D01*
X42519Y110077D01*
X42584Y110123D01*
X42653Y110161D01*
X42724Y110197D01*
X42795Y110227D01*
X42869Y110251D01*
X42937Y110271D01*
X43005Y110287D01*
X43068Y110301D01*
X43128Y110309D01*
X43180Y110317D01*
X43226Y110320D01*
X43264Y110322D01*
X43292Y110325D01*
X43316D01*
X43414Y110322D01*
D02*
G37*
G36*
X67782Y108745D02*
X67256D01*
Y109271D01*
X67782D01*
Y108745D01*
D02*
G37*
G36*
X60949Y110320D02*
X61053Y110306D01*
X61149Y110284D01*
X61241Y110257D01*
X61326Y110224D01*
X61402Y110189D01*
X61473Y110148D01*
X61539Y110109D01*
X61596Y110069D01*
X61648Y110028D01*
X61689Y109992D01*
X61725Y109959D01*
X61755Y109932D01*
X61774Y109910D01*
X61785Y109897D01*
X61790Y109891D01*
X61826Y109842D01*
X61861Y109790D01*
X61894Y109738D01*
X61924Y109681D01*
X61978Y109561D01*
X62025Y109432D01*
X62063Y109301D01*
X62096Y109170D01*
X62123Y109037D01*
X62142Y108908D01*
X62161Y108785D01*
X62172Y108674D01*
X62178Y108619D01*
X62181Y108570D01*
X62186Y108521D01*
X62189Y108480D01*
Y108439D01*
X62191Y108403D01*
Y108373D01*
X62194Y108349D01*
Y108327D01*
Y108313D01*
Y108302D01*
Y108300D01*
Y108209D01*
X62189Y108122D01*
X62186Y108040D01*
X62178Y107958D01*
X62170Y107882D01*
X62161Y107808D01*
X62150Y107737D01*
X62137Y107669D01*
X62123Y107603D01*
X62110Y107541D01*
X62093Y107483D01*
X62080Y107426D01*
X62063Y107374D01*
X62044Y107322D01*
X62028Y107276D01*
X62011Y107232D01*
X61995Y107191D01*
X61976Y107150D01*
X61959Y107115D01*
X61943Y107082D01*
X61929Y107052D01*
X61913Y107025D01*
X61886Y106978D01*
X61861Y106943D01*
X61845Y106915D01*
X61831Y106902D01*
X61828Y106896D01*
X61757Y106823D01*
X61684Y106757D01*
X61604Y106700D01*
X61525Y106651D01*
X61446Y106610D01*
X61370Y106574D01*
X61293Y106547D01*
X61220Y106525D01*
X61149Y106506D01*
X61086Y106492D01*
X61028Y106484D01*
X60979Y106476D01*
X60938Y106473D01*
X60922D01*
X60908Y106470D01*
X60884D01*
X60821Y106473D01*
X60758Y106479D01*
X60701Y106484D01*
X60644Y106495D01*
X60592Y106509D01*
X60540Y106522D01*
X60493Y106536D01*
X60452Y106552D01*
X60411Y106566D01*
X60379Y106580D01*
X60349Y106593D01*
X60321Y106607D01*
X60302Y106618D01*
X60286Y106623D01*
X60278Y106629D01*
X60275Y106632D01*
X60226Y106664D01*
X60179Y106697D01*
X60136Y106735D01*
X60097Y106773D01*
X60059Y106812D01*
X60024Y106850D01*
X59994Y106888D01*
X59964Y106926D01*
X59939Y106962D01*
X59917Y106992D01*
X59898Y107022D01*
X59882Y107049D01*
X59871Y107068D01*
X59863Y107085D01*
X59857Y107096D01*
X59855Y107098D01*
X59827Y107156D01*
X59803Y107216D01*
X59784Y107273D01*
X59764Y107330D01*
X59748Y107388D01*
X59737Y107442D01*
X59726Y107494D01*
X59718Y107543D01*
X59712Y107590D01*
X59707Y107631D01*
X59704Y107666D01*
X59702Y107699D01*
X59699Y107723D01*
Y107743D01*
Y107756D01*
Y107759D01*
X59702Y107857D01*
X59712Y107953D01*
X59729Y108040D01*
X59751Y108125D01*
X59775Y108204D01*
X59803Y108275D01*
X59833Y108343D01*
X59863Y108403D01*
X59893Y108458D01*
X59923Y108504D01*
X59950Y108545D01*
X59975Y108578D01*
X59996Y108605D01*
X60013Y108624D01*
X60024Y108638D01*
X60027Y108641D01*
X60089Y108701D01*
X60155Y108755D01*
X60220Y108799D01*
X60286Y108840D01*
X60354Y108873D01*
X60420Y108900D01*
X60482Y108925D01*
X60543Y108941D01*
X60600Y108955D01*
X60652Y108966D01*
X60698Y108974D01*
X60739Y108979D01*
X60769Y108982D01*
X60794Y108985D01*
X60865D01*
X60914Y108979D01*
X61009Y108966D01*
X61094Y108944D01*
X61135Y108933D01*
X61170Y108922D01*
X61206Y108911D01*
X61236Y108900D01*
X61260Y108889D01*
X61285Y108878D01*
X61301Y108870D01*
X61315Y108865D01*
X61323Y108862D01*
X61326Y108859D01*
X61370Y108835D01*
X61413Y108807D01*
X61490Y108747D01*
X61561Y108684D01*
X61591Y108654D01*
X61618Y108624D01*
X61645Y108594D01*
X61667Y108567D01*
X61686Y108543D01*
X61703Y108521D01*
X61716Y108504D01*
X61725Y108491D01*
X61730Y108482D01*
X61733Y108480D01*
X61730Y108583D01*
X61727Y108682D01*
X61719Y108772D01*
X61711Y108856D01*
X61703Y108933D01*
X61692Y109007D01*
X61678Y109072D01*
X61667Y109129D01*
X61656Y109181D01*
X61645Y109228D01*
X61634Y109266D01*
X61624Y109296D01*
X61615Y109320D01*
X61610Y109340D01*
X61604Y109351D01*
Y109353D01*
X61580Y109408D01*
X61553Y109460D01*
X61525Y109509D01*
X61495Y109555D01*
X61468Y109596D01*
X61438Y109634D01*
X61411Y109670D01*
X61383Y109700D01*
X61356Y109727D01*
X61334Y109752D01*
X61312Y109771D01*
X61293Y109787D01*
X61280Y109801D01*
X61266Y109809D01*
X61260Y109815D01*
X61258Y109817D01*
X61225Y109839D01*
X61192Y109858D01*
X61127Y109891D01*
X61061Y109913D01*
X61001Y109927D01*
X60971Y109932D01*
X60947Y109938D01*
X60925Y109940D01*
X60906D01*
X60889Y109943D01*
X60867D01*
X60818Y109940D01*
X60769Y109935D01*
X60723Y109924D01*
X60679Y109913D01*
X60638Y109897D01*
X60602Y109880D01*
X60567Y109861D01*
X60534Y109845D01*
X60504Y109826D01*
X60480Y109806D01*
X60458Y109790D01*
X60439Y109774D01*
X60425Y109763D01*
X60414Y109752D01*
X60409Y109746D01*
X60406Y109744D01*
X60384Y109719D01*
X60365Y109692D01*
X60330Y109629D01*
X60299Y109564D01*
X60275Y109501D01*
X60253Y109441D01*
X60248Y109416D01*
X60239Y109391D01*
X60234Y109375D01*
X60231Y109359D01*
X60229Y109351D01*
Y109348D01*
X59767Y109383D01*
X59781Y109462D01*
X59797Y109539D01*
X59819Y109610D01*
X59846Y109675D01*
X59871Y109738D01*
X59901Y109795D01*
X59931Y109847D01*
X59961Y109894D01*
X59991Y109935D01*
X60018Y109970D01*
X60043Y110003D01*
X60065Y110028D01*
X60084Y110047D01*
X60097Y110063D01*
X60108Y110071D01*
X60111Y110074D01*
X60166Y110118D01*
X60223Y110156D01*
X60283Y110191D01*
X60346Y110219D01*
X60406Y110243D01*
X60466Y110265D01*
X60526Y110282D01*
X60581Y110295D01*
X60635Y110303D01*
X60684Y110311D01*
X60728Y110317D01*
X60766Y110322D01*
X60796D01*
X60821Y110325D01*
X60840D01*
X60949Y110320D01*
D02*
G37*
G36*
X74220Y109326D02*
X74280Y109323D01*
X74337Y109315D01*
X74392Y109310D01*
X74444Y109301D01*
X74493Y109291D01*
X74537Y109282D01*
X74575Y109274D01*
X74610Y109263D01*
X74640Y109255D01*
X74668Y109249D01*
X74687Y109241D01*
X74703Y109239D01*
X74711Y109233D01*
X74714D01*
X74763Y109214D01*
X74809Y109195D01*
X74850Y109173D01*
X74891Y109149D01*
X74927Y109127D01*
X74960Y109105D01*
X74992Y109080D01*
X75020Y109058D01*
X75044Y109039D01*
X75063Y109020D01*
X75082Y109001D01*
X75096Y108987D01*
X75110Y108974D01*
X75118Y108966D01*
X75121Y108960D01*
X75123Y108957D01*
X75173Y108886D01*
X75213Y108807D01*
X75249Y108731D01*
X75276Y108654D01*
X75290Y108622D01*
X75298Y108589D01*
X75306Y108562D01*
X75314Y108537D01*
X75320Y108515D01*
X75323Y108502D01*
X75325Y108491D01*
Y108488D01*
X74872Y108425D01*
X74859Y108477D01*
X74842Y108526D01*
X74823Y108570D01*
X74804Y108611D01*
X74788Y108646D01*
X74769Y108679D01*
X74749Y108709D01*
X74730Y108736D01*
X74711Y108758D01*
X74695Y108777D01*
X74681Y108794D01*
X74668Y108807D01*
X74657Y108816D01*
X74648Y108824D01*
X74646Y108829D01*
X74643D01*
X74613Y108851D01*
X74577Y108867D01*
X74501Y108897D01*
X74422Y108919D01*
X74343Y108933D01*
X74307Y108936D01*
X74272Y108941D01*
X74242Y108944D01*
X74214D01*
X74190Y108947D01*
X74160D01*
X74097Y108944D01*
X74037Y108941D01*
X73982Y108933D01*
X73930Y108922D01*
X73881Y108911D01*
X73840Y108897D01*
X73799Y108881D01*
X73764Y108867D01*
X73734Y108854D01*
X73707Y108837D01*
X73685Y108824D01*
X73666Y108813D01*
X73652Y108802D01*
X73641Y108796D01*
X73636Y108791D01*
X73633Y108788D01*
X73608Y108764D01*
X73589Y108739D01*
X73570Y108709D01*
X73556Y108679D01*
X73532Y108611D01*
X73515Y108545D01*
X73507Y108485D01*
X73502Y108458D01*
Y108436D01*
X73499Y108417D01*
Y108403D01*
Y108392D01*
Y108390D01*
Y108376D01*
Y108360D01*
Y108319D01*
X73502Y108300D01*
Y108286D01*
Y108275D01*
Y108270D01*
X73556Y108253D01*
X73614Y108237D01*
X73677Y108220D01*
X73745Y108204D01*
X73881Y108177D01*
X73949Y108166D01*
X74015Y108155D01*
X74078Y108144D01*
X74138Y108136D01*
X74190Y108127D01*
X74236Y108119D01*
X74274Y108117D01*
X74304Y108111D01*
X74315D01*
X74323Y108108D01*
X74329D01*
X74378Y108103D01*
X74424Y108098D01*
X74468Y108089D01*
X74509Y108084D01*
X74547Y108078D01*
X74580Y108073D01*
X74610Y108067D01*
X74638Y108062D01*
X74662Y108056D01*
X74684Y108054D01*
X74700Y108048D01*
X74717Y108046D01*
X74727Y108043D01*
X74736D01*
X74739Y108040D01*
X74741D01*
X74809Y108018D01*
X74872Y107994D01*
X74930Y107969D01*
X74979Y107945D01*
X75020Y107923D01*
X75036Y107912D01*
X75050Y107904D01*
X75061Y107898D01*
X75069Y107893D01*
X75074Y107887D01*
X75077D01*
X75129Y107846D01*
X75175Y107803D01*
X75216Y107759D01*
X75252Y107715D01*
X75279Y107677D01*
X75298Y107647D01*
X75306Y107636D01*
X75309Y107628D01*
X75314Y107623D01*
Y107620D01*
X75345Y107557D01*
X75366Y107494D01*
X75383Y107431D01*
X75394Y107377D01*
X75399Y107328D01*
X75402Y107306D01*
Y107289D01*
X75405Y107273D01*
Y107262D01*
Y107257D01*
Y107254D01*
X75402Y107191D01*
X75394Y107131D01*
X75383Y107076D01*
X75366Y107022D01*
X75350Y106973D01*
X75328Y106926D01*
X75306Y106883D01*
X75284Y106844D01*
X75263Y106809D01*
X75241Y106779D01*
X75219Y106754D01*
X75203Y106732D01*
X75186Y106713D01*
X75175Y106702D01*
X75167Y106694D01*
X75164Y106692D01*
X75115Y106653D01*
X75066Y106621D01*
X75009Y106590D01*
X74954Y106566D01*
X74897Y106544D01*
X74837Y106528D01*
X74782Y106511D01*
X74727Y106500D01*
X74676Y106492D01*
X74626Y106484D01*
X74583Y106479D01*
X74545Y106476D01*
X74515D01*
X74490Y106473D01*
X74471D01*
X74370Y106476D01*
X74277Y106487D01*
X74190Y106500D01*
X74149Y106509D01*
X74113Y106517D01*
X74080Y106525D01*
X74050Y106533D01*
X74023Y106541D01*
X74001Y106547D01*
X73985Y106552D01*
X73971Y106558D01*
X73963Y106561D01*
X73960D01*
X73917Y106580D01*
X73870Y106599D01*
X73783Y106648D01*
X73698Y106700D01*
X73660Y106724D01*
X73622Y106749D01*
X73589Y106773D01*
X73559Y106798D01*
X73532Y106817D01*
X73507Y106836D01*
X73488Y106850D01*
X73475Y106861D01*
X73466Y106869D01*
X73464Y106872D01*
X73453Y106801D01*
X73442Y106738D01*
X73425Y106681D01*
X73409Y106629D01*
X73393Y106590D01*
X73387Y106571D01*
X73379Y106558D01*
X73376Y106547D01*
X73371Y106539D01*
X73368Y106536D01*
Y106533D01*
X72885D01*
X72915Y106593D01*
X72942Y106651D01*
X72961Y106705D01*
X72978Y106754D01*
X72991Y106798D01*
X72994Y106817D01*
X73000Y106831D01*
X73002Y106844D01*
Y106853D01*
X73005Y106858D01*
Y106861D01*
X73008Y106877D01*
X73010Y106899D01*
X73013Y106945D01*
X73019Y107000D01*
X73021Y107060D01*
X73024Y107128D01*
X73027Y107197D01*
X73030Y107336D01*
Y107401D01*
Y107467D01*
X73032Y107524D01*
Y107576D01*
Y107620D01*
Y107636D01*
Y107652D01*
Y107663D01*
Y107672D01*
Y107677D01*
Y107680D01*
Y108297D01*
Y108351D01*
Y108403D01*
X73035Y108450D01*
Y108493D01*
X73038Y108531D01*
X73040Y108567D01*
X73043Y108597D01*
Y108624D01*
X73046Y108649D01*
X73049Y108668D01*
X73051Y108687D01*
X73054Y108701D01*
Y108709D01*
X73057Y108717D01*
Y108723D01*
X73076Y108791D01*
X73098Y108854D01*
X73120Y108905D01*
X73144Y108952D01*
X73166Y108990D01*
X73185Y109018D01*
X73191Y109026D01*
X73196Y109034D01*
X73202Y109037D01*
Y109039D01*
X73245Y109086D01*
X73294Y109124D01*
X73349Y109159D01*
X73401Y109189D01*
X73450Y109214D01*
X73469Y109225D01*
X73488Y109233D01*
X73502Y109239D01*
X73513Y109244D01*
X73521Y109247D01*
X73524D01*
X73565Y109260D01*
X73611Y109274D01*
X73704Y109296D01*
X73799Y109310D01*
X73889Y109320D01*
X73930Y109323D01*
X73969Y109326D01*
X74004Y109329D01*
X74034Y109331D01*
X74092D01*
X74220Y109326D01*
D02*
G37*
G36*
X72227Y109948D02*
Y109271D01*
X72571D01*
Y108911D01*
X72227D01*
Y107333D01*
Y107259D01*
X72224Y107188D01*
X72221Y107128D01*
X72219Y107071D01*
X72213Y107022D01*
X72211Y106975D01*
X72205Y106937D01*
X72200Y106902D01*
X72194Y106872D01*
X72189Y106847D01*
X72186Y106828D01*
X72180Y106812D01*
X72178Y106798D01*
X72175Y106790D01*
X72172Y106787D01*
Y106784D01*
X72148Y106738D01*
X72118Y106697D01*
X72085Y106661D01*
X72052Y106632D01*
X72022Y106610D01*
X71998Y106590D01*
X71981Y106580D01*
X71978Y106577D01*
X71976D01*
X71918Y106550D01*
X71856Y106530D01*
X71790Y106517D01*
X71727Y106509D01*
X71673Y106503D01*
X71648Y106500D01*
X71626Y106498D01*
X71585D01*
X71525Y106500D01*
X71465Y106503D01*
X71405Y106511D01*
X71351Y106519D01*
X71304Y106525D01*
X71282Y106530D01*
X71266Y106533D01*
X71252Y106536D01*
X71241D01*
X71236Y106539D01*
X71233D01*
X71301Y106948D01*
X71345Y106943D01*
X71386Y106940D01*
X71421Y106934D01*
X71449D01*
X71473Y106932D01*
X71503D01*
X71539Y106934D01*
X71572Y106937D01*
X71599Y106943D01*
X71621Y106948D01*
X71640Y106954D01*
X71651Y106959D01*
X71659Y106965D01*
X71662D01*
X71681Y106978D01*
X71697Y106992D01*
X71722Y107022D01*
X71730Y107036D01*
X71736Y107046D01*
X71741Y107052D01*
Y107055D01*
X71744Y107068D01*
X71749Y107082D01*
X71755Y107117D01*
X71757Y107161D01*
X71760Y107202D01*
X71763Y107243D01*
Y107276D01*
Y107289D01*
Y107300D01*
Y107306D01*
Y107308D01*
Y108911D01*
X71301D01*
Y109271D01*
X71763D01*
Y110227D01*
X72227Y109948D01*
D02*
G37*
G36*
X69827Y109326D02*
X69925Y109315D01*
X70018Y109296D01*
X70108Y109271D01*
X70190Y109244D01*
X70264Y109211D01*
X70335Y109176D01*
X70398Y109140D01*
X70455Y109105D01*
X70504Y109069D01*
X70545Y109039D01*
X70581Y109009D01*
X70611Y108985D01*
X70630Y108966D01*
X70641Y108955D01*
X70646Y108949D01*
X70709Y108876D01*
X70764Y108794D01*
X70810Y108709D01*
X70851Y108622D01*
X70886Y108531D01*
X70914Y108441D01*
X70938Y108354D01*
X70957Y108272D01*
X70971Y108190D01*
X70982Y108117D01*
X70990Y108051D01*
X70996Y107994D01*
X70998Y107966D01*
Y107945D01*
Y107925D01*
X71001Y107909D01*
Y107896D01*
Y107887D01*
Y107882D01*
Y107879D01*
X70998Y107756D01*
X70985Y107642D01*
X70968Y107535D01*
X70947Y107434D01*
X70919Y107341D01*
X70889Y107257D01*
X70859Y107180D01*
X70826Y107109D01*
X70794Y107046D01*
X70761Y106995D01*
X70734Y106948D01*
X70706Y106910D01*
X70684Y106880D01*
X70665Y106858D01*
X70654Y106847D01*
X70652Y106842D01*
X70583Y106776D01*
X70510Y106719D01*
X70433Y106670D01*
X70354Y106629D01*
X70275Y106593D01*
X70196Y106563D01*
X70117Y106539D01*
X70043Y106519D01*
X69972Y106503D01*
X69906Y106492D01*
X69849Y106484D01*
X69797Y106479D01*
X69756Y106476D01*
X69740D01*
X69726Y106473D01*
X69699D01*
X69612Y106476D01*
X69527Y106484D01*
X69448Y106495D01*
X69374Y106509D01*
X69306Y106528D01*
X69240Y106547D01*
X69183Y106569D01*
X69128Y106590D01*
X69079Y106610D01*
X69038Y106632D01*
X69000Y106651D01*
X68970Y106670D01*
X68945Y106683D01*
X68929Y106694D01*
X68918Y106702D01*
X68915Y106705D01*
X68861Y106752D01*
X68809Y106801D01*
X68762Y106853D01*
X68722Y106904D01*
X68683Y106959D01*
X68648Y107014D01*
X68618Y107068D01*
X68590Y107117D01*
X68566Y107167D01*
X68547Y107213D01*
X68530Y107254D01*
X68517Y107289D01*
X68509Y107317D01*
X68500Y107339D01*
X68495Y107352D01*
Y107358D01*
X68973Y107420D01*
X68995Y107366D01*
X69016Y107317D01*
X69038Y107270D01*
X69063Y107227D01*
X69087Y107188D01*
X69109Y107153D01*
X69134Y107123D01*
X69156Y107093D01*
X69178Y107068D01*
X69197Y107046D01*
X69213Y107030D01*
X69229Y107014D01*
X69243Y107003D01*
X69251Y106995D01*
X69257Y106992D01*
X69259Y106989D01*
X69295Y106965D01*
X69330Y106945D01*
X69366Y106926D01*
X69404Y106913D01*
X69478Y106888D01*
X69546Y106872D01*
X69576Y106866D01*
X69606Y106863D01*
X69631Y106861D01*
X69652Y106858D01*
X69672Y106855D01*
X69696D01*
X69759Y106858D01*
X69819Y106866D01*
X69876Y106877D01*
X69931Y106894D01*
X69983Y106910D01*
X70029Y106932D01*
X70073Y106951D01*
X70111Y106975D01*
X70147Y106997D01*
X70179Y107019D01*
X70207Y107038D01*
X70228Y107055D01*
X70245Y107071D01*
X70258Y107082D01*
X70267Y107090D01*
X70270Y107093D01*
X70310Y107139D01*
X70346Y107191D01*
X70379Y107246D01*
X70406Y107303D01*
X70430Y107360D01*
X70450Y107418D01*
X70469Y107472D01*
X70482Y107530D01*
X70493Y107581D01*
X70504Y107628D01*
X70510Y107672D01*
X70515Y107710D01*
X70521Y107740D01*
Y107764D01*
X70523Y107778D01*
Y107783D01*
X68481D01*
Y107814D01*
X68479Y107838D01*
Y107857D01*
Y107876D01*
Y107890D01*
Y107898D01*
Y107904D01*
Y107906D01*
X68481Y108029D01*
X68492Y108147D01*
X68511Y108256D01*
X68533Y108357D01*
X68560Y108450D01*
X68588Y108537D01*
X68621Y108616D01*
X68653Y108687D01*
X68686Y108750D01*
X68716Y108805D01*
X68746Y108851D01*
X68773Y108889D01*
X68795Y108919D01*
X68812Y108941D01*
X68825Y108952D01*
X68828Y108957D01*
X68896Y109023D01*
X68967Y109080D01*
X69038Y109132D01*
X69115Y109173D01*
X69188Y109211D01*
X69265Y109241D01*
X69336Y109266D01*
X69407Y109285D01*
X69472Y109301D01*
X69532Y109312D01*
X69584Y109320D01*
X69633Y109326D01*
X69672Y109329D01*
X69699Y109331D01*
X69723D01*
X69827Y109326D01*
D02*
G37*
G36*
X79000Y106533D02*
X77638D01*
X77515Y106536D01*
X77455Y106539D01*
X77400Y106544D01*
X77346Y106547D01*
X77297Y106552D01*
X77250Y106558D01*
X77206Y106566D01*
X77168Y106571D01*
X77133Y106577D01*
X77103Y106582D01*
X77078Y106585D01*
X77059Y106590D01*
X77043Y106593D01*
X77034Y106596D01*
X77032D01*
X76936Y106623D01*
X76849Y106653D01*
X76810Y106670D01*
X76772Y106683D01*
X76740Y106700D01*
X76707Y106716D01*
X76679Y106730D01*
X76655Y106743D01*
X76633Y106754D01*
X76614Y106765D01*
X76600Y106773D01*
X76589Y106779D01*
X76584Y106784D01*
X76581D01*
X76513Y106836D01*
X76447Y106891D01*
X76390Y106948D01*
X76338Y107003D01*
X76297Y107052D01*
X76278Y107074D01*
X76265Y107093D01*
X76254Y107106D01*
X76245Y107120D01*
X76240Y107126D01*
X76237Y107128D01*
X76180Y107216D01*
X76131Y107306D01*
X76084Y107399D01*
X76049Y107486D01*
X76033Y107524D01*
X76019Y107562D01*
X76005Y107595D01*
X75997Y107623D01*
X75989Y107644D01*
X75983Y107663D01*
X75978Y107674D01*
Y107677D01*
X75945Y107805D01*
X75921Y107936D01*
X75901Y108065D01*
X75896Y108127D01*
X75890Y108185D01*
X75885Y108239D01*
X75882Y108289D01*
X75880Y108332D01*
Y108368D01*
X75877Y108400D01*
Y108422D01*
Y108436D01*
Y108441D01*
X75880Y108534D01*
X75882Y108624D01*
X75890Y108712D01*
X75901Y108794D01*
X75912Y108873D01*
X75923Y108947D01*
X75937Y109018D01*
X75951Y109080D01*
X75967Y109138D01*
X75981Y109189D01*
X75991Y109233D01*
X76003Y109271D01*
X76013Y109301D01*
X76022Y109320D01*
X76024Y109334D01*
X76027Y109340D01*
X76057Y109411D01*
X76090Y109482D01*
X76123Y109544D01*
X76158Y109607D01*
X76196Y109664D01*
X76235Y109716D01*
X76270Y109766D01*
X76306Y109812D01*
X76341Y109850D01*
X76371Y109886D01*
X76401Y109916D01*
X76426Y109940D01*
X76445Y109959D01*
X76461Y109976D01*
X76472Y109984D01*
X76475Y109987D01*
X76518Y110022D01*
X76565Y110055D01*
X76658Y110109D01*
X76750Y110159D01*
X76835Y110194D01*
X76876Y110211D01*
X76911Y110221D01*
X76944Y110232D01*
X76972Y110243D01*
X76996Y110249D01*
X77013Y110254D01*
X77024Y110257D01*
X77026D01*
X77073Y110268D01*
X77122Y110276D01*
X77174Y110282D01*
X77228Y110290D01*
X77340Y110298D01*
X77449Y110306D01*
X77501D01*
X77548Y110309D01*
X77591D01*
X77627Y110311D01*
X79000D01*
Y106533D01*
D02*
G37*
G36*
X67782D02*
X67256D01*
Y107060D01*
X67782D01*
Y106533D01*
D02*
G37*
G36*
X58978D02*
X58451D01*
Y107060D01*
X58978D01*
Y106533D01*
D02*
G37*
G36*
X51643D02*
X51116D01*
Y107060D01*
X51643D01*
Y106533D01*
D02*
G37*
G36*
X63955Y110322D02*
X64026Y110317D01*
X64094Y110306D01*
X64160Y110290D01*
X64220Y110273D01*
X64277Y110254D01*
X64329Y110235D01*
X64375Y110216D01*
X64419Y110194D01*
X64455Y110175D01*
X64487Y110156D01*
X64515Y110140D01*
X64536Y110126D01*
X64550Y110115D01*
X64561Y110107D01*
X64564Y110104D01*
X64613Y110060D01*
X64659Y110014D01*
X64703Y109965D01*
X64744Y109913D01*
X64779Y109861D01*
X64812Y109806D01*
X64845Y109755D01*
X64869Y109705D01*
X64894Y109659D01*
X64916Y109615D01*
X64932Y109574D01*
X64949Y109542D01*
X64960Y109512D01*
X64968Y109493D01*
X64970Y109479D01*
X64973Y109473D01*
X64998Y109394D01*
X65017Y109310D01*
X65036Y109222D01*
X65052Y109132D01*
X65077Y108952D01*
X65085Y108865D01*
X65093Y108780D01*
X65099Y108701D01*
X65102Y108627D01*
X65104Y108562D01*
X65107Y108507D01*
Y108482D01*
X65110Y108461D01*
Y108441D01*
Y108425D01*
Y108411D01*
Y108403D01*
Y108398D01*
Y108395D01*
Y108297D01*
X65104Y108201D01*
X65102Y108111D01*
X65093Y108024D01*
X65085Y107939D01*
X65074Y107857D01*
X65063Y107781D01*
X65052Y107707D01*
X65039Y107633D01*
X65022Y107568D01*
X65009Y107502D01*
X64992Y107442D01*
X64976Y107382D01*
X64960Y107328D01*
X64941Y107276D01*
X64924Y107227D01*
X64908Y107183D01*
X64889Y107139D01*
X64872Y107101D01*
X64856Y107063D01*
X64840Y107030D01*
X64826Y107000D01*
X64810Y106973D01*
X64796Y106948D01*
X64785Y106926D01*
X64774Y106910D01*
X64763Y106894D01*
X64755Y106880D01*
X64747Y106872D01*
X64741Y106863D01*
X64739Y106861D01*
Y106858D01*
X64678Y106790D01*
X64613Y106730D01*
X64545Y106678D01*
X64474Y106634D01*
X64400Y106596D01*
X64329Y106566D01*
X64261Y106539D01*
X64192Y106519D01*
X64127Y106503D01*
X64070Y106492D01*
X64015Y106481D01*
X63969Y106476D01*
X63930Y106473D01*
X63903Y106470D01*
X63879D01*
X63802Y106473D01*
X63731Y106481D01*
X63663Y106492D01*
X63597Y106506D01*
X63537Y106522D01*
X63483Y106541D01*
X63431Y106561D01*
X63382Y106582D01*
X63341Y106601D01*
X63302Y106621D01*
X63273Y106640D01*
X63245Y106656D01*
X63223Y106672D01*
X63210Y106683D01*
X63199Y106689D01*
X63196Y106692D01*
X63147Y106735D01*
X63100Y106782D01*
X63057Y106831D01*
X63016Y106883D01*
X62980Y106937D01*
X62948Y106989D01*
X62915Y107041D01*
X62888Y107090D01*
X62866Y107136D01*
X62844Y107180D01*
X62827Y107221D01*
X62811Y107254D01*
X62800Y107284D01*
X62792Y107303D01*
X62789Y107317D01*
X62787Y107322D01*
X62762Y107401D01*
X62740Y107486D01*
X62721Y107573D01*
X62705Y107663D01*
X62680Y107841D01*
X62672Y107928D01*
X62664Y108013D01*
X62658Y108092D01*
X62656Y108163D01*
X62653Y108229D01*
X62650Y108286D01*
Y108310D01*
X62647Y108332D01*
Y108351D01*
Y108365D01*
Y108379D01*
Y108387D01*
Y108392D01*
Y108395D01*
Y108499D01*
X62650Y108594D01*
X62656Y108687D01*
X62661Y108772D01*
X62666Y108851D01*
X62675Y108925D01*
X62683Y108993D01*
X62691Y109053D01*
X62699Y109108D01*
X62707Y109154D01*
X62716Y109195D01*
X62721Y109228D01*
X62726Y109255D01*
X62732Y109271D01*
X62735Y109285D01*
Y109288D01*
X62751Y109348D01*
X62770Y109408D01*
X62787Y109462D01*
X62806Y109514D01*
X62827Y109564D01*
X62847Y109610D01*
X62866Y109654D01*
X62885Y109692D01*
X62901Y109727D01*
X62918Y109757D01*
X62931Y109785D01*
X62945Y109806D01*
X62956Y109823D01*
X62964Y109836D01*
X62967Y109845D01*
X62969Y109847D01*
X63027Y109929D01*
X63090Y110000D01*
X63152Y110063D01*
X63212Y110112D01*
X63240Y110134D01*
X63267Y110150D01*
X63289Y110167D01*
X63308Y110180D01*
X63324Y110189D01*
X63335Y110197D01*
X63343Y110202D01*
X63346D01*
X63390Y110224D01*
X63433Y110243D01*
X63526Y110273D01*
X63616Y110295D01*
X63698Y110309D01*
X63737Y110314D01*
X63769Y110320D01*
X63802Y110322D01*
X63827D01*
X63849Y110325D01*
X63879D01*
X63955Y110322D01*
D02*
G37*
G36*
X56620D02*
X56690Y110317D01*
X56759Y110306D01*
X56824Y110290D01*
X56884Y110273D01*
X56942Y110254D01*
X56994Y110235D01*
X57040Y110216D01*
X57084Y110194D01*
X57119Y110175D01*
X57152Y110156D01*
X57179Y110140D01*
X57201Y110126D01*
X57215Y110115D01*
X57226Y110107D01*
X57228Y110104D01*
X57277Y110060D01*
X57324Y110014D01*
X57367Y109965D01*
X57408Y109913D01*
X57444Y109861D01*
X57477Y109806D01*
X57509Y109755D01*
X57534Y109705D01*
X57559Y109659D01*
X57580Y109615D01*
X57597Y109574D01*
X57613Y109542D01*
X57624Y109512D01*
X57632Y109493D01*
X57635Y109479D01*
X57638Y109473D01*
X57662Y109394D01*
X57681Y109310D01*
X57701Y109222D01*
X57717Y109132D01*
X57741Y108952D01*
X57750Y108865D01*
X57758Y108780D01*
X57763Y108701D01*
X57766Y108627D01*
X57769Y108562D01*
X57771Y108507D01*
Y108482D01*
X57774Y108461D01*
Y108441D01*
Y108425D01*
Y108411D01*
Y108403D01*
Y108398D01*
Y108395D01*
Y108297D01*
X57769Y108201D01*
X57766Y108111D01*
X57758Y108024D01*
X57750Y107939D01*
X57739Y107857D01*
X57728Y107781D01*
X57717Y107707D01*
X57703Y107633D01*
X57687Y107568D01*
X57673Y107502D01*
X57657Y107442D01*
X57640Y107382D01*
X57624Y107328D01*
X57605Y107276D01*
X57589Y107227D01*
X57572Y107183D01*
X57553Y107139D01*
X57537Y107101D01*
X57520Y107063D01*
X57504Y107030D01*
X57490Y107000D01*
X57474Y106973D01*
X57460Y106948D01*
X57449Y106926D01*
X57438Y106910D01*
X57428Y106894D01*
X57419Y106880D01*
X57411Y106872D01*
X57406Y106863D01*
X57403Y106861D01*
Y106858D01*
X57343Y106790D01*
X57277Y106730D01*
X57209Y106678D01*
X57138Y106634D01*
X57064Y106596D01*
X56994Y106566D01*
X56925Y106539D01*
X56857Y106519D01*
X56791Y106503D01*
X56734Y106492D01*
X56679Y106481D01*
X56633Y106476D01*
X56595Y106473D01*
X56568Y106470D01*
X56543D01*
X56467Y106473D01*
X56396Y106481D01*
X56327Y106492D01*
X56262Y106506D01*
X56202Y106522D01*
X56147Y106541D01*
X56095Y106561D01*
X56046Y106582D01*
X56005Y106601D01*
X55967Y106621D01*
X55937Y106640D01*
X55910Y106656D01*
X55888Y106672D01*
X55874Y106683D01*
X55863Y106689D01*
X55861Y106692D01*
X55811Y106735D01*
X55765Y106782D01*
X55721Y106831D01*
X55680Y106883D01*
X55645Y106937D01*
X55612Y106989D01*
X55579Y107041D01*
X55552Y107090D01*
X55530Y107136D01*
X55508Y107180D01*
X55492Y107221D01*
X55476Y107254D01*
X55465Y107284D01*
X55457Y107303D01*
X55454Y107317D01*
X55451Y107322D01*
X55426Y107401D01*
X55405Y107486D01*
X55386Y107573D01*
X55369Y107663D01*
X55345Y107841D01*
X55336Y107928D01*
X55328Y108013D01*
X55323Y108092D01*
X55320Y108163D01*
X55317Y108229D01*
X55314Y108286D01*
Y108310D01*
X55312Y108332D01*
Y108351D01*
Y108365D01*
Y108379D01*
Y108387D01*
Y108392D01*
Y108395D01*
Y108499D01*
X55314Y108594D01*
X55320Y108687D01*
X55325Y108772D01*
X55331Y108851D01*
X55339Y108925D01*
X55347Y108993D01*
X55356Y109053D01*
X55364Y109108D01*
X55372Y109154D01*
X55380Y109195D01*
X55386Y109228D01*
X55391Y109255D01*
X55396Y109271D01*
X55399Y109285D01*
Y109288D01*
X55415Y109348D01*
X55435Y109408D01*
X55451Y109462D01*
X55470Y109514D01*
X55492Y109564D01*
X55511Y109610D01*
X55530Y109654D01*
X55549Y109692D01*
X55566Y109727D01*
X55582Y109757D01*
X55596Y109785D01*
X55609Y109806D01*
X55620Y109823D01*
X55629Y109836D01*
X55631Y109845D01*
X55634Y109847D01*
X55691Y109929D01*
X55754Y110000D01*
X55817Y110063D01*
X55877Y110112D01*
X55904Y110134D01*
X55932Y110150D01*
X55953Y110167D01*
X55972Y110180D01*
X55989Y110189D01*
X56000Y110197D01*
X56008Y110202D01*
X56011D01*
X56054Y110224D01*
X56098Y110243D01*
X56191Y110273D01*
X56281Y110295D01*
X56363Y110309D01*
X56401Y110314D01*
X56434Y110320D01*
X56467Y110322D01*
X56491D01*
X56513Y110325D01*
X56543D01*
X56620Y110322D01*
D02*
G37*
G36*
X53698D02*
X53783Y110314D01*
X53865Y110301D01*
X53939Y110282D01*
X54010Y110260D01*
X54075Y110235D01*
X54135Y110211D01*
X54187Y110186D01*
X54236Y110159D01*
X54277Y110134D01*
X54313Y110109D01*
X54343Y110088D01*
X54367Y110071D01*
X54384Y110055D01*
X54395Y110047D01*
X54397Y110044D01*
X54449Y109989D01*
X54496Y109935D01*
X54534Y109875D01*
X54567Y109817D01*
X54597Y109757D01*
X54621Y109700D01*
X54640Y109645D01*
X54654Y109591D01*
X54668Y109542D01*
X54676Y109495D01*
X54684Y109454D01*
X54687Y109419D01*
X54689Y109391D01*
X54692Y109370D01*
Y109356D01*
Y109351D01*
X54689Y109301D01*
X54687Y109252D01*
X54670Y109162D01*
X54659Y109121D01*
X54648Y109083D01*
X54635Y109047D01*
X54621Y109015D01*
X54610Y108985D01*
X54597Y108957D01*
X54586Y108936D01*
X54575Y108916D01*
X54567Y108900D01*
X54558Y108889D01*
X54556Y108884D01*
X54553Y108881D01*
X54526Y108845D01*
X54496Y108813D01*
X54427Y108753D01*
X54356Y108701D01*
X54285Y108657D01*
X54252Y108641D01*
X54223Y108624D01*
X54195Y108611D01*
X54171Y108600D01*
X54151Y108592D01*
X54138Y108586D01*
X54127Y108581D01*
X54124D01*
X54187Y108562D01*
X54247Y108540D01*
X54302Y108515D01*
X54354Y108491D01*
X54403Y108463D01*
X54446Y108433D01*
X54485Y108406D01*
X54523Y108379D01*
X54553Y108351D01*
X54580Y108327D01*
X54605Y108302D01*
X54624Y108283D01*
X54640Y108267D01*
X54651Y108253D01*
X54657Y108245D01*
X54659Y108242D01*
X54692Y108193D01*
X54719Y108144D01*
X54744Y108092D01*
X54766Y108040D01*
X54785Y107988D01*
X54799Y107939D01*
X54812Y107887D01*
X54820Y107841D01*
X54829Y107797D01*
X54834Y107756D01*
X54839Y107718D01*
X54842Y107688D01*
X54845Y107661D01*
Y107642D01*
Y107631D01*
Y107625D01*
X54842Y107535D01*
X54831Y107448D01*
X54812Y107366D01*
X54790Y107287D01*
X54766Y107216D01*
X54736Y107147D01*
X54706Y107085D01*
X54673Y107027D01*
X54643Y106975D01*
X54613Y106932D01*
X54583Y106894D01*
X54556Y106861D01*
X54536Y106834D01*
X54517Y106817D01*
X54506Y106803D01*
X54504Y106801D01*
X54435Y106743D01*
X54367Y106692D01*
X54294Y106648D01*
X54217Y106610D01*
X54141Y106577D01*
X54067Y106552D01*
X53993Y106530D01*
X53922Y106511D01*
X53857Y106498D01*
X53794Y106487D01*
X53739Y106481D01*
X53693Y106476D01*
X53655Y106473D01*
X53625Y106470D01*
X53600D01*
X53499Y106473D01*
X53401Y106484D01*
X53311Y106500D01*
X53223Y106522D01*
X53144Y106547D01*
X53070Y106574D01*
X53002Y106604D01*
X52939Y106634D01*
X52885Y106664D01*
X52838Y106694D01*
X52795Y106722D01*
X52762Y106746D01*
X52735Y106768D01*
X52716Y106784D01*
X52702Y106795D01*
X52699Y106798D01*
X52639Y106861D01*
X52584Y106929D01*
X52541Y106995D01*
X52500Y107065D01*
X52467Y107134D01*
X52440Y107199D01*
X52415Y107265D01*
X52399Y107328D01*
X52385Y107388D01*
X52374Y107442D01*
X52366Y107489D01*
X52361Y107530D01*
X52358Y107565D01*
X52355Y107590D01*
Y107606D01*
Y107612D01*
X52358Y107677D01*
X52363Y107740D01*
X52372Y107797D01*
X52382Y107854D01*
X52399Y107906D01*
X52412Y107958D01*
X52429Y108002D01*
X52445Y108046D01*
X52464Y108084D01*
X52481Y108117D01*
X52494Y108147D01*
X52508Y108171D01*
X52522Y108190D01*
X52530Y108204D01*
X52535Y108212D01*
X52538Y108215D01*
X52574Y108261D01*
X52614Y108302D01*
X52656Y108343D01*
X52699Y108379D01*
X52743Y108411D01*
X52786Y108441D01*
X52830Y108469D01*
X52874Y108493D01*
X52912Y108515D01*
X52950Y108531D01*
X52983Y108548D01*
X53013Y108559D01*
X53038Y108570D01*
X53054Y108575D01*
X53068Y108581D01*
X53070D01*
X53019Y108602D01*
X52972Y108624D01*
X52929Y108649D01*
X52885Y108674D01*
X52849Y108698D01*
X52814Y108723D01*
X52784Y108747D01*
X52754Y108772D01*
X52729Y108794D01*
X52710Y108816D01*
X52691Y108832D01*
X52677Y108848D01*
X52664Y108862D01*
X52656Y108873D01*
X52653Y108878D01*
X52650Y108881D01*
X52626Y108919D01*
X52604Y108957D01*
X52584Y108996D01*
X52568Y109034D01*
X52544Y109110D01*
X52527Y109181D01*
X52522Y109214D01*
X52519Y109244D01*
X52516Y109271D01*
X52513Y109293D01*
X52511Y109312D01*
Y109326D01*
Y109334D01*
Y109337D01*
X52513Y109413D01*
X52525Y109484D01*
X52538Y109555D01*
X52557Y109621D01*
X52582Y109681D01*
X52606Y109738D01*
X52634Y109793D01*
X52661Y109842D01*
X52691Y109886D01*
X52718Y109924D01*
X52743Y109957D01*
X52767Y109984D01*
X52786Y110006D01*
X52800Y110022D01*
X52811Y110033D01*
X52814Y110036D01*
X52871Y110088D01*
X52934Y110131D01*
X53000Y110169D01*
X53065Y110202D01*
X53131Y110232D01*
X53196Y110254D01*
X53262Y110273D01*
X53324Y110290D01*
X53382Y110301D01*
X53436Y110309D01*
X53485Y110317D01*
X53526Y110320D01*
X53562Y110322D01*
X53586Y110325D01*
X53608D01*
X53698Y110322D01*
D02*
G37*
G36*
X46349Y110322D02*
X46420Y110317D01*
X46488Y110306D01*
X46554Y110290D01*
X46614Y110273D01*
X46671Y110254D01*
X46723Y110235D01*
X46770Y110216D01*
X46813Y110194D01*
X46849Y110175D01*
X46881Y110156D01*
X46909Y110140D01*
X46931Y110126D01*
X46944Y110115D01*
X46955Y110107D01*
X46958Y110104D01*
X47007Y110060D01*
X47054Y110014D01*
X47097Y109965D01*
X47138Y109913D01*
X47174Y109861D01*
X47206Y109806D01*
X47239Y109755D01*
X47264Y109705D01*
X47288Y109659D01*
X47310Y109615D01*
X47326Y109574D01*
X47343Y109542D01*
X47354Y109512D01*
X47362Y109493D01*
X47365Y109479D01*
X47368Y109473D01*
X47392Y109394D01*
X47411Y109310D01*
X47430Y109222D01*
X47447Y109132D01*
X47471Y108952D01*
X47479Y108865D01*
X47488Y108780D01*
X47493Y108701D01*
X47496Y108627D01*
X47499Y108562D01*
X47501Y108507D01*
Y108482D01*
X47504Y108460D01*
Y108441D01*
Y108425D01*
Y108411D01*
Y108403D01*
Y108398D01*
Y108395D01*
Y108297D01*
X47499Y108201D01*
X47496Y108111D01*
X47488Y108024D01*
X47479Y107939D01*
X47469Y107857D01*
X47458Y107781D01*
X47447Y107707D01*
X47433Y107633D01*
X47417Y107568D01*
X47403Y107502D01*
X47387Y107442D01*
X47370Y107382D01*
X47354Y107328D01*
X47335Y107276D01*
X47318Y107227D01*
X47302Y107183D01*
X47283Y107139D01*
X47267Y107101D01*
X47250Y107063D01*
X47234Y107030D01*
X47220Y107000D01*
X47204Y106973D01*
X47190Y106948D01*
X47179Y106926D01*
X47168Y106910D01*
X47157Y106894D01*
X47149Y106880D01*
X47141Y106872D01*
X47135Y106863D01*
X47133Y106861D01*
Y106858D01*
X47073Y106790D01*
X47007Y106730D01*
X46939Y106678D01*
X46868Y106634D01*
X46794Y106596D01*
X46723Y106566D01*
X46655Y106539D01*
X46587Y106519D01*
X46521Y106503D01*
X46464Y106492D01*
X46409Y106481D01*
X46363Y106476D01*
X46325Y106473D01*
X46297Y106470D01*
X46273D01*
X46196Y106473D01*
X46125Y106481D01*
X46057Y106492D01*
X45992Y106506D01*
X45932Y106522D01*
X45877Y106541D01*
X45825Y106561D01*
X45776Y106582D01*
X45735Y106601D01*
X45697Y106621D01*
X45667Y106640D01*
X45639Y106656D01*
X45618Y106672D01*
X45604Y106683D01*
X45593Y106689D01*
X45590Y106692D01*
X45541Y106735D01*
X45495Y106782D01*
X45451Y106831D01*
X45410Y106883D01*
X45375Y106937D01*
X45342Y106989D01*
X45309Y107041D01*
X45282Y107090D01*
X45260Y107136D01*
X45238Y107180D01*
X45222Y107221D01*
X45205Y107254D01*
X45194Y107284D01*
X45186Y107303D01*
X45184Y107317D01*
X45181Y107322D01*
X45156Y107401D01*
X45134Y107486D01*
X45115Y107573D01*
X45099Y107663D01*
X45074Y107841D01*
X45066Y107928D01*
X45058Y108013D01*
X45052Y108092D01*
X45050Y108163D01*
X45047Y108229D01*
X45044Y108286D01*
Y108310D01*
X45041Y108332D01*
Y108351D01*
Y108365D01*
Y108379D01*
Y108387D01*
Y108392D01*
Y108395D01*
Y108499D01*
X45044Y108594D01*
X45050Y108687D01*
X45055Y108772D01*
X45061Y108851D01*
X45069Y108925D01*
X45077Y108993D01*
X45085Y109053D01*
X45093Y109108D01*
X45102Y109154D01*
X45110Y109195D01*
X45115Y109228D01*
X45121Y109255D01*
X45126Y109271D01*
X45129Y109285D01*
Y109288D01*
X45145Y109348D01*
X45164Y109408D01*
X45181Y109462D01*
X45200Y109514D01*
X45222Y109564D01*
X45241Y109610D01*
X45260Y109654D01*
X45279Y109692D01*
X45295Y109727D01*
X45312Y109757D01*
X45325Y109785D01*
X45339Y109806D01*
X45350Y109823D01*
X45358Y109836D01*
X45361Y109845D01*
X45364Y109847D01*
X45421Y109929D01*
X45484Y110000D01*
X45547Y110063D01*
X45607Y110112D01*
X45634Y110134D01*
X45661Y110150D01*
X45683Y110167D01*
X45702Y110180D01*
X45719Y110189D01*
X45730Y110197D01*
X45738Y110202D01*
X45740D01*
X45784Y110224D01*
X45828Y110243D01*
X45921Y110273D01*
X46011Y110295D01*
X46093Y110309D01*
X46131Y110314D01*
X46164Y110320D01*
X46196Y110322D01*
X46221D01*
X46243Y110325D01*
X46273D01*
X46349Y110322D01*
D02*
G37*
G36*
X40480D02*
X40551Y110317D01*
X40619Y110306D01*
X40684Y110290D01*
X40745Y110273D01*
X40802Y110254D01*
X40854Y110235D01*
X40900Y110216D01*
X40944Y110194D01*
X40979Y110175D01*
X41012Y110156D01*
X41039Y110140D01*
X41061Y110126D01*
X41075Y110115D01*
X41086Y110107D01*
X41089Y110104D01*
X41138Y110060D01*
X41184Y110014D01*
X41228Y109965D01*
X41269Y109913D01*
X41304Y109861D01*
X41337Y109806D01*
X41370Y109755D01*
X41394Y109705D01*
X41419Y109659D01*
X41441Y109615D01*
X41457Y109574D01*
X41473Y109542D01*
X41484Y109512D01*
X41493Y109493D01*
X41495Y109479D01*
X41498Y109473D01*
X41523Y109394D01*
X41542Y109310D01*
X41561Y109222D01*
X41577Y109132D01*
X41602Y108952D01*
X41610Y108865D01*
X41618Y108780D01*
X41624Y108701D01*
X41626Y108627D01*
X41629Y108562D01*
X41632Y108507D01*
Y108482D01*
X41635Y108460D01*
Y108441D01*
Y108425D01*
Y108411D01*
Y108403D01*
Y108398D01*
Y108395D01*
Y108297D01*
X41629Y108201D01*
X41626Y108111D01*
X41618Y108024D01*
X41610Y107939D01*
X41599Y107857D01*
X41588Y107781D01*
X41577Y107707D01*
X41563Y107633D01*
X41547Y107568D01*
X41533Y107502D01*
X41517Y107442D01*
X41501Y107382D01*
X41484Y107328D01*
X41465Y107276D01*
X41449Y107227D01*
X41432Y107183D01*
X41413Y107139D01*
X41397Y107101D01*
X41381Y107063D01*
X41364Y107030D01*
X41351Y107000D01*
X41334Y106973D01*
X41320Y106948D01*
X41310Y106926D01*
X41299Y106910D01*
X41288Y106894D01*
X41280Y106880D01*
X41271Y106872D01*
X41266Y106863D01*
X41263Y106861D01*
Y106858D01*
X41203Y106790D01*
X41138Y106730D01*
X41069Y106678D01*
X40998Y106634D01*
X40925Y106596D01*
X40854Y106566D01*
X40786Y106539D01*
X40717Y106519D01*
X40652Y106503D01*
X40594Y106492D01*
X40540Y106481D01*
X40493Y106476D01*
X40455Y106473D01*
X40428Y106470D01*
X40403D01*
X40327Y106473D01*
X40256Y106481D01*
X40188Y106492D01*
X40122Y106506D01*
X40062Y106522D01*
X40007Y106541D01*
X39955Y106561D01*
X39906Y106582D01*
X39865Y106601D01*
X39827Y106621D01*
X39797Y106640D01*
X39770Y106656D01*
X39748Y106672D01*
X39734Y106683D01*
X39724Y106689D01*
X39721Y106692D01*
X39672Y106735D01*
X39625Y106782D01*
X39582Y106831D01*
X39541Y106883D01*
X39505Y106937D01*
X39472Y106989D01*
X39440Y107041D01*
X39412Y107090D01*
X39390Y107136D01*
X39369Y107180D01*
X39352Y107221D01*
X39336Y107254D01*
X39325Y107284D01*
X39317Y107303D01*
X39314Y107317D01*
X39311Y107322D01*
X39287Y107401D01*
X39265Y107486D01*
X39246Y107573D01*
X39229Y107663D01*
X39205Y107841D01*
X39197Y107928D01*
X39188Y108013D01*
X39183Y108092D01*
X39180Y108163D01*
X39178Y108229D01*
X39175Y108286D01*
Y108310D01*
X39172Y108332D01*
Y108351D01*
Y108365D01*
Y108379D01*
Y108387D01*
Y108392D01*
Y108395D01*
Y108499D01*
X39175Y108594D01*
X39180Y108687D01*
X39186Y108772D01*
X39191Y108851D01*
X39199Y108925D01*
X39208Y108993D01*
X39216Y109053D01*
X39224Y109108D01*
X39232Y109154D01*
X39240Y109195D01*
X39246Y109228D01*
X39251Y109255D01*
X39257Y109271D01*
X39259Y109285D01*
Y109288D01*
X39276Y109348D01*
X39295Y109408D01*
X39311Y109462D01*
X39330Y109514D01*
X39352Y109564D01*
X39371Y109610D01*
X39390Y109654D01*
X39410Y109692D01*
X39426Y109727D01*
X39442Y109757D01*
X39456Y109785D01*
X39470Y109806D01*
X39481Y109823D01*
X39489Y109836D01*
X39491Y109845D01*
X39494Y109847D01*
X39551Y109929D01*
X39614Y110000D01*
X39677Y110063D01*
X39737Y110112D01*
X39764Y110134D01*
X39792Y110150D01*
X39814Y110167D01*
X39833Y110180D01*
X39849Y110189D01*
X39860Y110197D01*
X39868Y110202D01*
X39871D01*
X39915Y110224D01*
X39958Y110243D01*
X40051Y110273D01*
X40141Y110295D01*
X40223Y110309D01*
X40261Y110314D01*
X40294Y110320D01*
X40327Y110322D01*
X40351D01*
X40373Y110325D01*
X40403D01*
X40480Y110322D01*
D02*
G37*
%LPC*%
G36*
X59751Y86876D02*
X55487D01*
Y86815D01*
Y86753D01*
Y86691D01*
Y86629D01*
Y86567D01*
Y86506D01*
Y86444D01*
Y86382D01*
Y86320D01*
Y86259D01*
Y86197D01*
Y86135D01*
Y86073D01*
Y86011D01*
Y85949D01*
Y85888D01*
Y85826D01*
Y85764D01*
Y85702D01*
Y85641D01*
Y85579D01*
Y85517D01*
Y85455D01*
Y85393D01*
Y85332D01*
Y85270D01*
Y85208D01*
Y85146D01*
Y85084D01*
Y85023D01*
Y84961D01*
Y84899D01*
Y84837D01*
Y84776D01*
Y84714D01*
Y84652D01*
Y84590D01*
Y84528D01*
Y84466D01*
Y84405D01*
Y84343D01*
Y84281D01*
Y84219D01*
Y84158D01*
Y84096D01*
Y84034D01*
Y83972D01*
Y83910D01*
Y83849D01*
Y83787D01*
Y83725D01*
Y83663D01*
Y83601D01*
Y83540D01*
Y83478D01*
Y83416D01*
Y83354D01*
Y83292D01*
Y83231D01*
Y83169D01*
Y83107D01*
Y83045D01*
Y82983D01*
Y82922D01*
Y82860D01*
Y82798D01*
Y82736D01*
Y82674D01*
Y82613D01*
Y82551D01*
Y82489D01*
Y82427D01*
Y82366D01*
Y82304D01*
Y82242D01*
Y82180D01*
Y82118D01*
Y82057D01*
Y81995D01*
Y81933D01*
Y81871D01*
Y81809D01*
Y81748D01*
Y81686D01*
Y81624D01*
Y81562D01*
Y81500D01*
Y81439D01*
Y81377D01*
Y81315D01*
Y81253D01*
Y81191D01*
Y81130D01*
Y81068D01*
Y81006D01*
Y80944D01*
Y80883D01*
Y80821D01*
Y80759D01*
Y80697D01*
Y80635D01*
X59751D01*
Y80697D01*
Y80759D01*
Y80821D01*
Y80883D01*
Y80944D01*
Y81006D01*
Y81068D01*
Y81130D01*
Y81191D01*
Y81253D01*
Y81315D01*
Y81377D01*
Y81439D01*
Y81500D01*
Y81562D01*
Y81624D01*
Y81686D01*
Y81748D01*
Y81809D01*
Y81871D01*
Y81933D01*
Y81995D01*
Y82057D01*
Y82118D01*
Y82180D01*
Y82242D01*
Y82304D01*
Y82366D01*
Y82427D01*
Y82489D01*
Y82551D01*
Y82613D01*
Y82674D01*
Y82736D01*
Y82798D01*
Y82860D01*
Y82922D01*
Y82983D01*
Y83045D01*
Y83107D01*
Y83169D01*
Y83231D01*
Y83292D01*
Y83354D01*
Y83416D01*
Y83478D01*
Y83540D01*
Y83601D01*
Y83663D01*
Y83725D01*
Y83787D01*
Y83849D01*
Y83910D01*
Y83972D01*
Y84034D01*
Y84096D01*
Y84158D01*
Y84219D01*
Y84281D01*
Y84343D01*
Y84405D01*
Y84466D01*
Y84528D01*
Y84590D01*
Y84652D01*
Y84714D01*
Y84776D01*
Y84837D01*
Y84899D01*
Y84961D01*
Y85023D01*
Y85084D01*
Y85146D01*
Y85208D01*
Y85270D01*
Y85332D01*
Y85393D01*
Y85455D01*
Y85517D01*
Y85579D01*
Y85641D01*
Y85702D01*
Y85764D01*
Y85826D01*
Y85888D01*
Y85949D01*
Y86011D01*
Y86073D01*
Y86135D01*
Y86197D01*
Y86259D01*
Y86320D01*
Y86382D01*
Y86444D01*
Y86506D01*
Y86567D01*
Y86629D01*
Y86691D01*
Y86753D01*
Y86815D01*
Y86876D01*
D02*
G37*
G36*
X37382Y102139D02*
X37258D01*
Y102077D01*
X36826D01*
Y102016D01*
X36641D01*
Y101954D01*
X36517D01*
Y101892D01*
X36393D01*
Y101830D01*
X36270D01*
Y101769D01*
X36208D01*
Y101707D01*
X36146D01*
Y101645D01*
X36084D01*
Y101583D01*
X36023D01*
Y101521D01*
X35961D01*
Y101460D01*
Y101398D01*
X35899D01*
Y101336D01*
Y101274D01*
X35837D01*
Y101212D01*
Y101151D01*
Y101089D01*
X35776D01*
Y101027D01*
Y100965D01*
Y100903D01*
Y100842D01*
Y100780D01*
Y100718D01*
Y100656D01*
Y100594D01*
Y100533D01*
X35837D01*
Y100471D01*
Y100409D01*
Y100347D01*
X35899D01*
Y100285D01*
Y100224D01*
X35961D01*
Y100162D01*
X36023D01*
Y100100D01*
Y100038D01*
X36084D01*
Y99976D01*
X36146D01*
Y99915D01*
X36208D01*
Y99853D01*
X36332D01*
Y99791D01*
X36393D01*
Y99729D01*
X36517D01*
Y99668D01*
X36641D01*
Y99606D01*
X36826D01*
Y99544D01*
X37135D01*
Y99482D01*
X37506D01*
Y99544D01*
X37876D01*
Y99606D01*
X38062D01*
Y99668D01*
X38185D01*
Y99729D01*
X38247D01*
Y99791D01*
X38371D01*
Y99853D01*
X38432D01*
Y99915D01*
X38494D01*
Y99976D01*
X38556D01*
Y100038D01*
X38618D01*
Y100100D01*
X38680D01*
Y100162D01*
X38741D01*
Y100224D01*
Y100285D01*
X38803D01*
Y100347D01*
Y100409D01*
X38865D01*
Y100471D01*
Y100533D01*
Y100594D01*
Y100656D01*
Y100718D01*
X38927D01*
Y100780D01*
Y100842D01*
Y100903D01*
X38865D01*
Y100965D01*
Y101027D01*
Y101089D01*
Y101151D01*
Y101212D01*
X38803D01*
Y101274D01*
Y101336D01*
X38741D01*
Y101398D01*
Y101460D01*
X38680D01*
Y101521D01*
X38618D01*
Y101583D01*
X38556D01*
Y101645D01*
X38494D01*
Y101707D01*
X38432D01*
Y101769D01*
X38371D01*
Y101830D01*
X38247D01*
Y101892D01*
X38185D01*
Y101954D01*
X38000D01*
Y102016D01*
X37876D01*
Y102077D01*
X37382D01*
Y102139D01*
D02*
G37*
G36*
X37444Y98679D02*
X37320D01*
Y98617D01*
X37258D01*
Y98555D01*
X37197D01*
Y98493D01*
X37135D01*
Y98432D01*
X37073D01*
Y98370D01*
Y98308D01*
X37011D01*
Y98246D01*
Y98185D01*
X36950D01*
Y98123D01*
X36888D01*
Y98061D01*
Y97999D01*
X36826D01*
Y97937D01*
Y97876D01*
X36764D01*
Y97814D01*
Y97752D01*
X36702D01*
Y97690D01*
X36641D01*
Y97628D01*
Y97567D01*
X36579D01*
Y97505D01*
Y97443D01*
X36517D01*
Y97381D01*
Y97319D01*
Y97258D01*
X36455D01*
Y97196D01*
Y97134D01*
X36393D01*
Y97072D01*
Y97010D01*
Y96949D01*
Y96887D01*
X36332D01*
Y96825D01*
Y96763D01*
X36270D01*
Y96702D01*
Y96640D01*
Y96578D01*
X36208D01*
Y96516D01*
Y96454D01*
Y96393D01*
X36146D01*
Y96331D01*
Y96269D01*
Y96207D01*
X36084D01*
Y96145D01*
Y96084D01*
X36023D01*
Y96022D01*
Y95960D01*
Y95898D01*
X35961D01*
Y95836D01*
Y95775D01*
Y95713D01*
X35899D01*
Y95651D01*
Y95589D01*
Y95527D01*
Y95466D01*
X35837D01*
Y95404D01*
Y95342D01*
Y95280D01*
X35776D01*
Y95218D01*
Y95157D01*
Y95095D01*
X35714D01*
Y95033D01*
Y94971D01*
Y94910D01*
X35652D01*
Y94848D01*
Y94786D01*
Y94724D01*
X35590D01*
Y94662D01*
Y94600D01*
X35528D01*
Y94539D01*
Y94477D01*
Y94415D01*
X35467D01*
Y94353D01*
Y94292D01*
Y94230D01*
X35405D01*
Y94168D01*
Y94106D01*
Y94044D01*
X35343D01*
Y93983D01*
Y93921D01*
Y93859D01*
X35281D01*
Y93797D01*
Y93735D01*
Y93674D01*
Y93612D01*
X35343D01*
Y93550D01*
X35405D01*
Y93488D01*
X35467D01*
Y93427D01*
X35590D01*
Y93365D01*
X35652D01*
Y93303D01*
X35714D01*
Y93241D01*
X35837D01*
Y93179D01*
X35899D01*
Y93117D01*
X35961D01*
Y93056D01*
X36084D01*
Y92994D01*
X36146D01*
Y92932D01*
X36208D01*
Y92870D01*
X36332D01*
Y92809D01*
X36393D01*
Y92747D01*
X36455D01*
Y92685D01*
X36517D01*
Y92623D01*
X36641D01*
Y92561D01*
X36702D01*
Y92500D01*
X36764D01*
Y92438D01*
X36888D01*
Y92376D01*
X36950D01*
Y92314D01*
X37011D01*
Y92252D01*
X37073D01*
Y92191D01*
X37197D01*
Y92129D01*
X37258D01*
Y92067D01*
X37506D01*
Y92129D01*
X37629D01*
Y92191D01*
X37691D01*
Y92252D01*
X37753D01*
Y92314D01*
X37815D01*
Y92376D01*
X37938D01*
Y92438D01*
X38000D01*
Y92500D01*
X38062D01*
Y92561D01*
X38124D01*
Y92623D01*
X38247D01*
Y92685D01*
X38309D01*
Y92747D01*
X38371D01*
Y92809D01*
X38494D01*
Y92870D01*
X38556D01*
Y92932D01*
X38618D01*
Y92994D01*
X38680D01*
Y93056D01*
X38741D01*
Y93117D01*
X38865D01*
Y93179D01*
X38927D01*
Y93241D01*
X38989D01*
Y93303D01*
X39050D01*
Y93365D01*
X39174D01*
Y93427D01*
X39236D01*
Y93488D01*
X39298D01*
Y93550D01*
X39359D01*
Y93612D01*
X39421D01*
Y93674D01*
X39483D01*
Y93735D01*
Y93797D01*
X39421D01*
Y93859D01*
Y93921D01*
Y93983D01*
Y94044D01*
X39359D01*
Y94106D01*
Y94168D01*
X39298D01*
Y94230D01*
Y94292D01*
Y94353D01*
X39236D01*
Y94415D01*
Y94477D01*
Y94539D01*
Y94600D01*
X39174D01*
Y94662D01*
Y94724D01*
Y94786D01*
X39112D01*
Y94848D01*
Y94910D01*
Y94971D01*
X39050D01*
Y95033D01*
Y95095D01*
Y95157D01*
X38989D01*
Y95218D01*
Y95280D01*
Y95342D01*
X38927D01*
Y95404D01*
Y95466D01*
Y95527D01*
X38865D01*
Y95589D01*
Y95651D01*
Y95713D01*
X38803D01*
Y95775D01*
Y95836D01*
X38741D01*
Y95898D01*
Y95960D01*
Y96022D01*
Y96084D01*
Y96145D01*
X38680D01*
Y96207D01*
Y96269D01*
X38618D01*
Y96331D01*
Y96393D01*
Y96454D01*
X38556D01*
Y96516D01*
Y96578D01*
Y96640D01*
X38494D01*
Y96702D01*
Y96763D01*
X38432D01*
Y96825D01*
Y96887D01*
Y96949D01*
X38371D01*
Y97010D01*
Y97072D01*
Y97134D01*
X38309D01*
Y97196D01*
Y97258D01*
X38247D01*
Y97319D01*
Y97381D01*
X38185D01*
Y97443D01*
Y97505D01*
X38124D01*
Y97567D01*
Y97628D01*
Y97690D01*
X38062D01*
Y97752D01*
Y97814D01*
X38000D01*
Y97876D01*
Y97937D01*
X37938D01*
Y97999D01*
Y98061D01*
X37876D01*
Y98123D01*
X37815D01*
Y98185D01*
X37753D01*
Y98246D01*
Y98308D01*
X37691D01*
Y98370D01*
Y98432D01*
X37629D01*
Y98493D01*
X37567D01*
Y98555D01*
X37506D01*
Y98617D01*
X37444D01*
Y98679D01*
D02*
G37*
G36*
X39730Y93117D02*
X39421D01*
Y93056D01*
X39359D01*
Y92994D01*
X39298D01*
Y92932D01*
X39236D01*
Y92870D01*
X39112D01*
Y92809D01*
X39050D01*
Y92747D01*
X38989D01*
Y92685D01*
X38927D01*
Y92623D01*
X38803D01*
Y92561D01*
X38741D01*
Y92500D01*
X38680D01*
Y92438D01*
X38618D01*
Y92376D01*
X38556D01*
Y92314D01*
X38432D01*
Y92252D01*
X38371D01*
Y92191D01*
X38309D01*
Y92129D01*
X38247D01*
Y92067D01*
X38124D01*
Y92005D01*
X38062D01*
Y91943D01*
X38000D01*
Y91882D01*
X37938D01*
Y91820D01*
X37876D01*
Y91758D01*
Y91696D01*
Y91635D01*
X37938D01*
Y91573D01*
X38000D01*
Y91511D01*
X38062D01*
Y91449D01*
X38124D01*
Y91387D01*
X38185D01*
Y91325D01*
X38309D01*
Y91264D01*
X38371D01*
Y91202D01*
X38432D01*
Y91140D01*
X38556D01*
Y91078D01*
X38618D01*
Y91017D01*
X38680D01*
Y90955D01*
X38803D01*
Y90893D01*
X38865D01*
Y90831D01*
X38927D01*
Y90769D01*
X39050D01*
Y90708D01*
X39112D01*
Y90646D01*
X39174D01*
Y90584D01*
X39236D01*
Y90522D01*
X39298D01*
Y90460D01*
X39421D01*
Y90399D01*
X39483D01*
Y90337D01*
X39545D01*
Y90275D01*
X39668D01*
Y90213D01*
X39730D01*
Y90151D01*
X39854D01*
Y90090D01*
X39916D01*
Y90028D01*
X39977D01*
Y89966D01*
X40039D01*
Y89904D01*
X40163D01*
Y89842D01*
X40224D01*
Y89781D01*
X40286D01*
Y89719D01*
X40410D01*
Y89657D01*
X40472D01*
Y89595D01*
X40534D01*
Y89534D01*
X40657D01*
Y89472D01*
X40719D01*
Y89410D01*
X40904D01*
Y89472D01*
Y89534D01*
Y89595D01*
X40843D01*
Y89657D01*
Y89719D01*
Y89781D01*
X40781D01*
Y89842D01*
Y89904D01*
Y89966D01*
X40719D01*
Y90028D01*
Y90090D01*
Y90151D01*
X40657D01*
Y90213D01*
Y90275D01*
Y90337D01*
X40595D01*
Y90399D01*
Y90460D01*
Y90522D01*
X40534D01*
Y90584D01*
Y90646D01*
Y90708D01*
X40472D01*
Y90769D01*
Y90831D01*
Y90893D01*
X40410D01*
Y90955D01*
Y91017D01*
X40348D01*
Y91078D01*
Y91140D01*
Y91202D01*
X40286D01*
Y91264D01*
Y91325D01*
Y91387D01*
Y91449D01*
X40224D01*
Y91511D01*
Y91573D01*
Y91635D01*
X40163D01*
Y91696D01*
Y91758D01*
Y91820D01*
X40101D01*
Y91882D01*
Y91943D01*
Y92005D01*
X40039D01*
Y92067D01*
Y92129D01*
Y92191D01*
X39977D01*
Y92252D01*
Y92314D01*
Y92376D01*
X39916D01*
Y92438D01*
Y92500D01*
Y92561D01*
X39854D01*
Y92623D01*
Y92685D01*
X39792D01*
Y92747D01*
Y92809D01*
Y92870D01*
Y92932D01*
X39730D01*
Y92994D01*
Y93056D01*
Y93117D01*
D02*
G37*
G36*
X35281D02*
X35096D01*
Y93056D01*
X35034D01*
Y92994D01*
Y92932D01*
Y92870D01*
X34972D01*
Y92809D01*
Y92747D01*
Y92685D01*
X34910D01*
Y92623D01*
Y92561D01*
X34849D01*
Y92500D01*
Y92438D01*
Y92376D01*
Y92314D01*
X34787D01*
Y92252D01*
Y92191D01*
Y92129D01*
X34725D01*
Y92067D01*
Y92005D01*
Y91943D01*
X34663D01*
Y91882D01*
Y91820D01*
X34601D01*
Y91758D01*
Y91696D01*
Y91635D01*
X34540D01*
Y91573D01*
Y91511D01*
Y91449D01*
X34478D01*
Y91387D01*
Y91325D01*
Y91264D01*
X34416D01*
Y91202D01*
Y91140D01*
Y91078D01*
X34354D01*
Y91017D01*
Y90955D01*
Y90893D01*
X34292D01*
Y90831D01*
Y90769D01*
Y90708D01*
Y90646D01*
X34231D01*
Y90584D01*
Y90522D01*
Y90460D01*
X34169D01*
Y90399D01*
Y90337D01*
Y90275D01*
X34107D01*
Y90213D01*
Y90151D01*
Y90090D01*
X34045D01*
Y90028D01*
Y89966D01*
Y89904D01*
X33983D01*
Y89842D01*
Y89781D01*
Y89719D01*
X33922D01*
Y89657D01*
Y89595D01*
Y89534D01*
Y89472D01*
X33860D01*
Y89410D01*
Y89348D01*
Y89286D01*
X34045D01*
Y89348D01*
X34107D01*
Y89410D01*
X34231D01*
Y89472D01*
X34292D01*
Y89534D01*
X34354D01*
Y89595D01*
X34416D01*
Y89657D01*
X34478D01*
Y89719D01*
X34540D01*
Y89781D01*
X34663D01*
Y89842D01*
X34725D01*
Y89904D01*
X34787D01*
Y89966D01*
X34910D01*
Y90028D01*
X34972D01*
Y90090D01*
X35034D01*
Y90151D01*
X35096D01*
Y90213D01*
X35219D01*
Y90275D01*
X35281D01*
Y90337D01*
X35343D01*
Y90399D01*
X35405D01*
Y90460D01*
X35528D01*
Y90522D01*
X35590D01*
Y90584D01*
X35652D01*
Y90646D01*
X35776D01*
Y90708D01*
X35837D01*
Y90769D01*
X35899D01*
Y90831D01*
X35961D01*
Y90893D01*
X36084D01*
Y90955D01*
X36146D01*
Y91017D01*
X36208D01*
Y91078D01*
X36270D01*
Y91140D01*
X36393D01*
Y91202D01*
X36455D01*
Y91264D01*
X36517D01*
Y91325D01*
X36579D01*
Y91387D01*
X36702D01*
Y91449D01*
X36764D01*
Y91511D01*
X36826D01*
Y91573D01*
X36888D01*
Y91635D01*
X37011D01*
Y91696D01*
Y91758D01*
X36950D01*
Y91820D01*
X36888D01*
Y91882D01*
X36826D01*
Y91943D01*
X36764D01*
Y92005D01*
X36641D01*
Y92067D01*
X36579D01*
Y92129D01*
X36517D01*
Y92191D01*
X36455D01*
Y92252D01*
X36332D01*
Y92314D01*
X36270D01*
Y92376D01*
X36208D01*
Y92438D01*
X36146D01*
Y92500D01*
X36023D01*
Y92561D01*
X35961D01*
Y92623D01*
X35899D01*
Y92685D01*
X35776D01*
Y92747D01*
X35714D01*
Y92809D01*
X35652D01*
Y92870D01*
X35528D01*
Y92932D01*
X35467D01*
Y92994D01*
X35405D01*
Y93056D01*
X35281D01*
Y93117D01*
D02*
G37*
G36*
X26816Y87062D02*
X22737D01*
Y87000D01*
X22614D01*
Y86938D01*
Y86876D01*
Y86815D01*
Y86753D01*
Y86691D01*
Y86629D01*
Y86567D01*
Y86506D01*
Y86444D01*
Y86382D01*
Y86320D01*
Y86259D01*
Y86197D01*
Y86135D01*
Y86073D01*
Y86011D01*
Y85949D01*
Y85888D01*
Y85826D01*
Y85764D01*
Y85702D01*
Y85641D01*
Y85579D01*
Y85517D01*
Y85455D01*
Y85393D01*
Y85332D01*
Y85270D01*
Y85208D01*
Y85146D01*
Y85084D01*
Y85023D01*
Y84961D01*
Y84899D01*
Y84837D01*
Y84776D01*
Y84714D01*
Y84652D01*
Y84590D01*
Y84528D01*
Y84466D01*
Y84405D01*
Y84343D01*
Y84281D01*
Y84219D01*
Y84158D01*
Y84096D01*
Y84034D01*
Y83972D01*
Y83910D01*
Y83849D01*
Y83787D01*
Y83725D01*
Y83663D01*
Y83601D01*
Y83540D01*
Y83478D01*
Y83416D01*
Y83354D01*
Y83292D01*
Y83231D01*
Y83169D01*
Y83107D01*
Y83045D01*
Y82983D01*
Y82922D01*
Y82860D01*
Y82798D01*
Y82736D01*
Y82674D01*
Y82613D01*
Y82551D01*
Y82489D01*
Y82427D01*
Y82366D01*
Y82304D01*
Y82242D01*
Y82180D01*
Y82118D01*
Y82057D01*
Y81995D01*
Y81933D01*
Y81871D01*
Y81809D01*
Y81748D01*
Y81686D01*
Y81624D01*
Y81562D01*
Y81500D01*
Y81439D01*
Y81377D01*
Y81315D01*
Y81253D01*
Y81191D01*
Y81130D01*
Y81068D01*
Y81006D01*
Y80944D01*
Y80883D01*
Y80821D01*
Y80759D01*
Y80697D01*
Y80635D01*
X27001D01*
Y80697D01*
Y80759D01*
Y80821D01*
Y80883D01*
Y80944D01*
Y81006D01*
Y81068D01*
Y81130D01*
Y81191D01*
Y81253D01*
Y81315D01*
Y81377D01*
Y81439D01*
Y81500D01*
Y81562D01*
Y81624D01*
Y81686D01*
Y81748D01*
Y81809D01*
Y81871D01*
Y81933D01*
Y81995D01*
Y82057D01*
Y82118D01*
Y82180D01*
Y82242D01*
Y82304D01*
Y82366D01*
Y82427D01*
Y82489D01*
Y82551D01*
Y82613D01*
Y82674D01*
Y82736D01*
Y82798D01*
Y82860D01*
Y82922D01*
Y82983D01*
Y83045D01*
Y83107D01*
Y83169D01*
Y83231D01*
Y83292D01*
Y83354D01*
Y83416D01*
Y83478D01*
Y83540D01*
Y83601D01*
Y83663D01*
Y83725D01*
Y83787D01*
Y83849D01*
Y83910D01*
Y83972D01*
Y84034D01*
Y84096D01*
Y84158D01*
Y84219D01*
Y84281D01*
Y84343D01*
Y84405D01*
Y84466D01*
Y84528D01*
Y84590D01*
Y84652D01*
Y84714D01*
Y84776D01*
Y84837D01*
Y84899D01*
Y84961D01*
Y85023D01*
Y85084D01*
Y85146D01*
Y85208D01*
Y85270D01*
Y85332D01*
Y85393D01*
Y85455D01*
Y85517D01*
Y85579D01*
Y85641D01*
Y85702D01*
Y85764D01*
Y85826D01*
Y85888D01*
Y85949D01*
Y86011D01*
Y86073D01*
Y86135D01*
Y86197D01*
Y86259D01*
Y86320D01*
Y86382D01*
Y86444D01*
Y86506D01*
Y86567D01*
Y86629D01*
Y86691D01*
Y86753D01*
Y86815D01*
Y86876D01*
Y86938D01*
Y87000D01*
X26816D01*
Y87062D01*
D02*
G37*
G36*
X74059Y118154D02*
X74029D01*
X73963Y118151D01*
X73903Y118143D01*
X73843Y118129D01*
X73788Y118113D01*
X73737Y118091D01*
X73690Y118069D01*
X73646Y118044D01*
X73608Y118020D01*
X73573Y117995D01*
X73540Y117971D01*
X73515Y117949D01*
X73494Y117927D01*
X73475Y117911D01*
X73464Y117897D01*
X73455Y117889D01*
X73453Y117886D01*
X73428Y117853D01*
X73404Y117815D01*
X73362Y117733D01*
X73333Y117649D01*
X73311Y117564D01*
X73300Y117526D01*
X73294Y117488D01*
X73286Y117455D01*
X73283Y117428D01*
X73278Y117403D01*
Y117387D01*
X73275Y117373D01*
Y117370D01*
X74807D01*
X74801Y117436D01*
X74790Y117496D01*
X74777Y117556D01*
X74760Y117608D01*
X74741Y117660D01*
X74722Y117706D01*
X74700Y117750D01*
X74678Y117788D01*
X74657Y117821D01*
X74638Y117851D01*
X74618Y117878D01*
X74602Y117900D01*
X74586Y117916D01*
X74575Y117927D01*
X74569Y117935D01*
X74567Y117938D01*
X74525Y117976D01*
X74482Y118009D01*
X74435Y118039D01*
X74389Y118064D01*
X74345Y118083D01*
X74299Y118102D01*
X74258Y118115D01*
X74214Y118126D01*
X74176Y118135D01*
X74141Y118143D01*
X74111Y118148D01*
X74080Y118151D01*
X74059Y118154D01*
D02*
G37*
G36*
X65560Y118151D02*
X65544D01*
X65481Y118148D01*
X65421Y118140D01*
X65364Y118126D01*
X65309Y118110D01*
X65257Y118091D01*
X65211Y118069D01*
X65167Y118044D01*
X65129Y118020D01*
X65093Y117995D01*
X65061Y117971D01*
X65033Y117949D01*
X65012Y117930D01*
X64995Y117913D01*
X64981Y117900D01*
X64973Y117892D01*
X64970Y117889D01*
X64930Y117837D01*
X64894Y117780D01*
X64864Y117720D01*
X64837Y117660D01*
X64815Y117594D01*
X64796Y117531D01*
X64779Y117469D01*
X64768Y117408D01*
X64758Y117348D01*
X64749Y117297D01*
X64747Y117247D01*
X64741Y117204D01*
Y117171D01*
X64739Y117144D01*
Y117127D01*
Y117124D01*
Y117122D01*
X64741Y117024D01*
X64749Y116933D01*
X64760Y116849D01*
X64774Y116770D01*
X64790Y116699D01*
X64812Y116633D01*
X64831Y116573D01*
X64853Y116521D01*
X64875Y116475D01*
X64894Y116434D01*
X64913Y116398D01*
X64932Y116371D01*
X64946Y116349D01*
X64957Y116335D01*
X64965Y116325D01*
X64968Y116322D01*
X65012Y116276D01*
X65058Y116235D01*
X65107Y116202D01*
X65153Y116172D01*
X65203Y116144D01*
X65252Y116123D01*
X65298Y116106D01*
X65342Y116093D01*
X65383Y116082D01*
X65421Y116073D01*
X65456Y116068D01*
X65487Y116065D01*
X65511Y116062D01*
X65527Y116060D01*
X65544D01*
X65607Y116062D01*
X65667Y116071D01*
X65727Y116084D01*
X65781Y116101D01*
X65830Y116120D01*
X65880Y116142D01*
X65923Y116166D01*
X65961Y116191D01*
X65997Y116213D01*
X66030Y116237D01*
X66057Y116259D01*
X66079Y116278D01*
X66095Y116295D01*
X66109Y116308D01*
X66117Y116316D01*
X66120Y116319D01*
X66161Y116371D01*
X66194Y116428D01*
X66224Y116488D01*
X66251Y116554D01*
X66273Y116617D01*
X66292Y116682D01*
X66306Y116748D01*
X66319Y116811D01*
X66327Y116871D01*
X66335Y116925D01*
X66338Y116977D01*
X66344Y117021D01*
Y117056D01*
X66347Y117084D01*
Y117092D01*
Y117100D01*
Y117103D01*
Y117105D01*
X66344Y117201D01*
X66335Y117288D01*
X66325Y117373D01*
X66311Y117449D01*
X66295Y117520D01*
X66276Y117583D01*
X66254Y117640D01*
X66232Y117695D01*
X66213Y117739D01*
X66191Y117780D01*
X66172Y117812D01*
X66155Y117840D01*
X66142Y117862D01*
X66131Y117878D01*
X66123Y117886D01*
X66120Y117889D01*
X66076Y117935D01*
X66030Y117976D01*
X65981Y118012D01*
X65934Y118042D01*
X65885Y118066D01*
X65836Y118088D01*
X65790Y118105D01*
X65746Y118118D01*
X65705Y118129D01*
X65667Y118137D01*
X65631Y118143D01*
X65601Y118148D01*
X65577D01*
X65560Y118151D01*
D02*
G37*
G36*
X52366Y119145D02*
X52352D01*
X52292Y119142D01*
X52235Y119131D01*
X52183Y119117D01*
X52131Y119096D01*
X52082Y119074D01*
X52039Y119046D01*
X51998Y119019D01*
X51959Y118992D01*
X51927Y118962D01*
X51897Y118935D01*
X51872Y118907D01*
X51850Y118885D01*
X51834Y118863D01*
X51823Y118850D01*
X51815Y118839D01*
X51812Y118836D01*
X51793Y118806D01*
X51774Y118771D01*
X51757Y118735D01*
X51741Y118694D01*
X51711Y118610D01*
X51686Y118514D01*
X51665Y118413D01*
X51645Y118309D01*
X51632Y118206D01*
X51621Y118105D01*
X51613Y118003D01*
X51604Y117911D01*
X51599Y117826D01*
Y117785D01*
X51596Y117750D01*
Y117717D01*
X51594Y117687D01*
Y117662D01*
Y117640D01*
Y117624D01*
Y117610D01*
Y117602D01*
Y117599D01*
Y117515D01*
X51596Y117433D01*
X51599Y117354D01*
X51602Y117280D01*
X51607Y117209D01*
X51613Y117141D01*
X51621Y117075D01*
X51626Y117015D01*
X51635Y116955D01*
X51645Y116901D01*
X51654Y116849D01*
X51662Y116800D01*
X51673Y116753D01*
X51684Y116712D01*
X51692Y116671D01*
X51703Y116633D01*
X51722Y116565D01*
X51744Y116510D01*
X51760Y116464D01*
X51776Y116426D01*
X51793Y116398D01*
X51804Y116379D01*
X51809Y116366D01*
X51812Y116363D01*
X51853Y116308D01*
X51897Y116262D01*
X51943Y116221D01*
X51987Y116185D01*
X52033Y116155D01*
X52077Y116131D01*
X52120Y116112D01*
X52161Y116095D01*
X52200Y116082D01*
X52235Y116073D01*
X52268Y116065D01*
X52295Y116062D01*
X52317Y116060D01*
X52333Y116057D01*
X52347D01*
X52404Y116060D01*
X52462Y116071D01*
X52516Y116084D01*
X52565Y116106D01*
X52614Y116128D01*
X52658Y116153D01*
X52699Y116183D01*
X52735Y116210D01*
X52770Y116237D01*
X52798Y116267D01*
X52825Y116292D01*
X52847Y116316D01*
X52863Y116335D01*
X52874Y116349D01*
X52882Y116360D01*
X52885Y116363D01*
X52904Y116393D01*
X52923Y116428D01*
X52939Y116464D01*
X52956Y116505D01*
X52986Y116589D01*
X53010Y116685D01*
X53030Y116786D01*
X53049Y116890D01*
X53062Y116993D01*
X53073Y117097D01*
X53081Y117195D01*
X53090Y117288D01*
X53095Y117376D01*
Y117414D01*
X53098Y117449D01*
Y117482D01*
Y117512D01*
X53101Y117537D01*
Y117559D01*
Y117578D01*
Y117589D01*
Y117597D01*
Y117599D01*
Y117684D01*
X53098Y117766D01*
X53095Y117845D01*
X53090Y117922D01*
X53084Y117993D01*
X53079Y118061D01*
X53070Y118126D01*
X53062Y118189D01*
X53054Y118249D01*
X53046Y118307D01*
X53035Y118361D01*
X53024Y118410D01*
X53016Y118459D01*
X53005Y118503D01*
X52994Y118547D01*
X52980Y118585D01*
X52959Y118656D01*
X52937Y118716D01*
X52918Y118765D01*
X52901Y118806D01*
X52885Y118836D01*
X52874Y118858D01*
X52866Y118872D01*
X52863Y118874D01*
X52825Y118921D01*
X52786Y118965D01*
X52746Y119000D01*
X52702Y119030D01*
X52661Y119057D01*
X52617Y119079D01*
X52576Y119096D01*
X52535Y119112D01*
X52497Y119123D01*
X52464Y119131D01*
X52432Y119137D01*
X52404Y119139D01*
X52382Y119142D01*
X52366Y119145D01*
D02*
G37*
G36*
X74160Y113557D02*
X74130D01*
X74064Y113554D01*
X74004Y113546D01*
X73944Y113532D01*
X73889Y113516D01*
X73838Y113494D01*
X73791Y113472D01*
X73747Y113448D01*
X73709Y113423D01*
X73674Y113399D01*
X73641Y113374D01*
X73616Y113352D01*
X73595Y113330D01*
X73576Y113314D01*
X73565Y113300D01*
X73556Y113292D01*
X73554Y113289D01*
X73529Y113257D01*
X73505Y113218D01*
X73464Y113136D01*
X73434Y113052D01*
X73412Y112967D01*
X73401Y112929D01*
X73395Y112891D01*
X73387Y112858D01*
X73384Y112831D01*
X73379Y112806D01*
Y112790D01*
X73376Y112776D01*
Y112773D01*
X74908D01*
X74902Y112839D01*
X74891Y112899D01*
X74878Y112959D01*
X74861Y113011D01*
X74842Y113063D01*
X74823Y113109D01*
X74801Y113153D01*
X74779Y113191D01*
X74758Y113224D01*
X74739Y113254D01*
X74719Y113281D01*
X74703Y113303D01*
X74687Y113319D01*
X74676Y113330D01*
X74670Y113338D01*
X74668Y113341D01*
X74626Y113380D01*
X74583Y113412D01*
X74537Y113442D01*
X74490Y113467D01*
X74446Y113486D01*
X74400Y113505D01*
X74359Y113519D01*
X74315Y113530D01*
X74277Y113538D01*
X74242Y113546D01*
X74212Y113551D01*
X74182Y113554D01*
X74160Y113557D01*
D02*
G37*
G36*
X78500Y114502D02*
X77307D01*
X77231Y114499D01*
X77160Y114493D01*
X77095Y114485D01*
X77034Y114474D01*
X76980Y114461D01*
X76928Y114447D01*
X76881Y114430D01*
X76843Y114414D01*
X76808Y114398D01*
X76778Y114381D01*
X76750Y114368D01*
X76729Y114354D01*
X76715Y114343D01*
X76701Y114335D01*
X76696Y114330D01*
X76693Y114327D01*
X76658Y114294D01*
X76628Y114259D01*
X76603Y114223D01*
X76578Y114185D01*
X76559Y114149D01*
X76546Y114111D01*
X76532Y114076D01*
X76521Y114043D01*
X76513Y114010D01*
X76508Y113980D01*
X76502Y113955D01*
X76499Y113931D01*
X76497Y113912D01*
Y113898D01*
Y113890D01*
Y113887D01*
X76502Y113819D01*
X76513Y113756D01*
X76529Y113699D01*
X76546Y113650D01*
X76565Y113609D01*
X76573Y113590D01*
X76581Y113576D01*
X76589Y113565D01*
X76592Y113557D01*
X76598Y113551D01*
Y113549D01*
X76639Y113494D01*
X76685Y113448D01*
X76734Y113409D01*
X76783Y113377D01*
X76827Y113352D01*
X76843Y113344D01*
X76860Y113336D01*
X76873Y113330D01*
X76884Y113325D01*
X76890Y113322D01*
X76892D01*
X76931Y113311D01*
X76969Y113300D01*
X77056Y113284D01*
X77146Y113270D01*
X77231Y113262D01*
X77272Y113259D01*
X77307Y113257D01*
X77343D01*
X77370Y113254D01*
X78500D01*
Y114502D01*
D02*
G37*
G36*
X63608Y113554D02*
X63592D01*
X63529Y113551D01*
X63469Y113543D01*
X63412Y113530D01*
X63357Y113513D01*
X63305Y113494D01*
X63259Y113472D01*
X63215Y113448D01*
X63177Y113423D01*
X63141Y113399D01*
X63109Y113374D01*
X63081Y113352D01*
X63060Y113333D01*
X63043Y113317D01*
X63029Y113303D01*
X63021Y113295D01*
X63019Y113292D01*
X62978Y113240D01*
X62942Y113183D01*
X62912Y113123D01*
X62885Y113063D01*
X62863Y112997D01*
X62844Y112935D01*
X62827Y112872D01*
X62817Y112812D01*
X62806Y112752D01*
X62797Y112700D01*
X62795Y112651D01*
X62789Y112607D01*
Y112574D01*
X62787Y112547D01*
Y112530D01*
Y112528D01*
Y112525D01*
X62789Y112427D01*
X62797Y112337D01*
X62808Y112252D01*
X62822Y112173D01*
X62838Y112102D01*
X62860Y112036D01*
X62879Y111976D01*
X62901Y111924D01*
X62923Y111878D01*
X62942Y111837D01*
X62961Y111802D01*
X62980Y111774D01*
X62994Y111752D01*
X63005Y111739D01*
X63013Y111728D01*
X63016Y111725D01*
X63060Y111679D01*
X63106Y111638D01*
X63155Y111605D01*
X63201Y111575D01*
X63251Y111548D01*
X63300Y111526D01*
X63346Y111509D01*
X63390Y111496D01*
X63431Y111485D01*
X63469Y111477D01*
X63504Y111471D01*
X63535Y111469D01*
X63559Y111466D01*
X63576Y111463D01*
X63592D01*
X63655Y111466D01*
X63715Y111474D01*
X63775Y111488D01*
X63829Y111504D01*
X63879Y111523D01*
X63928Y111545D01*
X63971Y111569D01*
X64010Y111594D01*
X64045Y111616D01*
X64078Y111641D01*
X64105Y111662D01*
X64127Y111681D01*
X64143Y111698D01*
X64157Y111711D01*
X64165Y111720D01*
X64168Y111722D01*
X64209Y111774D01*
X64242Y111832D01*
X64272Y111892D01*
X64299Y111957D01*
X64321Y112020D01*
X64340Y112085D01*
X64354Y112151D01*
X64367Y112214D01*
X64375Y112274D01*
X64384Y112328D01*
X64386Y112380D01*
X64392Y112424D01*
Y112460D01*
X64394Y112487D01*
Y112495D01*
Y112503D01*
Y112506D01*
Y112509D01*
X64392Y112604D01*
X64384Y112691D01*
X64373Y112776D01*
X64359Y112853D01*
X64343Y112924D01*
X64324Y112986D01*
X64302Y113044D01*
X64280Y113098D01*
X64261Y113142D01*
X64239Y113183D01*
X64220Y113216D01*
X64203Y113243D01*
X64190Y113265D01*
X64179Y113281D01*
X64171Y113289D01*
X64168Y113292D01*
X64124Y113338D01*
X64078Y113380D01*
X64029Y113415D01*
X63982Y113445D01*
X63933Y113470D01*
X63884Y113491D01*
X63838Y113508D01*
X63794Y113521D01*
X63753Y113532D01*
X63715Y113540D01*
X63679Y113546D01*
X63649Y113551D01*
X63625D01*
X63608Y113554D01*
D02*
G37*
G36*
X60925Y108575D02*
X60911D01*
X60854Y108572D01*
X60796Y108564D01*
X60745Y108553D01*
X60695Y108540D01*
X60649Y108523D01*
X60605Y108504D01*
X60567Y108482D01*
X60529Y108463D01*
X60499Y108441D01*
X60469Y108420D01*
X60444Y108400D01*
X60425Y108384D01*
X60409Y108370D01*
X60395Y108360D01*
X60390Y108351D01*
X60387Y108349D01*
X60349Y108305D01*
X60319Y108256D01*
X60289Y108207D01*
X60264Y108158D01*
X60245Y108106D01*
X60229Y108054D01*
X60215Y108005D01*
X60204Y107956D01*
X60193Y107909D01*
X60188Y107868D01*
X60182Y107830D01*
X60179Y107797D01*
X60177Y107770D01*
Y107748D01*
Y107737D01*
Y107732D01*
X60179Y107658D01*
X60185Y107587D01*
X60196Y107521D01*
X60209Y107459D01*
X60226Y107401D01*
X60245Y107350D01*
X60264Y107300D01*
X60283Y107257D01*
X60302Y107218D01*
X60321Y107183D01*
X60340Y107156D01*
X60357Y107131D01*
X60370Y107112D01*
X60381Y107098D01*
X60387Y107090D01*
X60390Y107087D01*
X60431Y107046D01*
X60471Y107011D01*
X60515Y106978D01*
X60556Y106951D01*
X60600Y106929D01*
X60641Y106910D01*
X60682Y106894D01*
X60720Y106883D01*
X60758Y106872D01*
X60791Y106866D01*
X60821Y106861D01*
X60846Y106855D01*
X60865D01*
X60881Y106853D01*
X60895D01*
X60968Y106858D01*
X61039Y106869D01*
X61105Y106888D01*
X61162Y106910D01*
X61190Y106918D01*
X61211Y106929D01*
X61230Y106940D01*
X61247Y106948D01*
X61260Y106954D01*
X61271Y106959D01*
X61277Y106965D01*
X61280D01*
X61342Y107011D01*
X61400Y107065D01*
X61449Y107120D01*
X61487Y107175D01*
X61520Y107224D01*
X61531Y107243D01*
X61542Y107262D01*
X61550Y107276D01*
X61555Y107289D01*
X61561Y107295D01*
Y107298D01*
X61594Y107382D01*
X61618Y107464D01*
X61637Y107541D01*
X61648Y107612D01*
X61654Y107642D01*
X61656Y107672D01*
X61659Y107696D01*
Y107718D01*
X61662Y107734D01*
Y107748D01*
Y107756D01*
Y107759D01*
X61659Y107825D01*
X61654Y107887D01*
X61643Y107947D01*
X61626Y108005D01*
X61610Y108056D01*
X61594Y108106D01*
X61572Y108149D01*
X61553Y108190D01*
X61533Y108226D01*
X61512Y108258D01*
X61495Y108286D01*
X61476Y108308D01*
X61462Y108324D01*
X61452Y108338D01*
X61446Y108346D01*
X61443Y108349D01*
X61402Y108390D01*
X61359Y108422D01*
X61312Y108455D01*
X61269Y108480D01*
X61222Y108502D01*
X61179Y108521D01*
X61135Y108534D01*
X61094Y108548D01*
X61056Y108556D01*
X61023Y108564D01*
X60990Y108567D01*
X60963Y108572D01*
X60941D01*
X60925Y108575D01*
D02*
G37*
G36*
X73505Y107906D02*
X73502D01*
Y107734D01*
Y107680D01*
X73505Y107628D01*
X73510Y107579D01*
X73513Y107532D01*
X73518Y107491D01*
X73526Y107453D01*
X73532Y107420D01*
X73540Y107390D01*
X73548Y107363D01*
X73554Y107339D01*
X73559Y107319D01*
X73567Y107303D01*
X73570Y107289D01*
X73576Y107281D01*
X73578Y107276D01*
Y107273D01*
X73619Y107199D01*
X73668Y107136D01*
X73717Y107082D01*
X73767Y107036D01*
X73813Y107000D01*
X73832Y106984D01*
X73851Y106973D01*
X73865Y106962D01*
X73876Y106956D01*
X73881Y106954D01*
X73884Y106951D01*
X73963Y106913D01*
X74045Y106885D01*
X74127Y106863D01*
X74201Y106850D01*
X74233Y106847D01*
X74266Y106842D01*
X74294Y106839D01*
X74315D01*
X74334Y106836D01*
X74362D01*
X74411Y106839D01*
X74457Y106842D01*
X74501Y106847D01*
X74539Y106855D01*
X74577Y106863D01*
X74610Y106874D01*
X74640Y106885D01*
X74668Y106899D01*
X74692Y106910D01*
X74714Y106921D01*
X74730Y106932D01*
X74744Y106940D01*
X74758Y106948D01*
X74766Y106954D01*
X74769Y106959D01*
X74771D01*
X74796Y106984D01*
X74818Y107008D01*
X74837Y107033D01*
X74850Y107060D01*
X74878Y107112D01*
X74894Y107158D01*
X74902Y107202D01*
X74905Y107221D01*
X74908Y107238D01*
X74910Y107248D01*
Y107259D01*
Y107265D01*
Y107268D01*
X74908Y107311D01*
X74900Y107352D01*
X74891Y107390D01*
X74878Y107423D01*
X74867Y107448D01*
X74859Y107470D01*
X74850Y107481D01*
X74848Y107486D01*
X74820Y107521D01*
X74790Y107552D01*
X74760Y107579D01*
X74730Y107598D01*
X74706Y107614D01*
X74684Y107628D01*
X74670Y107633D01*
X74665Y107636D01*
X74640Y107647D01*
X74613Y107655D01*
X74553Y107672D01*
X74485Y107688D01*
X74419Y107702D01*
X74356Y107712D01*
X74332Y107718D01*
X74307Y107721D01*
X74288Y107726D01*
X74274D01*
X74264Y107729D01*
X74261D01*
X74168Y107743D01*
X74083Y107759D01*
X74004Y107773D01*
X73928Y107789D01*
X73862Y107803D01*
X73799Y107816D01*
X73742Y107833D01*
X73693Y107846D01*
X73646Y107857D01*
X73608Y107871D01*
X73576Y107879D01*
X73548Y107890D01*
X73529Y107896D01*
X73513Y107901D01*
X73505Y107906D01*
D02*
G37*
G36*
X69751Y108949D02*
X69721D01*
X69655Y108947D01*
X69595Y108938D01*
X69535Y108925D01*
X69481Y108908D01*
X69429Y108886D01*
X69382Y108865D01*
X69339Y108840D01*
X69300Y108816D01*
X69265Y108791D01*
X69232Y108766D01*
X69208Y108745D01*
X69186Y108723D01*
X69166Y108706D01*
X69156Y108693D01*
X69147Y108684D01*
X69145Y108682D01*
X69120Y108649D01*
X69096Y108611D01*
X69055Y108529D01*
X69025Y108444D01*
X69003Y108360D01*
X68992Y108321D01*
X68986Y108283D01*
X68978Y108250D01*
X68975Y108223D01*
X68970Y108198D01*
Y108182D01*
X68967Y108168D01*
Y108166D01*
X70499D01*
X70493Y108231D01*
X70482Y108291D01*
X70469Y108351D01*
X70452Y108403D01*
X70433Y108455D01*
X70414Y108502D01*
X70392Y108545D01*
X70371Y108583D01*
X70349Y108616D01*
X70329Y108646D01*
X70310Y108674D01*
X70294Y108695D01*
X70278Y108712D01*
X70267Y108723D01*
X70261Y108731D01*
X70258Y108734D01*
X70218Y108772D01*
X70174Y108805D01*
X70127Y108835D01*
X70081Y108859D01*
X70037Y108878D01*
X69991Y108897D01*
X69950Y108911D01*
X69906Y108922D01*
X69868Y108930D01*
X69833Y108938D01*
X69803Y108944D01*
X69773Y108947D01*
X69751Y108949D01*
D02*
G37*
G36*
X78500Y109866D02*
X77627D01*
X77553Y109864D01*
X77485Y109858D01*
X77419Y109856D01*
X77362Y109847D01*
X77307Y109842D01*
X77261Y109834D01*
X77217Y109828D01*
X77182Y109820D01*
X77149Y109812D01*
X77122Y109806D01*
X77100Y109801D01*
X77083Y109795D01*
X77070Y109790D01*
X77064Y109787D01*
X77062D01*
X77010Y109766D01*
X76961Y109738D01*
X76914Y109708D01*
X76871Y109675D01*
X76830Y109640D01*
X76789Y109604D01*
X76753Y109569D01*
X76720Y109533D01*
X76690Y109498D01*
X76666Y109465D01*
X76644Y109435D01*
X76625Y109411D01*
X76609Y109389D01*
X76598Y109372D01*
X76592Y109362D01*
X76589Y109359D01*
X76554Y109296D01*
X76524Y109228D01*
X76499Y109157D01*
X76475Y109083D01*
X76456Y109007D01*
X76442Y108933D01*
X76428Y108856D01*
X76417Y108785D01*
X76409Y108717D01*
X76404Y108654D01*
X76398Y108597D01*
X76396Y108548D01*
X76393Y108507D01*
Y108491D01*
Y108477D01*
Y108463D01*
Y108455D01*
Y108452D01*
Y108450D01*
Y108370D01*
X76398Y108294D01*
X76401Y108223D01*
X76409Y108155D01*
X76417Y108092D01*
X76426Y108032D01*
X76434Y107975D01*
X76442Y107925D01*
X76453Y107879D01*
X76461Y107838D01*
X76469Y107803D01*
X76477Y107775D01*
X76486Y107751D01*
X76488Y107734D01*
X76494Y107723D01*
Y107721D01*
X76513Y107666D01*
X76535Y107614D01*
X76557Y107565D01*
X76578Y107519D01*
X76600Y107478D01*
X76625Y107437D01*
X76647Y107401D01*
X76669Y107369D01*
X76690Y107341D01*
X76710Y107314D01*
X76726Y107292D01*
X76740Y107276D01*
X76753Y107262D01*
X76761Y107251D01*
X76767Y107246D01*
X76770Y107243D01*
X76822Y107199D01*
X76876Y107158D01*
X76933Y107126D01*
X76988Y107098D01*
X77037Y107076D01*
X77056Y107065D01*
X77075Y107060D01*
X77089Y107055D01*
X77103Y107049D01*
X77108Y107046D01*
X77111D01*
X77152Y107036D01*
X77196Y107025D01*
X77291Y107008D01*
X77389Y106995D01*
X77482Y106986D01*
X77526Y106984D01*
X77567Y106981D01*
X77602D01*
X77632Y106978D01*
X78500D01*
Y109866D01*
D02*
G37*
G36*
X63898Y109940D02*
X63884D01*
X63824Y109938D01*
X63767Y109927D01*
X63715Y109913D01*
X63663Y109891D01*
X63614Y109869D01*
X63570Y109842D01*
X63529Y109815D01*
X63491Y109787D01*
X63458Y109757D01*
X63428Y109730D01*
X63403Y109703D01*
X63382Y109681D01*
X63365Y109659D01*
X63354Y109645D01*
X63346Y109634D01*
X63343Y109632D01*
X63324Y109602D01*
X63305Y109566D01*
X63289Y109531D01*
X63273Y109490D01*
X63242Y109405D01*
X63218Y109310D01*
X63196Y109209D01*
X63177Y109105D01*
X63163Y109001D01*
X63152Y108900D01*
X63144Y108799D01*
X63136Y108706D01*
X63130Y108622D01*
Y108581D01*
X63128Y108545D01*
Y108512D01*
X63125Y108482D01*
Y108458D01*
Y108436D01*
Y108420D01*
Y108406D01*
Y108398D01*
Y108395D01*
Y108310D01*
X63128Y108229D01*
X63130Y108149D01*
X63133Y108076D01*
X63139Y108005D01*
X63144Y107936D01*
X63152Y107871D01*
X63158Y107811D01*
X63166Y107751D01*
X63177Y107696D01*
X63185Y107644D01*
X63193Y107595D01*
X63204Y107549D01*
X63215Y107508D01*
X63223Y107467D01*
X63234Y107429D01*
X63253Y107360D01*
X63275Y107306D01*
X63292Y107259D01*
X63308Y107221D01*
X63324Y107194D01*
X63335Y107175D01*
X63341Y107161D01*
X63343Y107158D01*
X63384Y107104D01*
X63428Y107057D01*
X63475Y107016D01*
X63518Y106981D01*
X63565Y106951D01*
X63608Y106926D01*
X63652Y106907D01*
X63693Y106891D01*
X63731Y106877D01*
X63767Y106869D01*
X63799Y106861D01*
X63827Y106858D01*
X63849Y106855D01*
X63865Y106853D01*
X63879D01*
X63936Y106855D01*
X63993Y106866D01*
X64048Y106880D01*
X64097Y106902D01*
X64146Y106924D01*
X64190Y106948D01*
X64231Y106978D01*
X64266Y107006D01*
X64302Y107033D01*
X64329Y107063D01*
X64356Y107087D01*
X64378Y107112D01*
X64394Y107131D01*
X64405Y107145D01*
X64414Y107156D01*
X64416Y107158D01*
X64435Y107188D01*
X64455Y107224D01*
X64471Y107259D01*
X64487Y107300D01*
X64517Y107385D01*
X64542Y107481D01*
X64561Y107581D01*
X64580Y107685D01*
X64594Y107789D01*
X64605Y107893D01*
X64613Y107991D01*
X64621Y108084D01*
X64626Y108171D01*
Y108209D01*
X64629Y108245D01*
Y108278D01*
Y108308D01*
X64632Y108332D01*
Y108354D01*
Y108373D01*
Y108384D01*
Y108392D01*
Y108395D01*
Y108480D01*
X64629Y108562D01*
X64626Y108641D01*
X64621Y108717D01*
X64616Y108788D01*
X64610Y108856D01*
X64602Y108922D01*
X64594Y108985D01*
X64586Y109045D01*
X64577Y109102D01*
X64566Y109157D01*
X64556Y109206D01*
X64547Y109255D01*
X64536Y109299D01*
X64526Y109342D01*
X64512Y109381D01*
X64490Y109451D01*
X64468Y109512D01*
X64449Y109561D01*
X64433Y109602D01*
X64416Y109632D01*
X64405Y109654D01*
X64397Y109667D01*
X64394Y109670D01*
X64356Y109716D01*
X64318Y109760D01*
X64277Y109795D01*
X64233Y109826D01*
X64192Y109853D01*
X64149Y109875D01*
X64108Y109891D01*
X64067Y109907D01*
X64029Y109918D01*
X63996Y109927D01*
X63963Y109932D01*
X63936Y109935D01*
X63914Y109938D01*
X63898Y109940D01*
D02*
G37*
G36*
X56562D02*
X56549D01*
X56488Y109938D01*
X56431Y109927D01*
X56379Y109913D01*
X56327Y109891D01*
X56278Y109869D01*
X56235Y109842D01*
X56194Y109815D01*
X56155Y109787D01*
X56123Y109757D01*
X56093Y109730D01*
X56068Y109703D01*
X56046Y109681D01*
X56030Y109659D01*
X56019Y109645D01*
X56011Y109634D01*
X56008Y109632D01*
X55989Y109602D01*
X55970Y109566D01*
X55953Y109531D01*
X55937Y109490D01*
X55907Y109405D01*
X55882Y109310D01*
X55861Y109209D01*
X55841Y109105D01*
X55828Y109001D01*
X55817Y108900D01*
X55809Y108799D01*
X55800Y108706D01*
X55795Y108622D01*
Y108581D01*
X55792Y108545D01*
Y108512D01*
X55790Y108482D01*
Y108458D01*
Y108436D01*
Y108420D01*
Y108406D01*
Y108398D01*
Y108395D01*
Y108310D01*
X55792Y108229D01*
X55795Y108149D01*
X55798Y108076D01*
X55803Y108005D01*
X55809Y107936D01*
X55817Y107871D01*
X55822Y107811D01*
X55831Y107751D01*
X55841Y107696D01*
X55850Y107644D01*
X55858Y107595D01*
X55869Y107549D01*
X55880Y107508D01*
X55888Y107467D01*
X55899Y107429D01*
X55918Y107360D01*
X55940Y107306D01*
X55956Y107259D01*
X55972Y107221D01*
X55989Y107194D01*
X56000Y107175D01*
X56005Y107161D01*
X56008Y107158D01*
X56049Y107104D01*
X56093Y107057D01*
X56139Y107016D01*
X56183Y106981D01*
X56229Y106951D01*
X56273Y106926D01*
X56316Y106907D01*
X56357Y106891D01*
X56396Y106877D01*
X56431Y106869D01*
X56464Y106861D01*
X56491Y106858D01*
X56513Y106855D01*
X56529Y106853D01*
X56543D01*
X56600Y106855D01*
X56658Y106866D01*
X56712Y106880D01*
X56761Y106902D01*
X56811Y106924D01*
X56854Y106948D01*
X56895Y106978D01*
X56931Y107006D01*
X56966Y107033D01*
X56994Y107063D01*
X57021Y107087D01*
X57043Y107112D01*
X57059Y107131D01*
X57070Y107145D01*
X57078Y107156D01*
X57081Y107158D01*
X57100Y107188D01*
X57119Y107224D01*
X57135Y107259D01*
X57152Y107300D01*
X57182Y107385D01*
X57206Y107481D01*
X57226Y107581D01*
X57245Y107685D01*
X57258Y107789D01*
X57269Y107893D01*
X57277Y107991D01*
X57286Y108084D01*
X57291Y108171D01*
Y108209D01*
X57294Y108245D01*
Y108278D01*
Y108308D01*
X57297Y108332D01*
Y108354D01*
Y108373D01*
Y108384D01*
Y108392D01*
Y108395D01*
Y108480D01*
X57294Y108562D01*
X57291Y108641D01*
X57286Y108717D01*
X57280Y108788D01*
X57275Y108856D01*
X57266Y108922D01*
X57258Y108985D01*
X57250Y109045D01*
X57242Y109102D01*
X57231Y109157D01*
X57220Y109206D01*
X57212Y109255D01*
X57201Y109299D01*
X57190Y109342D01*
X57176Y109381D01*
X57155Y109451D01*
X57133Y109512D01*
X57114Y109561D01*
X57097Y109602D01*
X57081Y109632D01*
X57070Y109654D01*
X57062Y109667D01*
X57059Y109670D01*
X57021Y109716D01*
X56983Y109760D01*
X56942Y109795D01*
X56898Y109826D01*
X56857Y109853D01*
X56813Y109875D01*
X56772Y109891D01*
X56731Y109907D01*
X56693Y109918D01*
X56660Y109927D01*
X56628Y109932D01*
X56600Y109935D01*
X56578Y109938D01*
X56562Y109940D01*
D02*
G37*
G36*
X53627Y109943D02*
X53603D01*
X53554Y109940D01*
X53510Y109935D01*
X53466Y109927D01*
X53423Y109916D01*
X53384Y109902D01*
X53349Y109888D01*
X53316Y109872D01*
X53286Y109856D01*
X53259Y109839D01*
X53234Y109823D01*
X53215Y109809D01*
X53196Y109795D01*
X53185Y109785D01*
X53174Y109776D01*
X53169Y109771D01*
X53166Y109768D01*
X53136Y109736D01*
X53109Y109700D01*
X53084Y109664D01*
X53062Y109629D01*
X53046Y109591D01*
X53032Y109555D01*
X53010Y109490D01*
X53002Y109457D01*
X52997Y109430D01*
X52994Y109405D01*
X52991Y109383D01*
X52989Y109364D01*
Y109351D01*
Y109342D01*
Y109340D01*
X52991Y109296D01*
X52997Y109252D01*
X53005Y109211D01*
X53016Y109173D01*
X53043Y109102D01*
X53060Y109072D01*
X53073Y109042D01*
X53090Y109018D01*
X53106Y108993D01*
X53120Y108974D01*
X53133Y108957D01*
X53144Y108944D01*
X53152Y108936D01*
X53158Y108930D01*
X53161Y108927D01*
X53193Y108897D01*
X53229Y108873D01*
X53264Y108851D01*
X53300Y108832D01*
X53338Y108816D01*
X53373Y108802D01*
X53442Y108783D01*
X53474Y108774D01*
X53505Y108769D01*
X53529Y108766D01*
X53554Y108764D01*
X53573Y108761D01*
X53597D01*
X53646Y108764D01*
X53696Y108769D01*
X53742Y108777D01*
X53783Y108788D01*
X53824Y108799D01*
X53859Y108816D01*
X53895Y108829D01*
X53925Y108845D01*
X53952Y108862D01*
X53977Y108876D01*
X53996Y108892D01*
X54015Y108903D01*
X54026Y108914D01*
X54037Y108922D01*
X54042Y108927D01*
X54045Y108930D01*
X54075Y108963D01*
X54100Y108998D01*
X54124Y109034D01*
X54143Y109069D01*
X54160Y109108D01*
X54173Y109143D01*
X54193Y109211D01*
X54201Y109244D01*
X54206Y109274D01*
X54209Y109299D01*
X54212Y109323D01*
X54214Y109342D01*
Y109356D01*
Y109364D01*
Y109367D01*
X54212Y109411D01*
X54206Y109451D01*
X54198Y109493D01*
X54187Y109528D01*
X54160Y109599D01*
X54143Y109629D01*
X54127Y109656D01*
X54113Y109684D01*
X54097Y109705D01*
X54083Y109724D01*
X54070Y109741D01*
X54059Y109755D01*
X54050Y109763D01*
X54045Y109768D01*
X54042Y109771D01*
X54010Y109801D01*
X53974Y109828D01*
X53936Y109850D01*
X53900Y109869D01*
X53862Y109888D01*
X53827Y109902D01*
X53756Y109921D01*
X53726Y109929D01*
X53696Y109935D01*
X53668Y109938D01*
X53646Y109940D01*
X53627Y109943D01*
D02*
G37*
G36*
X53646Y108381D02*
X53614D01*
X53551Y108379D01*
X53494Y108373D01*
X53436Y108362D01*
X53384Y108346D01*
X53335Y108329D01*
X53289Y108310D01*
X53248Y108291D01*
X53210Y108272D01*
X53174Y108250D01*
X53144Y108231D01*
X53120Y108212D01*
X53098Y108196D01*
X53079Y108182D01*
X53068Y108171D01*
X53060Y108163D01*
X53057Y108160D01*
X53019Y108119D01*
X52983Y108073D01*
X52953Y108029D01*
X52929Y107983D01*
X52907Y107936D01*
X52887Y107890D01*
X52874Y107846D01*
X52860Y107803D01*
X52852Y107762D01*
X52844Y107726D01*
X52838Y107693D01*
X52836Y107663D01*
Y107642D01*
X52833Y107623D01*
Y107612D01*
Y107609D01*
X52836Y107549D01*
X52841Y107491D01*
X52852Y107437D01*
X52866Y107385D01*
X52882Y107336D01*
X52901Y107292D01*
X52920Y107251D01*
X52939Y107213D01*
X52961Y107180D01*
X52980Y107150D01*
X53000Y107126D01*
X53016Y107104D01*
X53030Y107087D01*
X53040Y107076D01*
X53046Y107068D01*
X53049Y107065D01*
X53090Y107027D01*
X53133Y106995D01*
X53180Y106967D01*
X53226Y106943D01*
X53272Y106921D01*
X53316Y106904D01*
X53363Y106891D01*
X53404Y106880D01*
X53444Y106872D01*
X53480Y106863D01*
X53513Y106858D01*
X53543Y106855D01*
X53565D01*
X53584Y106853D01*
X53597D01*
X53676Y106858D01*
X53750Y106869D01*
X53816Y106885D01*
X53876Y106904D01*
X53903Y106913D01*
X53925Y106921D01*
X53947Y106929D01*
X53963Y106937D01*
X53977Y106945D01*
X53988Y106948D01*
X53993Y106954D01*
X53996D01*
X54062Y106995D01*
X54119Y107041D01*
X54165Y107090D01*
X54203Y107134D01*
X54236Y107177D01*
X54247Y107194D01*
X54258Y107210D01*
X54264Y107224D01*
X54269Y107232D01*
X54274Y107238D01*
Y107240D01*
X54304Y107311D01*
X54329Y107379D01*
X54345Y107442D01*
X54356Y107502D01*
X54359Y107527D01*
X54362Y107552D01*
X54365Y107571D01*
Y107590D01*
X54367Y107603D01*
Y107614D01*
Y107620D01*
Y107623D01*
X54365Y107683D01*
X54359Y107740D01*
X54348Y107792D01*
X54334Y107844D01*
X54318Y107893D01*
X54299Y107936D01*
X54280Y107977D01*
X54261Y108016D01*
X54242Y108048D01*
X54223Y108078D01*
X54203Y108103D01*
X54187Y108125D01*
X54173Y108141D01*
X54163Y108152D01*
X54157Y108160D01*
X54154Y108163D01*
X54113Y108201D01*
X54070Y108234D01*
X54026Y108264D01*
X53979Y108289D01*
X53933Y108310D01*
X53890Y108329D01*
X53846Y108343D01*
X53805Y108354D01*
X53764Y108362D01*
X53728Y108370D01*
X53696Y108376D01*
X53668Y108379D01*
X53646Y108381D01*
D02*
G37*
G36*
X46292Y109940D02*
X46278D01*
X46218Y109938D01*
X46161Y109927D01*
X46109Y109913D01*
X46057Y109891D01*
X46008Y109869D01*
X45964Y109842D01*
X45923Y109815D01*
X45885Y109787D01*
X45852Y109757D01*
X45822Y109730D01*
X45798Y109703D01*
X45776Y109681D01*
X45759Y109659D01*
X45749Y109645D01*
X45740Y109634D01*
X45738Y109632D01*
X45719Y109602D01*
X45700Y109566D01*
X45683Y109531D01*
X45667Y109490D01*
X45637Y109405D01*
X45612Y109310D01*
X45590Y109209D01*
X45571Y109105D01*
X45557Y109001D01*
X45547Y108900D01*
X45538Y108799D01*
X45530Y108706D01*
X45525Y108622D01*
Y108581D01*
X45522Y108545D01*
Y108512D01*
X45519Y108482D01*
Y108458D01*
Y108436D01*
Y108420D01*
Y108406D01*
Y108398D01*
Y108395D01*
Y108310D01*
X45522Y108229D01*
X45525Y108149D01*
X45527Y108076D01*
X45533Y108005D01*
X45538Y107936D01*
X45547Y107871D01*
X45552Y107811D01*
X45560Y107751D01*
X45571Y107696D01*
X45579Y107644D01*
X45588Y107595D01*
X45599Y107549D01*
X45609Y107508D01*
X45618Y107467D01*
X45628Y107429D01*
X45648Y107360D01*
X45669Y107306D01*
X45686Y107259D01*
X45702Y107221D01*
X45719Y107194D01*
X45730Y107175D01*
X45735Y107161D01*
X45738Y107158D01*
X45779Y107104D01*
X45822Y107057D01*
X45869Y107016D01*
X45912Y106981D01*
X45959Y106951D01*
X46003Y106926D01*
X46046Y106907D01*
X46087Y106891D01*
X46125Y106877D01*
X46161Y106869D01*
X46194Y106861D01*
X46221Y106858D01*
X46243Y106855D01*
X46259Y106853D01*
X46273D01*
X46330Y106855D01*
X46387Y106866D01*
X46442Y106880D01*
X46491Y106902D01*
X46540Y106924D01*
X46584Y106948D01*
X46625Y106978D01*
X46660Y107006D01*
X46696Y107033D01*
X46723Y107063D01*
X46751Y107087D01*
X46772Y107112D01*
X46789Y107131D01*
X46800Y107145D01*
X46808Y107156D01*
X46811Y107158D01*
X46830Y107188D01*
X46849Y107224D01*
X46865Y107259D01*
X46881Y107300D01*
X46912Y107385D01*
X46936Y107481D01*
X46955Y107581D01*
X46974Y107685D01*
X46988Y107789D01*
X46999Y107893D01*
X47007Y107991D01*
X47015Y108084D01*
X47021Y108171D01*
Y108209D01*
X47023Y108245D01*
Y108278D01*
Y108308D01*
X47026Y108332D01*
Y108354D01*
Y108373D01*
Y108384D01*
Y108392D01*
Y108395D01*
Y108480D01*
X47023Y108562D01*
X47021Y108641D01*
X47015Y108717D01*
X47010Y108788D01*
X47004Y108856D01*
X46996Y108922D01*
X46988Y108985D01*
X46980Y109045D01*
X46972Y109102D01*
X46961Y109157D01*
X46950Y109206D01*
X46942Y109255D01*
X46931Y109299D01*
X46920Y109342D01*
X46906Y109381D01*
X46884Y109451D01*
X46862Y109512D01*
X46843Y109561D01*
X46827Y109602D01*
X46811Y109632D01*
X46800Y109654D01*
X46791Y109667D01*
X46789Y109670D01*
X46751Y109716D01*
X46712Y109760D01*
X46671Y109795D01*
X46628Y109826D01*
X46587Y109853D01*
X46543Y109875D01*
X46502Y109891D01*
X46461Y109907D01*
X46423Y109918D01*
X46390Y109927D01*
X46357Y109932D01*
X46330Y109935D01*
X46308Y109938D01*
X46292Y109940D01*
D02*
G37*
G36*
X40422D02*
X40409D01*
X40349Y109938D01*
X40291Y109927D01*
X40240Y109913D01*
X40188Y109891D01*
X40139Y109869D01*
X40095Y109842D01*
X40054Y109815D01*
X40016Y109787D01*
X39983Y109757D01*
X39953Y109730D01*
X39928Y109703D01*
X39906Y109681D01*
X39890Y109659D01*
X39879Y109645D01*
X39871Y109634D01*
X39868Y109632D01*
X39849Y109602D01*
X39830Y109566D01*
X39814Y109531D01*
X39797Y109490D01*
X39767Y109405D01*
X39743Y109310D01*
X39721Y109209D01*
X39702Y109105D01*
X39688Y109001D01*
X39677Y108900D01*
X39669Y108799D01*
X39661Y108706D01*
X39655Y108622D01*
Y108581D01*
X39652Y108545D01*
Y108512D01*
X39650Y108482D01*
Y108458D01*
Y108436D01*
Y108420D01*
Y108406D01*
Y108398D01*
Y108395D01*
Y108310D01*
X39652Y108229D01*
X39655Y108149D01*
X39658Y108076D01*
X39663Y108005D01*
X39669Y107936D01*
X39677Y107871D01*
X39682Y107811D01*
X39691Y107751D01*
X39702Y107696D01*
X39710Y107644D01*
X39718Y107595D01*
X39729Y107549D01*
X39740Y107508D01*
X39748Y107467D01*
X39759Y107429D01*
X39778Y107360D01*
X39800Y107306D01*
X39816Y107259D01*
X39833Y107221D01*
X39849Y107194D01*
X39860Y107175D01*
X39865Y107161D01*
X39868Y107158D01*
X39909Y107104D01*
X39953Y107057D01*
X39999Y107016D01*
X40043Y106981D01*
X40089Y106951D01*
X40133Y106926D01*
X40177Y106907D01*
X40218Y106891D01*
X40256Y106877D01*
X40291Y106869D01*
X40324Y106861D01*
X40351Y106858D01*
X40373Y106855D01*
X40390Y106853D01*
X40403D01*
X40461Y106855D01*
X40518Y106866D01*
X40573Y106880D01*
X40622Y106902D01*
X40671Y106924D01*
X40714Y106948D01*
X40755Y106978D01*
X40791Y107006D01*
X40826Y107033D01*
X40854Y107063D01*
X40881Y107087D01*
X40903Y107112D01*
X40919Y107131D01*
X40930Y107145D01*
X40938Y107156D01*
X40941Y107158D01*
X40960Y107188D01*
X40979Y107224D01*
X40996Y107259D01*
X41012Y107300D01*
X41042Y107385D01*
X41067Y107481D01*
X41086Y107581D01*
X41105Y107685D01*
X41118Y107789D01*
X41129Y107893D01*
X41138Y107991D01*
X41146Y108084D01*
X41151Y108171D01*
Y108209D01*
X41154Y108245D01*
Y108278D01*
Y108308D01*
X41157Y108332D01*
Y108354D01*
Y108373D01*
Y108384D01*
Y108392D01*
Y108395D01*
Y108480D01*
X41154Y108562D01*
X41151Y108641D01*
X41146Y108717D01*
X41140Y108788D01*
X41135Y108856D01*
X41127Y108922D01*
X41118Y108985D01*
X41110Y109045D01*
X41102Y109102D01*
X41091Y109157D01*
X41080Y109206D01*
X41072Y109255D01*
X41061Y109299D01*
X41050Y109342D01*
X41037Y109381D01*
X41015Y109451D01*
X40993Y109512D01*
X40974Y109561D01*
X40957Y109602D01*
X40941Y109632D01*
X40930Y109654D01*
X40922Y109667D01*
X40919Y109670D01*
X40881Y109716D01*
X40843Y109760D01*
X40802Y109795D01*
X40758Y109826D01*
X40717Y109853D01*
X40674Y109875D01*
X40633Y109891D01*
X40592Y109907D01*
X40553Y109918D01*
X40521Y109927D01*
X40488Y109932D01*
X40461Y109935D01*
X40439Y109938D01*
X40422Y109940D01*
D02*
G37*
%LPD*%
M02*
