G04*
G04 #@! TF.GenerationSoftware,Altium Limited,Altium Designer,20.1.14 (287)*
G04*
G04 Layer_Physical_Order=1*
G04 Layer_Color=255*
%FSLAX25Y25*%
%MOIN*%
G70*
G04*
G04 #@! TF.SameCoordinates,3CBCD0D0-32B7-46DE-8EB3-B5E10EB4AE05*
G04*
G04*
G04 #@! TF.FilePolarity,Positive*
G04*
G01*
G75*
%ADD13R,0.09843X0.12795*%
%ADD14R,0.06299X0.07480*%
%ADD15R,0.08465X0.01772*%
%ADD16R,0.08386X0.11811*%
%ADD17R,0.05118X0.05512*%
%ADD18R,0.11024X0.04921*%
%ADD19R,0.02165X0.02165*%
%ADD20R,0.02756X0.02441*%
%ADD21R,0.01968X0.01654*%
%ADD22R,0.02165X0.02165*%
%ADD23R,0.05512X0.05118*%
%ADD37C,0.03150*%
%ADD38C,0.01181*%
%ADD39C,0.02362*%
%ADD40C,0.08661*%
%ADD41C,0.27559*%
%ADD42C,0.02362*%
G36*
X54869Y152397D02*
X56737Y151948D01*
X58539Y151282D01*
X60251Y150409D01*
X61848Y149340D01*
X63308Y148091D01*
X64611Y146679D01*
X65168Y145911D01*
X88667Y111851D01*
X94135Y103926D01*
X95084Y102442D01*
X96783Y99316D01*
X98256Y96077D01*
X99495Y92742D01*
X100493Y89327D01*
X101247Y85850D01*
X101751Y82328D01*
X102004Y78779D01*
Y75221D01*
X101751Y71672D01*
X101247Y68150D01*
X100493Y64673D01*
X99495Y61258D01*
X98256Y57923D01*
X97845Y57020D01*
X97836Y57000D01*
X96783Y54684D01*
X95084Y51558D01*
X94135Y50074D01*
X65168Y8089D01*
X64611Y7321D01*
X63308Y5909D01*
X61848Y4660D01*
X60251Y3591D01*
X58539Y2718D01*
X56737Y2052D01*
X54869Y1603D01*
X52961Y1377D01*
X51039D01*
X49131Y1603D01*
X47263Y2052D01*
X45461Y2718D01*
X43749Y3591D01*
X42152Y4660D01*
X40692Y5909D01*
X39389Y7321D01*
X38832Y8089D01*
X15380Y42080D01*
X15674Y42535D01*
X15877Y42535D01*
X21016D01*
Y45012D01*
X15488D01*
Y42969D01*
X15488Y42804D01*
X14988Y42648D01*
X9865Y50074D01*
X8916Y51558D01*
X7217Y54684D01*
X5744Y57923D01*
X4505Y61258D01*
X3507Y64673D01*
X2753Y68150D01*
X2249Y71672D01*
X1996Y75221D01*
Y78185D01*
Y78779D01*
X2249Y82328D01*
X2753Y85850D01*
X3507Y89327D01*
X4505Y92742D01*
X5744Y96077D01*
X7217Y99316D01*
X8916Y102442D01*
X9865Y103926D01*
X38832Y145911D01*
X39389Y146679D01*
X40692Y148091D01*
X42152Y149340D01*
X43749Y150409D01*
X45461Y151282D01*
X47263Y151948D01*
X49131Y152397D01*
X51039Y152623D01*
X52961D01*
X54869Y152397D01*
D02*
G37*
%LPC*%
G36*
X73500Y125124D02*
Y123500D01*
X75124D01*
X75055Y123851D01*
X74572Y124573D01*
X73851Y125055D01*
X73500Y125124D01*
D02*
G37*
G36*
X72500D02*
X72149Y125055D01*
X71428Y124573D01*
X70946Y123851D01*
X70876Y123500D01*
X72500D01*
Y125124D01*
D02*
G37*
G36*
X68000D02*
Y123500D01*
X69624D01*
X69555Y123851D01*
X69073Y124573D01*
X68351Y125055D01*
X68000Y125124D01*
D02*
G37*
G36*
X67000D02*
X66649Y125055D01*
X65927Y124573D01*
X65446Y123851D01*
X65376Y123500D01*
X67000D01*
Y125124D01*
D02*
G37*
G36*
X75124Y122500D02*
X73500D01*
Y120876D01*
X73851Y120946D01*
X74572Y121428D01*
X75055Y122149D01*
X75124Y122500D01*
D02*
G37*
G36*
X72500D02*
X70876D01*
X70946Y122149D01*
X71428Y121428D01*
X72149Y120946D01*
X72500Y120876D01*
Y122500D01*
D02*
G37*
G36*
X69624D02*
X68000D01*
Y120876D01*
X68351Y120946D01*
X69073Y121428D01*
X69555Y122149D01*
X69624Y122500D01*
D02*
G37*
G36*
X67000D02*
X65376D01*
X65446Y122149D01*
X65927Y121428D01*
X66649Y120946D01*
X67000Y120876D01*
Y122500D01*
D02*
G37*
G36*
X28500Y121124D02*
Y119500D01*
X30124D01*
X30055Y119851D01*
X29572Y120572D01*
X28851Y121054D01*
X28500Y121124D01*
D02*
G37*
G36*
X27500D02*
X27149Y121054D01*
X26428Y120572D01*
X25945Y119851D01*
X25876Y119500D01*
X27500D01*
Y121124D01*
D02*
G37*
G36*
X30124Y118500D02*
X28500D01*
Y116876D01*
X28851Y116946D01*
X29572Y117428D01*
X30055Y118149D01*
X30124Y118500D01*
D02*
G37*
G36*
X27500D02*
X25876D01*
X25945Y118149D01*
X26428Y117428D01*
X27149Y116946D01*
X27500Y116876D01*
Y118500D01*
D02*
G37*
G36*
X25500Y117124D02*
Y115500D01*
X27124D01*
X27055Y115851D01*
X26572Y116572D01*
X25851Y117054D01*
X25500Y117124D01*
D02*
G37*
G36*
X24500D02*
X24149Y117054D01*
X23427Y116572D01*
X22945Y115851D01*
X22876Y115500D01*
X24500D01*
Y117124D01*
D02*
G37*
G36*
X80992Y116185D02*
Y114561D01*
X82617D01*
X82547Y114912D01*
X82065Y115633D01*
X81343Y116115D01*
X80992Y116185D01*
D02*
G37*
G36*
X79992D02*
X79641Y116115D01*
X78920Y115633D01*
X78438Y114912D01*
X78368Y114561D01*
X79992D01*
Y116185D01*
D02*
G37*
G36*
X27124Y114500D02*
X25500D01*
Y112876D01*
X25851Y112945D01*
X26572Y113427D01*
X27055Y114149D01*
X27124Y114500D01*
D02*
G37*
G36*
X24500D02*
X22876D01*
X22945Y114149D01*
X23427Y113427D01*
X24149Y112945D01*
X24500Y112876D01*
Y114500D01*
D02*
G37*
G36*
X82617Y113561D02*
X80992D01*
Y111936D01*
X81343Y112006D01*
X82065Y112488D01*
X82547Y113210D01*
X82617Y113561D01*
D02*
G37*
G36*
X79992D02*
X78368D01*
X78438Y113210D01*
X78920Y112488D01*
X79641Y112006D01*
X79992Y111936D01*
Y113561D01*
D02*
G37*
G36*
X22500Y113124D02*
Y111500D01*
X24124D01*
X24055Y111851D01*
X23573Y112573D01*
X22851Y113055D01*
X22500Y113124D01*
D02*
G37*
G36*
X21500D02*
X21149Y113055D01*
X20427Y112573D01*
X19945Y111851D01*
X19876Y111500D01*
X21500D01*
Y113124D01*
D02*
G37*
G36*
X24124Y110500D02*
X22500D01*
Y108876D01*
X22851Y108946D01*
X23573Y109427D01*
X24055Y110149D01*
X24124Y110500D01*
D02*
G37*
G36*
X21500D02*
X19876D01*
X19945Y110149D01*
X20427Y109427D01*
X21149Y108946D01*
X21500Y108876D01*
Y110500D01*
D02*
G37*
G36*
X19500Y109124D02*
Y107500D01*
X21124D01*
X21055Y107851D01*
X20572Y108572D01*
X19851Y109055D01*
X19500Y109124D01*
D02*
G37*
G36*
X18500D02*
X18149Y109055D01*
X17427Y108572D01*
X16945Y107851D01*
X16876Y107500D01*
X18500D01*
Y109124D01*
D02*
G37*
G36*
X21124Y106500D02*
X19500D01*
Y104876D01*
X19851Y104946D01*
X20572Y105428D01*
X21055Y106149D01*
X21124Y106500D01*
D02*
G37*
G36*
X18500D02*
X16876D01*
X16945Y106149D01*
X17427Y105428D01*
X18149Y104946D01*
X18500Y104876D01*
Y106500D01*
D02*
G37*
G36*
X93709Y99624D02*
Y98000D01*
X95333D01*
X95263Y98351D01*
X94781Y99072D01*
X94060Y99555D01*
X93709Y99624D01*
D02*
G37*
G36*
X92709D02*
X92358Y99555D01*
X91636Y99072D01*
X91154Y98351D01*
X91084Y98000D01*
X92709D01*
Y99624D01*
D02*
G37*
G36*
X95333Y97000D02*
X93709D01*
Y95376D01*
X94060Y95446D01*
X94781Y95928D01*
X95263Y96649D01*
X95333Y97000D01*
D02*
G37*
G36*
X92709D02*
X91084D01*
X91154Y96649D01*
X91636Y95928D01*
X92358Y95446D01*
X92709Y95376D01*
Y97000D01*
D02*
G37*
G36*
X94635Y90124D02*
Y88500D01*
X96260D01*
X96190Y88851D01*
X95708Y89573D01*
X94986Y90055D01*
X94635Y90124D01*
D02*
G37*
G36*
X93635D02*
X93284Y90055D01*
X92563Y89573D01*
X92081Y88851D01*
X92011Y88500D01*
X93635D01*
Y90124D01*
D02*
G37*
G36*
X96260Y87500D02*
X94635D01*
Y85876D01*
X94986Y85945D01*
X95708Y86427D01*
X96190Y87149D01*
X96260Y87500D01*
D02*
G37*
G36*
X93635D02*
X92011D01*
X92081Y87149D01*
X92563Y86427D01*
X93284Y85945D01*
X93635Y85876D01*
Y87500D01*
D02*
G37*
G36*
X38500Y84124D02*
Y82500D01*
X40124D01*
X40055Y82851D01*
X39573Y83573D01*
X38851Y84054D01*
X38500Y84124D01*
D02*
G37*
G36*
X37500D02*
X37149Y84054D01*
X36428Y83573D01*
X35945Y82851D01*
X35876Y82500D01*
X37500D01*
Y84124D01*
D02*
G37*
G36*
X87699Y109803D02*
X75301D01*
X74994Y109742D01*
X74994Y109742D01*
X74626Y109590D01*
X74366Y109415D01*
X74085Y109134D01*
X73910Y108874D01*
X73758Y108506D01*
X73697Y108199D01*
Y83039D01*
X73694Y83002D01*
X73651Y82899D01*
X73601Y82849D01*
X73498Y82806D01*
X73461Y82803D01*
X70801D01*
X70494Y82742D01*
X70494Y82742D01*
X70126Y82590D01*
X69866Y82415D01*
X69803Y82352D01*
X69303Y82560D01*
Y108199D01*
X69242Y108506D01*
X69242Y108506D01*
X69090Y108874D01*
X68915Y109134D01*
X68634Y109415D01*
X68374Y109590D01*
X68006Y109742D01*
X67699Y109803D01*
X53301D01*
X52994Y109742D01*
X52994Y109742D01*
X52626Y109590D01*
X52366Y109415D01*
X52085Y109134D01*
X51911Y108874D01*
X51758Y108506D01*
X51697Y108199D01*
Y95801D01*
X51758Y95494D01*
X51911Y95126D01*
X52085Y94866D01*
X52366Y94585D01*
X52626Y94411D01*
X52994Y94258D01*
X53301Y94197D01*
X57961D01*
X57998Y94194D01*
X58101Y94151D01*
X58151Y94101D01*
X58193Y93998D01*
X58197Y93961D01*
Y60900D01*
X58258Y60593D01*
X58299Y60495D01*
Y60327D01*
X58390D01*
X58508Y60149D01*
X58649Y60008D01*
X58909Y59834D01*
X59093Y59758D01*
X59400Y59697D01*
X68199D01*
X68506Y59758D01*
X68874Y59911D01*
X69134Y60085D01*
X69415Y60366D01*
X69590Y60626D01*
X69742Y60994D01*
X69803Y61301D01*
Y62941D01*
X70303Y63148D01*
X70366Y63085D01*
X70626Y62910D01*
X70994Y62758D01*
X71301Y62697D01*
X76199D01*
X76506Y62758D01*
X76874Y62910D01*
X77134Y63085D01*
X77415Y63366D01*
X77589Y63626D01*
X77742Y63994D01*
X77803Y64301D01*
X78094Y64697D01*
X85199D01*
X85506Y64758D01*
X85874Y64911D01*
X86134Y65085D01*
X86415Y65366D01*
X86589Y65626D01*
X86742Y65994D01*
X86803Y66301D01*
Y67744D01*
X88665D01*
Y71500D01*
X89650D01*
Y72484D01*
X93209D01*
Y75244D01*
Y78016D01*
X89650D01*
Y79000D01*
X88665D01*
Y82756D01*
X86803D01*
Y84961D01*
X86806Y84998D01*
X86849Y85101D01*
X86899Y85151D01*
X87002Y85194D01*
X87039Y85197D01*
X87699D01*
X88006Y85258D01*
X88374Y85410D01*
X88634Y85585D01*
X88915Y85866D01*
X89090Y86126D01*
X89242Y86494D01*
X89303Y86801D01*
Y108199D01*
X89242Y108506D01*
X89242Y108506D01*
X89090Y108874D01*
X88915Y109134D01*
X88634Y109415D01*
X88374Y109590D01*
X88006Y109742D01*
X87699Y109803D01*
D02*
G37*
G36*
X93209Y82756D02*
X90634D01*
Y79984D01*
X93209D01*
Y82756D01*
D02*
G37*
G36*
X40124Y81500D02*
X38500D01*
Y79876D01*
X38851Y79945D01*
X39573Y80427D01*
X40055Y81149D01*
X40124Y81500D01*
D02*
G37*
G36*
X37500D02*
X35876D01*
X35945Y81149D01*
X36428Y80427D01*
X37149Y79945D01*
X37500Y79876D01*
Y81500D01*
D02*
G37*
G36*
X8000Y79331D02*
Y77707D01*
X9624D01*
X9566Y78000D01*
X9555Y78058D01*
X9072Y78780D01*
X8351Y79262D01*
X8000Y79331D01*
D02*
G37*
G36*
X7000D02*
X6649Y79262D01*
X5928Y78780D01*
X5446Y78058D01*
X5434Y78000D01*
X5376Y77707D01*
X7000D01*
Y79331D01*
D02*
G37*
G36*
X38500Y79124D02*
Y77500D01*
X40124D01*
X40055Y77851D01*
X39573Y78572D01*
X38851Y79054D01*
X38500Y79124D01*
D02*
G37*
G36*
X49685Y81240D02*
X46520D01*
Y77484D01*
X49685D01*
Y81240D01*
D02*
G37*
G36*
X44551D02*
X41386D01*
Y77484D01*
X44551D01*
Y81240D01*
D02*
G37*
G36*
X37500Y79124D02*
X37149Y79054D01*
X36428Y78572D01*
X36045Y78000D01*
X35945Y77851D01*
X35776Y77000D01*
X35794Y76910D01*
X35575Y76698D01*
X35346Y76601D01*
X35006Y76742D01*
X34699Y76803D01*
X15301D01*
X14994Y76742D01*
X14994Y76742D01*
X14626Y76590D01*
X14366Y76415D01*
X14085Y76134D01*
X13911Y75874D01*
X13758Y75506D01*
X13697Y75199D01*
Y54801D01*
X13758Y54494D01*
X13911Y54126D01*
X14085Y53866D01*
X14366Y53585D01*
X14626Y53411D01*
X14994Y53258D01*
X15301Y53197D01*
X29917D01*
X30130Y53023D01*
Y50130D01*
X30130D01*
Y49870D01*
X30130D01*
Y46539D01*
X29917D01*
Y44957D01*
X32000D01*
X34083D01*
Y46539D01*
X33870D01*
Y49870D01*
X33870D01*
Y50095D01*
X33954Y50595D01*
X35661D01*
Y50327D01*
X45701D01*
Y53673D01*
X35661D01*
Y53405D01*
X35162D01*
X34977Y53750D01*
X34942Y53905D01*
X35089Y54126D01*
X35242Y54494D01*
X35303Y54801D01*
X35594Y55197D01*
X45000D01*
X45307Y55258D01*
X45410Y55327D01*
X45701D01*
Y55632D01*
X45742Y55693D01*
X45803Y56000D01*
Y58100D01*
X45742Y58407D01*
X45701Y58505D01*
Y58673D01*
X45610D01*
X45492Y58851D01*
X45351Y58992D01*
X45090Y59166D01*
X44907Y59242D01*
X44907Y59242D01*
X44600Y59303D01*
X36540D01*
X36502Y59307D01*
X36399Y59349D01*
X36349Y59399D01*
X36307Y59502D01*
X36303Y59540D01*
Y60327D01*
X45701D01*
Y63673D01*
X44120D01*
X43853Y64173D01*
X43968Y64346D01*
X44121Y65114D01*
X44046Y65492D01*
X44280Y65992D01*
X44280D01*
Y70008D01*
X36720D01*
Y68621D01*
X36257Y68344D01*
X36220Y68349D01*
X36068Y68577D01*
X35807Y68752D01*
X35519Y68809D01*
X35656Y69854D01*
X35519Y70900D01*
X35807Y70957D01*
X36068Y71131D01*
X36242Y71392D01*
X36303Y71699D01*
Y74910D01*
X36489Y75066D01*
X36803Y75177D01*
X37149Y74945D01*
X37500Y74876D01*
Y77000D01*
Y79124D01*
D02*
G37*
G36*
X9624Y76707D02*
X8000D01*
Y75083D01*
X8351Y75153D01*
X9072Y75635D01*
X9555Y76356D01*
X9624Y76707D01*
D02*
G37*
G36*
X7000D02*
X5376D01*
X5446Y76356D01*
X5928Y75635D01*
X6649Y75153D01*
X7000Y75083D01*
Y76707D01*
D02*
G37*
G36*
X40124Y76500D02*
X38500D01*
Y74876D01*
X38851Y74945D01*
X39573Y75428D01*
X40055Y76149D01*
X40124Y76500D01*
D02*
G37*
G36*
X8000Y73870D02*
Y72246D01*
X9624D01*
X9555Y72597D01*
X9072Y73318D01*
X8351Y73800D01*
X8000Y73870D01*
D02*
G37*
G36*
X7000D02*
X6649Y73800D01*
X5928Y73318D01*
X5446Y72597D01*
X5376Y72246D01*
X7000D01*
Y73870D01*
D02*
G37*
G36*
X49685Y75516D02*
X46520D01*
Y71760D01*
X49685D01*
Y75516D01*
D02*
G37*
G36*
X44551D02*
X41386D01*
Y71760D01*
X44551D01*
Y75516D01*
D02*
G37*
G36*
X9624Y71246D02*
X8000D01*
Y69622D01*
X8351Y69691D01*
X9072Y70173D01*
X9555Y70895D01*
X9624Y71246D01*
D02*
G37*
G36*
X7000D02*
X5376D01*
X5446Y70895D01*
X5928Y70173D01*
X6649Y69691D01*
X7000Y69622D01*
Y71246D01*
D02*
G37*
G36*
X47500Y70124D02*
Y68500D01*
X49124D01*
X49055Y68851D01*
X48572Y69573D01*
X47851Y70055D01*
X47500Y70124D01*
D02*
G37*
G36*
X46500D02*
X46213Y70067D01*
X46149Y70055D01*
X45428Y69573D01*
X44945Y68851D01*
X44876Y68500D01*
X46500D01*
Y70124D01*
D02*
G37*
G36*
X93209Y70516D02*
X90634D01*
Y67744D01*
X93209D01*
Y70516D01*
D02*
G37*
G36*
X8000Y68677D02*
Y67052D01*
X9624D01*
X9555Y67403D01*
X9072Y68125D01*
X8351Y68607D01*
X8000Y68677D01*
D02*
G37*
G36*
X7000D02*
X6649Y68607D01*
X5928Y68125D01*
X5446Y67403D01*
X5376Y67052D01*
X7000D01*
Y68677D01*
D02*
G37*
G36*
X49124Y67500D02*
X47500D01*
Y65876D01*
X47851Y65946D01*
X48572Y66427D01*
X49055Y67149D01*
X49124Y67500D01*
D02*
G37*
G36*
X46500D02*
X44876D01*
X44945Y67149D01*
X45428Y66427D01*
X46149Y65946D01*
X46500Y65876D01*
Y67500D01*
D02*
G37*
G36*
X9624Y66052D02*
X8000D01*
Y64428D01*
X8351Y64498D01*
X9072Y64980D01*
X9555Y65701D01*
X9624Y66052D01*
D02*
G37*
G36*
X7000D02*
X5376D01*
X5446Y65701D01*
X5928Y64980D01*
X6649Y64498D01*
X7000Y64428D01*
Y66052D01*
D02*
G37*
G36*
X94635Y65323D02*
Y63699D01*
X96260D01*
X96190Y64050D01*
X95708Y64771D01*
X94986Y65254D01*
X94635Y65323D01*
D02*
G37*
G36*
X93635D02*
X93284Y65254D01*
X92563Y64771D01*
X92081Y64050D01*
X92011Y63699D01*
X93635D01*
Y65323D01*
D02*
G37*
G36*
X96260Y62699D02*
X94635D01*
Y61075D01*
X94986Y61144D01*
X95708Y61626D01*
X96190Y62348D01*
X96260Y62699D01*
D02*
G37*
G36*
X93635D02*
X92011D01*
X92081Y62348D01*
X92563Y61626D01*
X93284Y61144D01*
X93635Y61075D01*
Y62699D01*
D02*
G37*
G36*
X90256Y63358D02*
X87484D01*
Y60783D01*
X90256D01*
Y63358D01*
D02*
G37*
G36*
X85516D02*
X82744D01*
Y60783D01*
X85516D01*
Y63358D01*
D02*
G37*
G36*
X79253Y61569D02*
Y59944D01*
X80877D01*
X80808Y60295D01*
X80326Y61017D01*
X79604Y61499D01*
X79253Y61569D01*
D02*
G37*
G36*
X78253D02*
X77902Y61499D01*
X77181Y61017D01*
X76698Y60295D01*
X76629Y59944D01*
X78253D01*
Y61569D01*
D02*
G37*
G36*
X80877Y58944D02*
X79253D01*
Y57320D01*
X79604Y57390D01*
X80326Y57872D01*
X80808Y58593D01*
X80877Y58944D01*
D02*
G37*
G36*
X78253D02*
X76629D01*
X76698Y58593D01*
X77181Y57872D01*
X77902Y57390D01*
X78253Y57320D01*
Y58944D01*
D02*
G37*
G36*
X90256Y58815D02*
X82744D01*
Y57000D01*
Y56240D01*
X82957D01*
Y55177D01*
X81870D01*
Y55642D01*
X78130D01*
Y51555D01*
X77043D01*
Y53496D01*
X69957D01*
Y53405D01*
X68339D01*
Y53673D01*
X58299D01*
Y50327D01*
X68339D01*
Y50595D01*
X69957D01*
Y47409D01*
X69744D01*
Y44835D01*
X73500D01*
Y43850D01*
D01*
Y44835D01*
X77256D01*
Y47409D01*
X77043D01*
Y48745D01*
X78130D01*
Y48358D01*
X81870D01*
Y52367D01*
X82957D01*
Y50154D01*
X90043D01*
Y56240D01*
X90256D01*
Y57000D01*
Y58815D01*
D02*
G37*
G36*
X28512Y49457D02*
X22984D01*
Y46980D01*
X28512D01*
Y49457D01*
D02*
G37*
G36*
X21016D02*
X15488D01*
Y46980D01*
X21016D01*
Y49457D01*
D02*
G37*
G36*
X53871Y44874D02*
X52500D01*
Y43876D01*
X52851Y43945D01*
X53572Y44427D01*
X53871Y44874D01*
D02*
G37*
G36*
X51500D02*
X50129D01*
X50428Y44427D01*
X51149Y43945D01*
X51500Y43876D01*
Y44874D01*
D02*
G37*
G36*
X28512Y45012D02*
X22984D01*
Y42535D01*
X28512D01*
Y45012D01*
D02*
G37*
G36*
X34083Y43957D02*
X32500D01*
Y42374D01*
X34083D01*
Y43957D01*
D02*
G37*
G36*
X31500D02*
X29917D01*
Y42374D01*
X31500D01*
Y43957D01*
D02*
G37*
G36*
X45205Y43327D02*
X43720D01*
Y42000D01*
X45205D01*
Y43327D01*
D02*
G37*
G36*
X68854Y43583D02*
X67272D01*
Y42000D01*
X68854D01*
Y43583D01*
D02*
G37*
G36*
X52500Y43124D02*
Y41500D01*
X54124D01*
X54054Y41851D01*
X53572Y42573D01*
X52851Y43055D01*
X52500Y43124D01*
D02*
G37*
G36*
X51500D02*
X51149Y43055D01*
X50428Y42573D01*
X49945Y41851D01*
X49876Y41500D01*
X51500D01*
Y43124D01*
D02*
G37*
G36*
X77256Y42866D02*
X74484D01*
Y40291D01*
X77256D01*
Y42866D01*
D02*
G37*
G36*
X72516D02*
X69744D01*
Y40291D01*
X72516D01*
Y42866D01*
D02*
G37*
G36*
X27500Y41798D02*
Y40173D01*
X29124D01*
X29055Y40524D01*
X28572Y41246D01*
X27851Y41728D01*
X27500Y41798D01*
D02*
G37*
G36*
X26500D02*
X26149Y41728D01*
X25427Y41246D01*
X24945Y40524D01*
X24876Y40173D01*
X26500D01*
Y41798D01*
D02*
G37*
G36*
X22500D02*
Y40173D01*
X24124D01*
X24055Y40524D01*
X23573Y41246D01*
X22851Y41728D01*
X22500Y41798D01*
D02*
G37*
G36*
X21500D02*
X21149Y41728D01*
X20427Y41246D01*
X19945Y40524D01*
X19876Y40173D01*
X21500D01*
Y41798D01*
D02*
G37*
G36*
X45205Y41000D02*
X43720D01*
Y39673D01*
X45205D01*
Y41000D01*
D02*
G37*
G36*
X45701Y48673D02*
X35661D01*
Y45327D01*
X39375D01*
Y43114D01*
X39008D01*
Y39886D01*
X41236D01*
Y39673D01*
X42720D01*
Y41500D01*
Y43327D01*
X42184D01*
Y45327D01*
X45701D01*
Y48673D01*
D02*
G37*
G36*
X54124Y40500D02*
X52500D01*
Y38876D01*
X52851Y38945D01*
X53572Y39428D01*
X54054Y40149D01*
X54124Y40500D01*
D02*
G37*
G36*
X51500D02*
X49876D01*
X49945Y40149D01*
X50428Y39428D01*
X51149Y38945D01*
X51500Y38876D01*
Y40500D01*
D02*
G37*
G36*
X82370Y40124D02*
Y38500D01*
X83994D01*
X83925Y38851D01*
X83443Y39573D01*
X82721Y40055D01*
X82370Y40124D01*
D02*
G37*
G36*
X81370D02*
X81019Y40055D01*
X80298Y39573D01*
X79816Y38851D01*
X79746Y38500D01*
X81370D01*
Y40124D01*
D02*
G37*
G36*
X29124Y39173D02*
X27500D01*
Y37549D01*
X27851Y37619D01*
X28572Y38101D01*
X29055Y38822D01*
X29124Y39173D01*
D02*
G37*
G36*
X26500D02*
X24876D01*
X24945Y38822D01*
X25427Y38101D01*
X26149Y37619D01*
X26500Y37549D01*
Y39173D01*
D02*
G37*
G36*
X24124D02*
X22500D01*
Y37549D01*
X22851Y37619D01*
X23573Y38101D01*
X24055Y38822D01*
X24124Y39173D01*
D02*
G37*
G36*
X21500D02*
X19876D01*
X19945Y38822D01*
X20427Y38101D01*
X21149Y37619D01*
X21500Y37549D01*
Y39173D01*
D02*
G37*
G36*
X83994Y37500D02*
X82370D01*
Y35876D01*
X82721Y35945D01*
X83443Y36428D01*
X83925Y37149D01*
X83994Y37500D01*
D02*
G37*
G36*
X81370D02*
X79746D01*
X79816Y37149D01*
X80298Y36428D01*
X81019Y35945D01*
X81370Y35876D01*
Y37500D01*
D02*
G37*
G36*
X52500Y37124D02*
Y35500D01*
X54124D01*
X54054Y35851D01*
X53572Y36573D01*
X52851Y37055D01*
X52500Y37124D01*
D02*
G37*
G36*
X51500D02*
X51149Y37055D01*
X50428Y36573D01*
X49945Y35851D01*
X49876Y35500D01*
X51500D01*
Y37124D01*
D02*
G37*
G36*
X78630Y35124D02*
Y33500D01*
X80254D01*
X80185Y33851D01*
X79702Y34572D01*
X78981Y35055D01*
X78630Y35124D01*
D02*
G37*
G36*
X77630D02*
X77279Y35055D01*
X76557Y34572D01*
X76075Y33851D01*
X76006Y33500D01*
X77630D01*
Y35124D01*
D02*
G37*
G36*
X54124Y34500D02*
X52500D01*
Y32876D01*
X52851Y32945D01*
X53572Y33428D01*
X54054Y34149D01*
X54124Y34500D01*
D02*
G37*
G36*
X51500D02*
X49876D01*
X49945Y34149D01*
X50428Y33428D01*
X51149Y32945D01*
X51500Y32876D01*
Y34500D01*
D02*
G37*
G36*
X68339Y48673D02*
X58299D01*
Y45327D01*
X61914D01*
Y43370D01*
X61358D01*
Y39630D01*
X61358D01*
Y36130D01*
X65367D01*
Y35599D01*
X65146Y35268D01*
X64993Y34500D01*
X65146Y33732D01*
X65581Y33081D01*
X66232Y32646D01*
X67000Y32493D01*
X67768Y32646D01*
X68419Y33081D01*
X68854Y33732D01*
X69007Y34500D01*
X68854Y35268D01*
X68612Y35630D01*
X68642Y36130D01*
X68642Y36130D01*
Y39417D01*
X68854D01*
Y41000D01*
X66772D01*
Y41500D01*
X66272D01*
Y43583D01*
X64724D01*
Y45327D01*
X68339D01*
Y48673D01*
D02*
G37*
G36*
X80254Y32500D02*
X78630D01*
Y30876D01*
X78981Y30945D01*
X79702Y31427D01*
X80185Y32149D01*
X80254Y32500D01*
D02*
G37*
G36*
X77630D02*
X76006D01*
X76075Y32149D01*
X76557Y31427D01*
X77279Y30945D01*
X77630Y30876D01*
Y32500D01*
D02*
G37*
G36*
X74984Y30629D02*
Y29005D01*
X76609D01*
X76539Y29356D01*
X76057Y30077D01*
X75335Y30560D01*
X74984Y30629D01*
D02*
G37*
G36*
X73984D02*
X73633Y30560D01*
X72912Y30077D01*
X72430Y29356D01*
X72360Y29005D01*
X73984D01*
Y30629D01*
D02*
G37*
G36*
X76609Y28005D02*
X74984D01*
Y26381D01*
X75335Y26450D01*
X76057Y26932D01*
X76539Y27654D01*
X76609Y28005D01*
D02*
G37*
G36*
X73984D02*
X72360D01*
X72430Y27654D01*
X72912Y26932D01*
X73633Y26450D01*
X73984Y26381D01*
Y28005D01*
D02*
G37*
G36*
X71500Y26124D02*
Y24500D01*
X73124D01*
X73054Y24851D01*
X72572Y25572D01*
X71851Y26055D01*
X71500Y26124D01*
D02*
G37*
G36*
X70500D02*
X70149Y26055D01*
X69428Y25572D01*
X68945Y24851D01*
X68876Y24500D01*
X70500D01*
Y26124D01*
D02*
G37*
G36*
X73124Y23500D02*
X71500D01*
Y21876D01*
X71851Y21945D01*
X72572Y22427D01*
X73054Y23149D01*
X73124Y23500D01*
D02*
G37*
G36*
X70500D02*
X68876D01*
X68945Y23149D01*
X69428Y22427D01*
X70149Y21945D01*
X70500Y21876D01*
Y23500D01*
D02*
G37*
%LPD*%
G36*
X88066Y108848D02*
X88348Y108566D01*
X88500Y108199D01*
Y108000D01*
Y87000D01*
Y86801D01*
X88348Y86434D01*
X88066Y86152D01*
X87699Y86000D01*
X87000D01*
X86805Y85981D01*
X86444Y85831D01*
X86168Y85556D01*
X86019Y85195D01*
X86000Y85000D01*
Y82756D01*
X84335D01*
Y79000D01*
X83350D01*
Y78016D01*
X79791D01*
Y75244D01*
Y72484D01*
X83350D01*
Y71500D01*
X84335D01*
Y67744D01*
X86000D01*
Y66500D01*
Y66301D01*
X85848Y65934D01*
X85566Y65652D01*
X85199Y65500D01*
X78000D01*
X77805Y65481D01*
X77444Y65332D01*
X77169Y65056D01*
X77019Y64695D01*
X77000Y64500D01*
Y64301D01*
X76848Y63933D01*
X76566Y63652D01*
X76199Y63500D01*
X71301D01*
X70934Y63652D01*
X70652Y63933D01*
X70500Y64301D01*
Y64500D01*
X70481Y64695D01*
X70332Y65056D01*
X70056Y65332D01*
X69695Y65481D01*
X69500Y65500D01*
X68801D01*
X68433Y65652D01*
X68152Y65934D01*
X68000Y66301D01*
Y66500D01*
Y74000D01*
Y74199D01*
X68152Y74566D01*
X68433Y74848D01*
X68801Y75000D01*
X69000D01*
X69195Y75019D01*
X69556Y75169D01*
X69832Y75444D01*
X69981Y75805D01*
X70000Y76000D01*
Y81000D01*
Y81199D01*
X70152Y81566D01*
X70433Y81848D01*
X70801Y82000D01*
X73500D01*
X73695Y82019D01*
X74056Y82169D01*
X74331Y82444D01*
X74481Y82805D01*
X74500Y83000D01*
Y108000D01*
Y108199D01*
X74652Y108566D01*
X74933Y108848D01*
X75301Y109000D01*
X87699D01*
X88066Y108848D01*
D02*
G37*
G36*
X68066D02*
X68348Y108566D01*
X68500Y108199D01*
Y108000D01*
Y77000D01*
Y76801D01*
X68348Y76433D01*
X68066Y76152D01*
X67699Y76000D01*
X67500D01*
X67305Y75981D01*
X66944Y75832D01*
X66668Y75556D01*
X66519Y75195D01*
X66500Y75000D01*
Y65500D01*
X66519Y65305D01*
X66668Y64944D01*
X66944Y64669D01*
X67305Y64519D01*
X67500Y64500D01*
X68199D01*
X68566Y64348D01*
X68848Y64066D01*
X69000Y63699D01*
Y63500D01*
Y61500D01*
Y61301D01*
X68848Y60934D01*
X68566Y60652D01*
X68199Y60500D01*
X59400D01*
X59217Y60576D01*
X59076Y60717D01*
X59000Y60900D01*
Y61000D01*
Y94000D01*
X58981Y94195D01*
X58832Y94556D01*
X58556Y94832D01*
X58195Y94981D01*
X58000Y95000D01*
X53301D01*
X52934Y95152D01*
X52652Y95433D01*
X52500Y95801D01*
Y96000D01*
Y108000D01*
Y108199D01*
X52652Y108566D01*
X52934Y108848D01*
X53301Y109000D01*
X67699D01*
X68066Y108848D01*
D02*
G37*
%LPC*%
G36*
X82366Y82756D02*
X79791D01*
Y79984D01*
X82366D01*
Y82756D01*
D02*
G37*
G36*
X74490Y75102D02*
Y70839D01*
X78753D01*
X78699Y71246D01*
X78162Y72543D01*
X77308Y73656D01*
X76194Y74511D01*
X74897Y75048D01*
X74490Y75102D01*
D02*
G37*
G36*
X72522D02*
X72114Y75048D01*
X70818Y74511D01*
X69704Y73656D01*
X68849Y72543D01*
X68312Y71246D01*
X68259Y70839D01*
X72522D01*
Y75102D01*
D02*
G37*
G36*
X82366Y70516D02*
X79791D01*
Y67744D01*
X82366D01*
Y70516D01*
D02*
G37*
G36*
X78753Y68870D02*
X74490D01*
Y64607D01*
X74897Y64661D01*
X76194Y65198D01*
X77308Y66052D01*
X78162Y67166D01*
X78699Y68463D01*
X78753Y68870D01*
D02*
G37*
G36*
X72522D02*
X68259D01*
X68312Y68463D01*
X68849Y67166D01*
X69704Y66052D01*
X70818Y65198D01*
X72114Y64661D01*
X72522Y64607D01*
Y68870D01*
D02*
G37*
G36*
X65500Y104624D02*
Y103000D01*
X67124D01*
X67054Y103351D01*
X66572Y104072D01*
X65851Y104554D01*
X65500Y104624D01*
D02*
G37*
G36*
X64500D02*
X64149Y104554D01*
X63428Y104072D01*
X62945Y103351D01*
X62876Y103000D01*
X64500D01*
Y104624D01*
D02*
G37*
G36*
X67124Y102000D02*
X65500D01*
Y100376D01*
X65851Y100445D01*
X66572Y100927D01*
X67054Y101649D01*
X67124Y102000D01*
D02*
G37*
G36*
X64500D02*
X62876D01*
X62945Y101649D01*
X63428Y100927D01*
X64149Y100445D01*
X64500Y100376D01*
Y102000D01*
D02*
G37*
%LPD*%
G36*
X35066Y75848D02*
X35348Y75566D01*
X35500Y75199D01*
Y75000D01*
Y71699D01*
X35151Y72543D01*
X34296Y73656D01*
X33182Y74511D01*
X31886Y75048D01*
X31478Y75102D01*
Y69854D01*
Y64607D01*
X31886Y64661D01*
X33182Y65198D01*
X34296Y66052D01*
X35151Y67166D01*
X35500Y68010D01*
Y59500D01*
X35519Y59305D01*
X35669Y58944D01*
X35944Y58669D01*
X36305Y58519D01*
X36500Y58500D01*
X44600D01*
X44783Y58424D01*
X44924Y58283D01*
X45000Y58100D01*
Y58000D01*
Y56000D01*
X35500D01*
X35305Y55981D01*
X34944Y55831D01*
X34668Y55556D01*
X34519Y55195D01*
X34500Y55000D01*
Y54801D01*
X34348Y54434D01*
X34083Y54168D01*
Y55043D01*
X32000D01*
X29917D01*
Y54000D01*
X15301D01*
X14933Y54152D01*
X14652Y54434D01*
X14500Y54801D01*
Y55000D01*
Y75000D01*
Y75199D01*
X14652Y75566D01*
X14933Y75848D01*
X15301Y76000D01*
X34699D01*
X35066Y75848D01*
D02*
G37*
%LPC*%
G36*
X29510Y75102D02*
X29103Y75048D01*
X27806Y74511D01*
X26692Y73656D01*
X25838Y72543D01*
X25301Y71246D01*
X25247Y70839D01*
X29510D01*
Y75102D01*
D02*
G37*
G36*
Y68870D02*
X25247D01*
X25301Y68463D01*
X25838Y67166D01*
X26692Y66052D01*
X27806Y65198D01*
X29103Y64661D01*
X29510Y64607D01*
Y68870D01*
D02*
G37*
G36*
X28512Y61465D02*
X22984D01*
Y58988D01*
X28512D01*
Y61465D01*
D02*
G37*
G36*
X21016D02*
X15488D01*
Y58988D01*
X21016D01*
Y61465D01*
D02*
G37*
G36*
X34083Y57626D02*
X32500D01*
Y56043D01*
X34083D01*
Y57626D01*
D02*
G37*
G36*
X31500D02*
X29917D01*
Y56043D01*
X31500D01*
Y57626D01*
D02*
G37*
G36*
X28512Y57020D02*
X22984D01*
Y54543D01*
X28512D01*
Y57020D01*
D02*
G37*
G36*
X21016D02*
X15488D01*
Y54543D01*
X21016D01*
Y57020D01*
D02*
G37*
%LPD*%
D13*
X81500Y102000D02*
D03*
X57878D02*
D03*
D14*
X45535Y76500D02*
D03*
X62465D02*
D03*
D15*
X63319Y62000D02*
D03*
Y57000D02*
D03*
Y47000D02*
D03*
Y52000D02*
D03*
X40681Y47000D02*
D03*
Y52000D02*
D03*
Y62000D02*
D03*
Y57000D02*
D03*
D16*
X52000Y54500D02*
D03*
D17*
X83350Y79000D02*
D03*
X89650D02*
D03*
X83350Y71500D02*
D03*
X89650D02*
D03*
D18*
X22000Y58004D02*
D03*
Y45996D02*
D03*
D19*
X32000Y55543D02*
D03*
Y52000D02*
D03*
Y48000D02*
D03*
Y44457D02*
D03*
X80000Y53772D02*
D03*
Y50228D02*
D03*
D20*
X38886Y68000D02*
D03*
X42114D02*
D03*
D21*
X43220Y41500D02*
D03*
X40780D02*
D03*
D22*
X63228D02*
D03*
X66772D02*
D03*
X63228Y38000D02*
D03*
X66772D02*
D03*
D23*
X73500Y50150D02*
D03*
Y43850D02*
D03*
X86500Y59799D02*
D03*
Y53500D02*
D03*
D37*
X54100Y54500D02*
D03*
X49800D02*
D03*
Y58600D02*
D03*
X54100D02*
D03*
Y50300D02*
D03*
X49900D02*
D03*
D38*
X86500Y53500D02*
X86228Y53772D01*
X40780Y46902D02*
X40681Y47000D01*
X79921Y50150D02*
X80000Y50228D01*
X73500Y50150D02*
X73252Y51075D01*
X72575Y51752D01*
X71650Y52000D01*
X66772Y34728D02*
X67000Y34500D01*
X63228Y41500D02*
X63319Y41591D01*
X38886Y63795D02*
X39126Y62898D01*
X39783Y62240D01*
X40681Y62000D01*
X80000Y53772D02*
X86228D01*
X40780Y41500D02*
Y46902D01*
X73500Y50150D02*
X79921D01*
X63319Y52000D02*
X71650D01*
X66772Y34728D02*
Y38000D01*
X63228D02*
Y41500D01*
X63319Y41591D02*
Y47000D01*
X63228Y38000D02*
X63228D01*
X32000Y48000D02*
Y52000D01*
X40681D01*
X42114Y65114D02*
Y68000D01*
X38886Y63795D02*
Y68000D01*
D39*
X83350Y71500D02*
Y79000D01*
D40*
X73506Y69854D02*
D03*
X30494D02*
D03*
D41*
X52000Y17650D02*
D03*
Y136350D02*
D03*
D42*
X80492Y114061D02*
D03*
X93209Y97500D02*
D03*
X78753Y59444D02*
D03*
X7500Y66552D02*
D03*
Y71746D02*
D03*
Y77207D02*
D03*
X73000Y123000D02*
D03*
X67500D02*
D03*
X81870Y38000D02*
D03*
X78130Y33000D02*
D03*
X74484Y28505D02*
D03*
X71000Y24000D02*
D03*
X28000Y119000D02*
D03*
X25000Y115000D02*
D03*
X22000Y111000D02*
D03*
X19000Y107000D02*
D03*
X38000Y82000D02*
D03*
Y77000D02*
D03*
X27000Y39673D02*
D03*
X22000D02*
D03*
X94135Y63199D02*
D03*
X94135Y88000D02*
D03*
X47000Y68000D02*
D03*
X52000Y35000D02*
D03*
Y41000D02*
D03*
Y46000D02*
D03*
X67000Y34500D02*
D03*
X65000Y102500D02*
D03*
X42114Y65114D02*
D03*
M02*
